<svg id="Слой_1" data-name="Слой 1" xmlns="http://www.w3.org/2000/svg" viewBox="0 0 300 100"><defs><style>.cls-1{fill:#980100;}.cls-2{fill:#fff;}</style></defs><title>Evoglass</title><path class="cls-1" d="M10.5,47.27a.46.46,0,0,1,.19,0l.33,0c.15.09.21.19.16.28s0,.17.17.23c0,.1-.07.12-.19.07s-.16,0-.1.17a.17.17,0,0,0-.21,0c-.07.05-.13.06-.16,0a.23.23,0,0,1-.16-.21c0-.11-.13-.12-.35,0q0-.13.3-.21C10.65,47.44,10.66,47.37,10.5,47.27Zm-.23-.42c.19,0,.27.1.23.28h-.23ZM10.5,39c.1.06.16.06.19,0s.15.12,0,.16S10.44,39.11,10.5,39Zm.19-1.59a.73.73,0,0,1,.23.42.31.31,0,0,1-.28-.14A.21.21,0,0,1,10.69,37.36Zm.19-.93a1.77,1.77,0,0,0,.23.14Zm0,3.55a1.52,1.52,0,0,1,.51-.23Zm.84,34.32c.12,0,.19,0,.19.09q.18-.09,0-.09c.09-.1.17-.12.23-.07a.62.62,0,0,0,.33.07.41.41,0,0,1,.11.25.19.19,0,0,0,.21.17c0,.25,0,.4-.14.47a.57.57,0,0,1-.32.09H12a.22.22,0,0,0-.23.14.51.51,0,0,1-.56-.37c.15,0,.22-.07.21-.12a1.7,1.7,0,0,1,0-.4.33.33,0,0,0,.23.1.31.31,0,0,0-.05-.17.29.29,0,0,1,0-.16l.14,0Zm1.07-35.12v.1l-.14-.05-.09.09h-.33c0,.07,0,.1.14.1l-.11.19a.71.71,0,0,0-.12.23h-.75v-.09h0c.09-.07.11-.13,0-.19s-.06-.14,0-.24a1.15,1.15,0,0,0,.28.1.77.77,0,0,0,.24-.1l-.05-.18.05-.19a.43.43,0,0,1,.28,0c.12,0,.17,0,.14-.19.12.07.14.14,0,.24a.29.29,0,0,0,.21-.07.28.28,0,0,1,.21-.07v.32ZM11.58,74.11c-.09,0-.14,0-.14-.07a.46.46,0,0,0,0-.21Zm0,0a.52.52,0,0,1,.23,0c.1,0,.14,0,.14-.14Zm0,0a.52.52,0,0,1,.05.23Zm1.87-28.24a3,3,0,0,1-.09-1c0-.33.07-.66.11-1s.09-.66.12-1a3.35,3.35,0,0,0-.05-1c0-.07.05-.1.14-.1s-.07-.21-.11-.16l-.17.16-.14-.14-.14.05a2.28,2.28,0,0,0,0-.54.63.63,0,0,1,.07-.44l.14,0,0-.14q-.2-.23-.09-.3c.06,0,0-.16-.1-.35h.33v-.14l.14,0-.05-.14c0-.13,0-.18-.14-.17a.32.32,0,0,1-.28-.07c0-.06,0-.09.1-.09v-.14c.15.15.28.18.37.07a.58.58,0,0,1,.47-.17c-.16-.09-.23-.17-.21-.25s-.06-.17-.21-.26h.09l-.05-.14h.1a1.32,1.32,0,0,0-.14-.28s-.07-.12-.1-.28a.55.55,0,0,1,.63-.09,2.31,2.31,0,0,0,.54.14s.06,0,.07-.05,0-.09,0-.09a.83.83,0,0,1,.4.39.52.52,0,0,1-.07.59.28.28,0,0,1,.18.25.2.2,0,0,0,.14.21c.1,0,.17,0,.24-.09a.68.68,0,0,0,.11-.33,1,1,0,0,0,0-.35c0-.11,0-.14-.07-.11a3.25,3.25,0,0,0,.1-1c0-.46,0-.87,0-1.21.22.06.32.09.3.07s.11,0,.36-.07l.09.26a.5.5,0,0,1,0,.3q.18,0,.21-.12c0-.07.08-.11.21-.11a3.15,3.15,0,0,1-.12.6,4.88,4.88,0,0,0-.11.71c.09,0,.15,0,.18-.05a.65.65,0,0,0,.07-.21,1.67,1.67,0,0,1,.05-.19s.07,0,.16,0a.52.52,0,0,1,.07-.49,1.51,1.51,0,0,1,.35-.39l.05.14h.09q.19.09,0,.09c.07.16.14.2.24.14a.49.49,0,0,1,.37,0c-.09.1-.12.14-.09.14h.16a.66.66,0,0,1,.21,0c.06,0,.08.07.05.16.06-.15.14-.21.23-.16a.47.47,0,0,0,.38,0c0,.07,0,.11-.12.14s0,0,.12,0v.14l.09,0c0,.07.09.1.19.1a.12.12,0,0,1,.14.14l-.05.09.05,0h-.14c.06.19.25.25.56.19a1.7,1.7,0,0,1,.84,0c0,.09.12.14.26.14a.41.41,0,0,1,.3.09v.09h.09c.07.19,0,.29-.21.31a1.66,1.66,0,0,0-.53.11c.09.32,0,.47-.19.47a.54.54,0,0,0-.47.19.92.92,0,0,0,.66,0,1.65,1.65,0,0,0,.56-.23l.25.14a.27.27,0,0,1,.17.19.08.08,0,0,0-.09.09v.19a.28.28,0,0,0,0,.14s0,0,.07-.09,0-.29,0-.21a.57.57,0,0,0,.12.21.68.68,0,0,0,.16-.54.66.66,0,0,1,.17-.54l.14,0-.05-.1h.33c0,.91,0,1.64,0,2.2s.05,1.29.14,2.2A2.87,2.87,0,0,0,23,41.31a5.42,5.42,0,0,1-.09-1.7l.14,0,.05-.14a.61.61,0,0,1,.21.28c0,.13.16.17.35.14a.28.28,0,0,0,.12.33,1.27,1.27,0,0,0,.39.14c.07.44.17,1,.33,1.57a4.42,4.42,0,0,1,.14,1.66,2.24,2.24,0,0,0,0,.37c0,.16-.07.27-.28.33l-.14,0,0,.14c-.06,0-.07.06,0,.07s0,.06,0,.12a.55.55,0,0,0-.28,0c-.12,0-.11,0,.05.07s.3,0,.33.1a.19.19,0,0,0-.19.09l.19,0,.14-.07,0,.14.14,0c.35.06.52.06.52,0s-.17-.09-.52-.09l0-.14-.14,0v-.23h0c.06-.15.12-.22.16-.21l.31.07a.63.63,0,0,1-.17-.51q0-.33,0-.66s0,.08,0,.24c.16,0,.18-.12.07-.26s-.1-.21,0-.21c-.1,0-.16-.08-.19-.24a2.59,2.59,0,0,1,0-.51v-.65l.1-.19s-.05,0-.05,0,0,0,0,0h-.09c0-.06,0-.1.12-.11s.07-.09,0-.22l-.07-.09c.08.09.1.06.07-.09a.59.59,0,0,0-.23-.28,1.56,1.56,0,0,1-.33-.38c-.06.16-.1.2-.11.12s-.12-.12-.31-.12c.06-.06.08-.11,0-.14s0-.09.05-.18a.17.17,0,0,1-.21,0c-.05-.06-.07,0-.07.14,0-.16-.06-.27-.07-.33a1.7,1.7,0,0,0-.17-.33c.22,0,.33-.11.33-.35s0-.36-.09-.39c.21,0,.32-.19.32-.56a4.27,4.27,0,0,0,.89,0,4.86,4.86,0,0,1,1.08,0,.78.78,0,0,0,.3.37.46.46,0,0,0,.44,0c-.15.06-.19.13-.11.21a.67.67,0,0,0,.25.16c.16-.16.18-.28.05-.37s-.11-.19.05-.28l.14,0L27,38a4.28,4.28,0,0,1,1.33-.09,12.17,12.17,0,0,0,1.48,0c.06,0,.07-.07,0-.1s-.05-.08,0-.14a.46.46,0,0,1,.46.14c.1.13.29.16.57.1l-.05.14.14.09v.19h.23v-.19l.14-.09,0-.14h2.15s0-.08,0-.24l.31,0s.11.06.21.19c.12-.16.19-.21.21-.17s0,0,.12-.07a.88.88,0,0,1,.42.21c.18.14.29.07.32-.21.13.25.4.34.82.26a2.74,2.74,0,0,1,1.1,0V38H37a.43.43,0,0,1-.32.32.71.71,0,0,0,0,.45.51.51,0,0,1,.05.39c.19-.06.31,0,.37,0a.57.57,0,0,0,.38.19.45.45,0,0,0,.12-.21c0-.08.1-.09.25,0a1.13,1.13,0,0,1,.07-.39,1.87,1.87,0,0,1,.17-.31.49.49,0,0,0,.09-.28.58.58,0,0,0-.14-.32,3.08,3.08,0,0,0,1,0A.9.9,0,0,1,40,38a.92.92,0,0,0,.33-.14c.15-.1.23-.05.23.14a1.33,1.33,0,0,1,.7-.17h1.1l1.12,0a4.69,4.69,0,0,0,.87,0v-.19l.14.05-.05-.1c.1,0,.14-.12.14-.28a.23.23,0,0,1,.17.16c0,.08.1.09.25,0l0,.14h.14l.56.16a1.9,1.9,0,0,0,.89,0l-.05.14.14.09c-.12.09-.13.16,0,.21s.15.15.12.3a.88.88,0,0,1-.24.12q-.09,0-.18-.12l.09,0-.09,0c0-.09-.11-.12-.22-.07a.46.46,0,0,0-.21.16c-.06,0-.07-.07,0-.11a.31.31,0,0,0,0-.17c-.28,0-.36.1-.25.19s.11.23,0,.42c-.12-.12-.19-.08-.19.14L45.43,39l0,.14c-.06,0-.09,0-.09.14a.19.19,0,0,1-.09.19l-.1.1,0,.14c-.16-.07-.27-.07-.33,0a.39.39,0,0,1-.32,0c-.13-.29-.27-.44-.43-.47a.35.35,0,0,0-.23.07.34.34,0,0,1-.19.07.8.8,0,0,1-.51-.07,2.22,2.22,0,0,0-.47-.17.66.66,0,0,0-.26.1c-.11.06-.16,0-.16-.19h.14l0-.14a1.13,1.13,0,0,1,.14-.61c.06,0,.09,0,.09,0-.25,0-.4.15-.47.46.1,0,.14,0,.12.05s0,.08-.07.14l-.09,0,0,.09c-.15,0-.24,0-.25,0s-.1,0-.26,0a.47.47,0,0,0,.09.33.49.49,0,0,1,.14.23.73.73,0,0,1-.18.14c-.07,0,0,.08.14.14-.07.13-.15.14-.26,0a.51.51,0,0,0-.26-.14c0,.16.07.23.12.23s0,.08,0,.24a1.16,1.16,0,0,1-.4.14c-.17,0-.21,0-.12-.19a1,1,0,0,0-.65.56c-.07,0-.11,0-.14,0a.3.3,0,0,0-.19,0l0-.1h-.47q0-.23-.21,0c-.11.16-.09.25.07.28a.73.73,0,0,1,.14-.18l.14.14.14,0c0,.19,0,.27.23.23V41l.14,0,0-.1a.36.36,0,0,0,.32,0,.58.58,0,0,1,.33-.07.31.31,0,0,1-.09.12s-.06.05-.1.11.07.16.21.1.18,0,.12.14a1.27,1.27,0,0,0,.4-.33c.14-.15.29-.12.44.09q.19-.13,0-.18c-.12,0-.15-.13-.09-.28a1.4,1.4,0,0,0,.68-.33,3.57,3.57,0,0,1,.54-.42,1.15,1.15,0,0,0,1,.16,2.15,2.15,0,0,1,1.13,0l0,.23,0,.19a.45.45,0,0,1-.42.09v.24q0,.09.18.09l0,.14.09.09a.86.86,0,0,0-.07.21.15.15,0,0,1-.16.12c-.1,0-.14,0-.14.1a1.19,1.19,0,0,0,.51.07c.19,0,.31,0,.37.16a.14.14,0,0,1-.14.09c-.06,0-.09,0-.09.1a.11.11,0,0,1,.12.07.1.1,0,0,0,.11.07,0,0,0,0,1,0,0s0,0,0-.09l.09,0,0-.14h.42l0,.14L46,42v.33H45.9l.14,0c0,.07-.06.1-.07.1s0,0,0,.09c.16,0,.24-.06.24-.19l.14,0,0-.09a.26.26,0,0,1,.19-.1c.06,0,.08-.06,0-.18l.14,0,0-.09c0-.07,0-.08.07,0s0,0,.12,0l0,.14.09.09a.28.28,0,0,1,.1.19h-.14l.14,0a.32.32,0,0,1,.09.21.29.29,0,0,0,.09.21H47v.1a.48.48,0,0,1-.28,0,.68.68,0,0,0-.37.07.45.45,0,0,0,.46.1.61.61,0,0,1,.52,0c-.07,0-.1,0-.1.12a.91.91,0,0,0,0,.26.71.71,0,0,0,.12.23.12.12,0,0,0,.16.05c0,.15,0,.21-.07.18a.45.45,0,0,1-.16-.09v1.78a1.43,1.43,0,0,0-.45,0l-.65.07a5.45,5.45,0,0,1-.68,0,1.16,1.16,0,0,1-.51-.09s0,0,0-.1a.5.5,0,0,0,0-.14.35.35,0,0,1-.5.05A.3.3,0,0,1,44.5,45h-.33a.56.56,0,0,1,.14-.47,3.2,3.2,0,0,0,.33-.51.28.28,0,0,0-.38.14,1.69,1.69,0,0,1-.28.37c-.06,0-.09,0-.07,0s0-.08,0-.14a.53.53,0,0,0-.21.23c-.08.13-.09.19,0,.19s-.13.15-.21.07,0-.15.07-.21a.52.52,0,0,1-.32-.52c.09.1.14.1.14,0s0-.22-.12-.21a.16.16,0,0,1-.21-.11.31.31,0,0,1,.19-.21,1.34,1.34,0,0,1,.3-.12,1.34,1.34,0,0,0,.3-.12.31.31,0,0,0,.19-.21l.09,0,.1.05a.4.4,0,0,0,.3,0c.11,0,.12-.1,0-.16-.07.12-.11.14-.15,0s-.07-.13-.14-.1,0,.14,0,.14L44.12,43,44,43a.65.65,0,0,1-.42-.05c0-.22,0-.36-.05-.44a.35.35,0,0,0-.25-.14l-.33-.07a.46.46,0,0,1-.26-.19,1.19,1.19,0,0,0-.3.19.88.88,0,0,1-.35.14c-.07.25,0,.41.11.49a.67.67,0,0,1,.31.35h-.19v.14a.23.23,0,0,1-.12.12s-.05,0,0,.11l0,.1,0,.09H42a.5.5,0,0,0,.51.33l-.37.21a.37.37,0,0,1-.38,0,.52.52,0,0,0,.17.33.27.27,0,0,0,.3,0,1.29,1.29,0,0,0,.21.37,1.42,1.42,0,0,0,.31.28l-.15.1.05.14a17.06,17.06,0,0,0-2.17,0,5.11,5.11,0,0,0-1.76.47v-.51a1.6,1.6,0,0,0-.56.09,2.36,2.36,0,0,1-.51.14v-.23l-.7.16c-.22.05-.31.1-.28.16s-.09.13-.17.1a.41.41,0,0,1-.18-.12.15.15,0,0,1-.05-.16c0-.07.1-.08.26-.05a.6.6,0,0,0-.49-.09,1.93,1.93,0,0,1-.59,0c-.12,0-.13,0,0,.16s.07.13-.12.07-.23,0-.14,0,.14-.12.14-.18c-1.53,0-3,0-4.49,0s-2.83,0-4.11.07l-.05-.14-.14,0a6.42,6.42,0,0,0-1.64,0,3,3,0,0,1-1.44-.14.71.71,0,0,1-.59.14c-.26,0-.37,0-.3.18s-.11.08-.14,0a.2.2,0,0,0-.14,0,6.07,6.07,0,0,1,.23,1.5c0,.62.05,1.34.05,2.15h-.19a1,1,0,0,0-.07.16.41.41,0,0,1-.16.17,1.29,1.29,0,0,1-.21-.24c-.08-.09-.09-.17,0-.23q-.18.14-.18-.09c-.1.06-.11.14,0,.23a.85.85,0,0,0,.21.19.24.24,0,0,1-.37,0,.23.23,0,0,0-.38,0,1.07,1.07,0,0,1,.42.28l.38.37-.05.1.05,0c0,.1,0,.15-.05.17a.1.1,0,0,0-.09.11c0,.07.09.05.19,0a.31.31,0,0,1,.37,0,.48.48,0,0,1-.12.16.31.31,0,0,0,0,.26L22.1,51l-.05.1a1.22,1.22,0,0,0,.07.28c.05.12.09.06.12-.19h.14l.09.09a.33.33,0,0,1,.07.47.89.89,0,0,0-.16.52,1.56,1.56,0,0,0,.14.63c.09.2.05.25-.14.16a1.13,1.13,0,0,1,.16,1,.92.92,0,0,0,.17.91,11.15,11.15,0,0,0-.17,2c0,.56,0,1.25,0,2.06a2.06,2.06,0,0,0-.75,0,1,1,0,0,1-.56,0c-.16,0-.21,0-.17.18s0,.21-.16.14c0,.07,0,.1.07.12s.07,0,.07.12c.22.06.3,0,.23-.24.1,0,.13.12.1.26a.49.49,0,0,0,0,.3c.25-.06.35-.18.3-.35s0-.28.26-.35c0,.16.06.24.19.24a2.39,2.39,0,0,0,0,1.23,2.1,2.1,0,0,1,0,1,2.68,2.68,0,0,1-.12.26s0,.1.12.26q.47-.19.51-.42c0-.16.22-.27.56-.33a1.49,1.49,0,0,0,0,.47.41.41,0,0,1-.07.32c.12,0,.18,0,.18,0s.05.06.15.12c0-.16.06-.22.18-.19l.38.09.51-.25c.28-.14.48-.1.61.11a1.76,1.76,0,0,1,.33-.11l.42-.07c0,.06,0,.09-.05.09s-.05,0-.05.09a5.62,5.62,0,0,1,2-.16,16.28,16.28,0,0,0,2.33,0c0,.09,0,.15-.07.16s-.11.06-.11.12a2.06,2.06,0,0,1,.72,0l.68.09c-.09.1-.12.17-.07.22a.25.25,0,0,1,.07.21c.25,0,.47,0,.68,0a2.69,2.69,0,0,0,.63,0c.09,0,.09,0,0-.14s0-.16.14-.1v-.09l.14.05,0-.15c.19-.09.42-.18.68-.28a1.52,1.52,0,0,1,.82,0l.09,0,.05-.09a.62.62,0,0,0,.19.07c.06,0,.06.07,0,.16a5.89,5.89,0,0,1,1.47-.21c.58,0,1.18,0,1.82,0s1.28.08,1.92.09a8.24,8.24,0,0,0,1.71-.11c.06,0,.09,0,.09-.14s.09.06.28.09a5.41,5.41,0,0,0,.58.07,2.91,2.91,0,0,0,.59,0,.45.45,0,0,0,.37-.16.85.85,0,0,1,.21.14.36.36,0,0,0,.35,0c0-.1,0-.14-.09-.14s.09-.15.16-.07.09.15,0,.21,0,0,.09,0a.39.39,0,0,1,.14,0l.1-.14c.06,0,.07,0,0,.07s0,.07,0,.07a2.75,2.75,0,0,0,1,0,5,5,0,0,1,1.08,0q.28.09.21.09t.21-.09a.93.93,0,0,1,.68.07.44.44,0,0,1,.21.54.51.51,0,0,1-.26.09.85.85,0,0,1-.23,0,.5.5,0,0,0-.24,0,.3.3,0,0,0-.16.23l-.14,0,0,.14h-.24c-.09,0-.11,0,0,.11s0,.09-.19,0c0,.12,0,.19,0,.21s0,.05,0,.11a.5.5,0,0,0-.35.1.81.81,0,0,1-.31.14c.07.12.13.15.19.07s.13-.07.19,0c0-.15.06-.23.19-.23-.13.15-.1.17.09,0a.52.52,0,0,1,.56,0c.06.09.08.15,0,.18s0,.08.18.14.11-.07,0-.14,0-.12.05-.18.23,0,.23.11.08.15.23.12a1.81,1.81,0,0,0-.21,1,9.94,9.94,0,0,1,0,1.22c0,.06,0,.11.09.16s.14,0,.14-.07a.62.62,0,0,1,.12.54.84.84,0,0,0,0,.44c0,.16.05.19.07.1s0-.08-.07,0,0,.12,0,.17.15.08.15.11,0,.08-.1,0-.09-.06-.09,0a.68.68,0,0,0,0,.52.77.77,0,0,1,0,.61,1,1,0,0,0,.23-.33c0-.06,0-.09,0-.07a.08.08,0,0,1-.1,0c0-.1.06-.14.17-.14a.32.32,0,0,0,.25-.1c-.06-.06-.11-.07-.14,0s0,0,0-.21c.25.06.36.19.35.37s.09.31.3.38v0h.1c0,.07-.07.1-.19.1a1.11,1.11,0,0,1,0,.39.93.93,0,0,1-.16.26c0,.06,0,.08.14,0s.17,0,.23.14l-.09.09,0,.14c-.44,0-.89,0-1.36,0s-.87,0-1.21,0l0-.14-.09,0c-.13,0-.19,0-.19.24q-.09,0-.12,0s-.05,0-.12,0,0,.13-.11.12-.15,0-.21.21c-.16-.13-.19-.24-.1-.33a1.36,1.36,0,0,1-.56.07l-.7-.07a6.3,6.3,0,0,0-.75,0,1.85,1.85,0,0,0-.65.1c-.06-.16-.14-.21-.24-.17s-.15,0-.18-.26c.06,0,.1,0,.11,0a.14.14,0,0,0,.12,0,3,3,0,0,1,0-.73.66.66,0,0,0-.14-.58c0,.16-.11.22-.23.19a.78.78,0,0,1-.38-.28c-.09.09-.05.17.12.23a.25.25,0,0,1,.16.37c-.12-.06-.19-.08-.21-.07a.16.16,0,0,0,0,.1,1.56,1.56,0,0,1,0,.16c0,.06,0,.11-.12.14a.47.47,0,0,1,.19.09.8.8,0,0,1,.09.28.77.77,0,0,0-.35.17.24.24,0,0,1-.3,0l-.09,0-.1,0c0-.15,0-.22-.14-.19s-.15,0-.18,0l0-.14-.14,0a.24.24,0,0,0,0-.16.15.15,0,0,1,0-.16q.24.09.33,0v0l.05,0c.09-.09.14-.12.14-.07s.05.09.14.12,0-.1,0-.12.05,0,.05-.12-.11,0-.14,0-.07,0-.1,0l-.09,0-.05,0a.6.6,0,0,0-.21-.14q-.12,0,0-.18-.15,0-.15.09c-.09,0-.1,0,0-.16s0-.17-.14-.17l-.05-.14-.14,0c-.06-.06-.07-.1,0-.12s0-.08,0-.21a.55.55,0,0,0,.42.1c.06-.07.07-.13,0-.19s0-.06.26,0c-.06-.06-.15-.18-.28-.35s-.06-.24.19-.21c-.06-.1-.19-.12-.38-.07a.64.64,0,0,1-.46,0c.06-.15,0-.23-.14-.23.06.19,0,.27-.28.26l-.71,0c0,.13.11.2.22.21a.85.85,0,0,0,.35,0l.37-.07a.35.35,0,0,1,.28.07c0,.19-.08.26-.14.21a.29.29,0,0,0-.28,0,1.31,1.31,0,0,0,.09.17s.07.1.1.16L40,68l0,.14c-.06,0-.07.05,0,.07s0,0,0,.11l-.14,0,.05.09c-.25,0-.41,0-.47.1l-.09-.1h-.19c0-.09,0-.14,0-.16s0-.07,0-.16l-.05,0L39,68l0,.1q0,.18-.09.18c0-.06,0-.12-.1-.18s-.07.11,0,.14a.18.18,0,0,1,0,.14l-.09,0h.09c.13.1.15.2.07.31a.21.21,0,0,0,0,.3l-.1,0H39c0,.12,0,.19,0,.21s-.08.08,0,.21l-.09,0,.05.14h-.28a1.59,1.59,0,0,0,0-.75c-.13,0-.21,0-.24-.1h-.09l.05-.09-.1,0H38a.35.35,0,0,1,.07-.26s.1-.1.16-.16a.2.2,0,0,0-.12-.12s0-.07,0-.16H37.9V68l-.14,0c0-.16,0-.2-.09-.14s-.14,0-.14-.14l.09,0-.09-.09c0-.1,0-.13.14-.1l.19.1a.27.27,0,0,0-.28-.24,1.25,1.25,0,0,0-.38,0l0-.09-.14,0v-.09c-.1,0-.14,0-.14.07s0,.11-.1.11l-.14,0,0,.09a.15.15,0,0,0-.21,0,.34.34,0,0,0-.12.28,1.28,1.28,0,0,0-1,.38,1.62,1.62,0,0,1-1.12.42c0,.06,0,.17-.1.32s-.06.24.1.24c0,.15-.08.18-.14.09s-.13-.12-.19-.09c0,.18.11.25.33.18l0,.14h.14c0,.16,0,.25.14.29l-.05.09.14,0c.07,0,.08,0,.05.07s-.05,0-.05.11a.42.42,0,0,0-.32-.11L34,70S34,70,34,70a.83.83,0,0,1,0-.25H31.08a1.33,1.33,0,0,0,.32-1.08q-.18,0-.18-.09c-.07,0-.09.07-.07.11a.28.28,0,0,1,0,.17.45.45,0,0,0-.25-.24.94.94,0,0,0-.38,0l-.42.05-.3,0,0-.19a.61.61,0,0,0-.32.12q-.19.12-.24-.12a.42.42,0,0,0-.11.19.59.59,0,0,1-.12.19c.06.15.11.22.14.18s.12,0,.28,0c-.16.13-.23.23-.23.31a.8.8,0,0,1-.19.35h-.75c0-.1,0-.16.05-.19s.08-.11,0-.24-.25-.05-.28,0-.07.11-.14.11l0-.09-.1,0c-.15-.06-.2-.12-.14-.17s.08-.13.05-.25a1.8,1.8,0,0,0-.58.25c-.24.15-.4.11-.5-.11-.21,0-.29.09-.23.28a.34.34,0,0,0-.3-.07c-.14,0-.18-.07-.12-.26a.46.46,0,0,1-.23.12c-.1,0-.13.1-.1.25a1.26,1.26,0,0,0-.3,0c-.08,0-.09.1,0,.26H22.61c.07-.1.08-.15.05-.17s-.05-.07-.05-.16a.59.59,0,0,1-.23.09c-.13,0-.13.08,0,.14-.37.16-.75.31-1.12.45a5.81,5.81,0,0,1-1.26.3v-.56a17.41,17.41,0,0,0-3-.12c-1.08,0-2.11.06-3.11,0a1.12,1.12,0,0,1-.16-.22l-.17-.21c-.15-.06-.25,0-.28.08s-.09.11-.18,0a1.7,1.7,0,0,0,.25.51,1.3,1.3,0,0,1,.21.47c.06,0,.09-.06.07-.09a.16.16,0,0,1,0-.14.7.7,0,0,1,.42.21,2.13,2.13,0,0,1,.23.32,2.49,2.49,0,0,1,.16.33.55.55,0,0,0,.26.26,2.61,2.61,0,0,1-.21.58c-.11.24,0,.43.26.59,0,.06,0,.07-.07,0a.14.14,0,0,1-.07-.14,1.59,1.59,0,0,0,.14.42,4.14,4.14,0,0,1,.19.57l-.14,0-.05.14a.8.8,0,0,1-.61-.26,2.63,2.63,0,0,0-.37-.35c-.07,0-.08,0,0,.09s0,.13-.05.1a.64.64,0,0,1-.23-.31c0-.1-.14-.14-.33-.11a.69.69,0,0,0,0-.28.15.15,0,0,0-.17-.14c.1-.07.14-.11.14-.14a1.35,1.35,0,0,0,0-.24c.09.1.2.06.32-.09a.7.7,0,0,0-.32-.19,2,2,0,0,1-.38-.14.6.6,0,0,1,.21-.14.3.3,0,0,0,.17-.19c-.25-.25-.49-.46-.71-.65l-.65-.56a.56.56,0,0,0,.35-.09.44.44,0,0,1,.3-.1c.07-.09.06-.14,0-.14s-.12,0-.12-.09h.1v-.1c-.06-.18,0-.28.16-.28s.27-.06.3-.18c-.15,0-.24,0-.25-.17s-.15-.22-.4-.25l0-.24,0-.18.26.07.25.07a.34.34,0,0,0-.14-.38.21.21,0,0,1,0-.33.87.87,0,0,1,.51.24.66.66,0,0,0,.56.14.29.29,0,0,0,.1-.3.23.23,0,0,1,0-.26c.13,0,.2,0,.21.14s.09.12.21.09.1,0,.1-.14l.14,0-.05-.14c.19-.06.22-.11.09-.14s-.12-.1,0-.19l.1,0-.05-.14a.12.12,0,0,0,.16,0c.05,0,.09,0,.12,0l0,.14.09,0c.06.09.13.09.21,0a.68.68,0,0,1,.21-.21c-.06,0-.09,0-.07-.07s0-.07-.07-.07a.16.16,0,0,1-.12,0s-.07,0-.07.1h-.09v.09c-.13-.19-.25-.19-.38,0l-.14,0,0,.1a2,2,0,0,1-.33.11l-.16,0h-.16a.68.68,0,0,0-.33.14l-.09,0-.1,0a.51.51,0,0,0-.23-.19V62.66h.33c-.1-.1-.07-.14.09-.14v-.1l.09,0v-.14a16.44,16.44,0,0,1,2.25,0c.84.05,1.77.06,2.8,0,0,.15.06.26.07.33s.06.17.12.32c.09-.06.08-.17,0-.32s-.11-.27,0-.33H20c-.1-.16-.32-.22-.66-.19a1.13,1.13,0,0,1-.65,0l0-.14-.09,0c.19-.1.19-.2,0-.31s-.29-.13-.35-.07a1,1,0,0,1,.28.14c.1.07.08.14,0,.24h-.14l0,.09v.19a2,2,0,0,0-1-.07A3.1,3.1,0,0,1,16.25,62c0-.06,0-.08.05-.07s.06,0,.1,0a3.84,3.84,0,0,0-.85-.24l-.7-.09.05-.09-.14,0c0-.21,0-.32,0-.32s0,.1,0,.11-.05.06-.05.12l-.14,0,0,.14a2,2,0,0,1-.32-.11l-.33-.17s.08,0,.23,0c-.09-.22-.18-.29-.25-.21a.26.26,0,0,1-.31,0l.05-.09-.14,0c.06-.09.06-.16,0-.19a.17.17,0,0,1,.21,0c.08,0,.15,0,.21-.1s-.12-.09-.16,0-.14.1-.26,0l.05-.14-.1,0c0-.06,0-.1,0-.11s0-.06,0-.12h.09V60a.52.52,0,0,1,.26-.19c.14-.06.15-.14,0-.23,0,.06,0,.09,0,.09s0-.14-.1-.14c.06.16.06.23,0,.23a.29.29,0,0,1-.21-.09c0,.06,0,.1,0,.12s.07.05.07.11h-.28L13,59.85l-.14,0V53.82l.14,0,.05-.14h0a3.24,3.24,0,0,1,.19-.47q-.09,0-.12,0a.1.1,0,0,0-.11-.07L13,53.07h-.14a11.93,11.93,0,0,1,0-1.47,5.57,5.57,0,0,0-.1-1.52l.05-.14-.14,0c0-.06,0-.08.07-.07a.1.1,0,0,0,.12,0v-.33a.66.66,0,0,0-.12.16s0,.06-.12,0,0-.16-.09-.1v-.09h-.09a.67.67,0,0,0-.17-.12s0-.1,0-.25h-.19V49h-.09c0-.06.07-.08.11-.07a.21.21,0,0,0,.17,0c-.06-.12-.09-.19-.07-.19s.05,0,.11-.14l.1.05.09-.05c0,.07,0,.1,0,.1s0,0,0,.09h.14l.05.09.05-.09.07,0s0,0,.12,0a.26.26,0,0,1-.29.18c.16.07.26.09.31.07a.28.28,0,0,0,.14-.09l.14-.14a.44.44,0,0,1,.3-.07,1.33,1.33,0,0,0-.23-.28l.05-.09-.05-.15c.15-.15.24-.2.26-.14s.07.07.16,0a.72.72,0,0,0,.09-.53A2.21,2.21,0,0,1,14,47a.23.23,0,0,1,.24-.05.56.56,0,0,1,.14.09s.05,0,.07,0a.58.58,0,0,0,.11-.19c.13,0,.16.07.1.21s0,.18.14.12l.09-.56,0,0-.05,0c.09,0,.11-.05.05-.15a.4.4,0,0,1-.1-.23q.09,0,.12,0s.05.05.12.05H15v-.05s.06.05.09.14.08.06.14-.09A.3.3,0,0,1,15,46c.15,0,.19,0,.12,0A.18.18,0,0,0,15,46l-.14,0,0,.14h-.14l0-.14-.05.14a2,2,0,0,1-.07-1.12,10.24,10.24,0,0,0,.16-1.27c0-.25,0-.51,0-.79a4.72,4.72,0,0,1,0-.84c-.06,0-.09.05-.09.07s0,0-.1,0V42h-.09c-.06,0-.08,0-.07-.12s0-.12-.07-.12a3,3,0,0,0-.23,1.64.2.2,0,0,0,.07.16.26.26,0,0,1,.07.17.1.1,0,0,1-.07.11.11.11,0,0,0-.07.12.75.75,0,0,0,0,.3,2,2,0,0,1,0,.35A1.3,1.3,0,0,1,14,45c0,.08-.07.12-.16.12.16.12.21.25.16.37a.84.84,0,0,0,0,.51h-.52l.05-.09Zm-1.59-7.62a5.27,5.27,0,0,0,.37-.42.45.45,0,0,1,.52-.14Zm.28,11.5a.24.24,0,0,1-.12.07s0,.07,0,.17-.15-.1-.07-.19S12.08,49.69,12.14,49.75Zm-.09-.37a.13.13,0,0,1,0-.19.76.76,0,0,0,.12-.19Zm0-13,.09,0,.09,0Zm0,9.63a.26.26,0,0,1,.1.21.29.29,0,0,0,.09.21Zm0,23.33a.38.38,0,0,1,.24,0Zm.1-19.17a.48.48,0,0,0,.35-.12.44.44,0,0,1,.3-.11Zm.09-1.87a.57.57,0,0,1,.19.33Zm0,27.4a1,1,0,0,1,.33,0Zm.37-37.82q.19.09,0,.18a.31.31,0,0,1-.28,0,.13.13,0,0,1,.14-.14C12.61,38,12.65,37.94,12.65,37.88Zm-.28,11.73h.14a.2.2,0,0,1,.05-.14Zm.1,26a.93.93,0,0,0,.09-.24.7.7,0,0,0,.45.19,1.49,1.49,0,0,1,.53.14c0,.06,0,.1,0,.12s-.07,0-.07-.07-.13.11-.12.16a2.06,2.06,0,0,1,.07.26h-.32a.29.29,0,0,0,.18.23c.1,0,.14.13.14.28a.08.08,0,0,1-.09-.09c-.06,0-.08,0-.05.07a.15.15,0,0,0,.14.07.77.77,0,0,0,.14-.19c0-.06.11-.08.24,0a.29.29,0,0,1,.07.37,2,2,0,0,1-.21.28l-.14-.05-.1.14a.44.44,0,0,1-.39-.16,1.33,1.33,0,0,1-.19-.35,1.89,1.89,0,0,0-.17-.35.4.4,0,0,0-.28-.21.28.28,0,0,0,.1-.21V75.7l.14,0Zm.28-36.15-.05-.11a.24.24,0,0,0,0-.12ZM13,37.22a.06.06,0,0,0,.07,0,.08.08,0,0,1,.07,0l.1.18.09-.18h.09v.14l.14-.05a.44.44,0,0,1-.28.3l-.37.17h-.14l-.05-.14v-.19l.24,0Zm-.23,0,.07.09s0,.07.12.1Zm0,.47c.15.12.17.31,0,.56Zm0,1.31.29-.19Zm.15.32a.3.3,0,0,0,0-.16l-.1-.16Zm.28,21.18.09.1c-.06.09-.12.11-.16.07s-.14,0-.26,0a.79.79,0,0,1,.09-.47l.1.05,0-.05c.13,0,.19,0,.19.14ZM13,53.87a.87.87,0,0,1,0-.8ZM13.26,42l.14-.09c.16.09.16.17,0,.23s-.22.14-.18.23a.4.4,0,0,1-.17-.23c0-.12,0-.2.07-.23ZM13,60.08h.19a.41.41,0,0,1,.18.05Zm0,0a.32.32,0,0,0,.05.19Zm0,1.08a.28.28,0,0,1,.23-.14.34.34,0,0,0,.24-.09Zm.19-16.65s0,0,0,.12a.48.48,0,0,1-.09.19c-.05,0-.08.06-.1,0a.57.57,0,0,1,0-.26C13.17,44.61,13.22,44.58,13.22,44.51Zm.14-3.74-.14,0a.34.34,0,0,1-.14,0Zm.93,25.16a.17.17,0,0,1,0-.24,1.7,1.7,0,0,1,.31-.18,1.14,1.14,0,0,0,.3-.21A.19.19,0,0,0,15,65c-.07.09-.11.13-.14.12a.13.13,0,0,1-.07-.1s0-.09-.07-.14-.05,0-.05,0-.06.29-.19.32l-.23-.11a.19.19,0,0,0-.24,0q.24,0,.33.51c-.12-.06-.2-.07-.23,0s-.13,0-.28-.05v.19l-.14-.05-.1.09a.34.34,0,0,1-.23.29c-.13,0-.13.1,0,.23a.21.21,0,0,0,.19-.09.24.24,0,0,1,.14-.14q-.06-.2,0-.24h0l.1-.09c.06,0,.09,0,.09,0s0,0,.09,0l0,.15.14,0a.75.75,0,0,0,0,.26.26.26,0,0,1,0,.25c.15.07.23,0,.23-.11A.44.44,0,0,0,14.2,66h.09ZM13.22,60.5a.78.78,0,0,0,.28-.09Zm1.12,1.31s0,0,0,0,0,0,0-.05a1.05,1.05,0,0,1-.54.05,3.74,3.74,0,0,0-.53-.05Zm-1.08,5.38a.14.14,0,0,0,0-.07s0,0,0-.07Zm.14-4.72a.77.77,0,0,1-.14-.19Zm0-16.55a.06.06,0,0,0,.09,0,.2.2,0,0,1,.14-.05Zm.23-6a.26.26,0,0,0-.19-.1Zm.28,6.17c-.12.12-.09.2.09.23,0,.06-.07.09-.11.09s-.07,0-.07.1-.09-.07-.07-.12a.24.24,0,0,0,0-.16h-.14q-.13,0,0-.12A.4.4,0,0,1,13.87,46.06Zm-.14-7.39c-.09-.09-.17-.08-.23,0Zm-.09,38.62a.49.49,0,0,1-.14-.19Zm0-11.55s0,.06,0,.07a.08.08,0,0,1,0,.07Zm.65.28s0,0-.07,0,0,0-.07,0a.21.21,0,0,0-.23,0Zm.19.94a.32.32,0,0,1-.12-.1.54.54,0,0,0-.12-.14Zm-.14.42a.26.26,0,0,1-.1-.19Zm0-24.74a1,1,0,0,1,0-.28c0-.09.06-.2.09-.32Zm0,4.07q.09-.18.09,0c.07,0,.1,0,.1-.09s.14.11.05.14A.23.23,0,0,1,14.43,46.71Zm.47,14.78s-.05,0-.05,0,0,0,0,0a.42.42,0,0,1-.33-.14Zm-.23-15.57a.4.4,0,0,1-.1.21c-.06.08-.08.15-.05.21s.07,0,.12.07l.17.16Zm-.15,14.35.1.09c.09,0,.14,0,.14-.09s-.08,0,0-.05a.09.09,0,0,1,.1,0s0,0,0-.07C14.63,60.07,14.52,60.12,14.52,60.27ZM15,67.66v-.19l-.09,0c0,.16-.11.18-.21.08s-.15-.12-.12,0a.29.29,0,0,0,.21.09A.3.3,0,0,1,15,67.66Zm-.37-.7c.15-.1.18-.19.09-.28Zm.18,1.59a.36.36,0,0,1-.11.21c-.08.07-.07.15,0,.21,0-.13.08-.14.14,0s.12.11.19,0a2.69,2.69,0,0,0,.09-.84c-.16,0-.22,0-.19.11s0,.1-.14,0v.23l-.14,0Zm-.09-6.69c.06-.15.11-.18.14-.07s.08.15.14.12c-.06.15-.11.18-.14.07S14.82,61.83,14.76,61.86ZM15,46.2a.79.79,0,0,1-.23-.28Zm-.23,27.07c.06.06.1.08.14.07s.06,0,.09,0ZM15.6,78c-.09.06-.15.08-.16,0s-.07,0-.17,0c-.06-.16,0-.24.14-.24S15.63,77.88,15.6,78ZM16,66.26a1.73,1.73,0,0,0,.38.16c.15,0,.23,0,.23-.21a.58.58,0,0,0-.51-.19A.31.31,0,0,1,16,66.26ZM17.66,66a.35.35,0,0,0-.19.35.28.28,0,0,0,.23.31,1.82,1.82,0,0,1,.31-.33q.21-.19,0-.42c-.06.12-.1.17-.14.14A.26.26,0,0,0,17.66,66Zm-.05-29.31a.8.8,0,0,0-.05-.33ZM18,75.42c.1,0,.15.06.15.28h-.24A.72.72,0,0,0,18,75.42Zm.24-37.54a1.54,1.54,0,0,1,.61,0c.25,0,.42,0,.51-.1a1.31,1.31,0,0,1-.61,0C18.58,37.67,18.41,37.72,18.22,37.88Zm.19,24c.12.09.23.11.32,0ZM19,75.84a.48.48,0,0,1-.46.23v-.23l.25-.07A.21.21,0,0,1,19,75.84Zm0-4.16c.22-.06.3,0,.24.23H19Zm.42-31.28c0-.06-.11-.08-.25,0s-.14.08,0,.14c0-.09,0-.13.05-.11s.05,0,.07.09a.11.11,0,0,0,.07.09s0,0,0-.07l.05,0,.05.05c.06,0,.11,0,.16-.12s0-.16,0-.16,0,.07,0,0-.05,0-.11,0h-.1Zm0-3.13a.26.26,0,0,0-.14.09Zm-.1,38.29a.39.39,0,0,1,.4-.21.31.31,0,0,0,.35-.21Zm.24-15.29a.17.17,0,0,1,0-.26c.1-.07.1-.18,0-.3l-.14.28A.18.18,0,0,0,19.53,60.27Zm-.1,6.87c.19.07.32,0,.4-.11a.3.3,0,0,0,0-.35C19.54,66.74,19.4,66.89,19.43,67.14Zm.05-26.6a.52.52,0,0,0-.05-.23Zm.14-2.9h1.71c.54,0,1.1,0,1.66,0ZM20,75.19c-.06,0-.1-.08-.1-.24a.76.76,0,0,0,.19-.12.9.9,0,0,1,.24-.11.11.11,0,0,1,.14,0q0,.08.18,0c.07.24,0,.38-.09.42a.28.28,0,0,0-.23.23c-.1,0-.15,0-.17,0a.1.1,0,0,0-.11-.09l0-.14Zm.37-20.81c-.06,0-.1,0-.11-.07a.11.11,0,0,0-.12-.07v.23l-.14,0v.14c-.06.18-.06.23,0,.14s.12-.1.12,0a.56.56,0,0,1-.17.18c-.07.07-.05.11.08.14a.32.32,0,0,1,.14-.14c.06,0,.07-.1,0-.23l.1,0v-.14h0l.05.14.14,0v.09l-.05.09.14,0v.18l-.14,0,.05.09h-.09c0,.16,0,.25.09.29A.76.76,0,0,0,20.6,55l.1,0,0-.09h.19c0-.13,0-.19-.07-.19a.29.29,0,0,1-.21-.09l.05-.05-.05-.09c.06,0,.09-.07.09-.19s-.1,0-.11,0-.06,0-.12,0l-.05-.09Zm-.37,0a2.45,2.45,0,0,0,.33.18Zm.42.18a.39.39,0,0,0,.05-.14.12.12,0,0,1,0-.09Zm.33,0a.93.93,0,0,0-.24.09Zm-.24.28a.29.29,0,0,1,.24.14Zm1.12-7.34c0,.13-.07.14-.11,0s-.12-.11-.21,0-.11.23-.33.23c0,.22,0,.31.19.26A1.28,1.28,0,0,1,21.4,48c-.1-.09-.12-.15-.07-.16l.16,0a.37.37,0,0,0,.14-.07S21.65,47.66,21.58,47.6ZM21.3,44c.1,0,.13-.05.1-.07l-.12,0a.22.22,0,0,0-.16,0c-.07,0-.08,0-.05.11v0h.09c0,.06-.05.09-.07.09s0,0,0,.1l-.14,0,.05.14c0,.09.08.13.16.12a.23.23,0,0,0,.16-.12h.14l0-.09V44l0,0Zm.14.33a.29.29,0,0,0-.25-.07.28.28,0,0,1-.26-.07ZM21.35,44a.26.26,0,0,0-.14,0l-.14,0Zm.14,2.86c0-.16.06-.18.09-.05s.11.16.24.09,0-.1.07-.11a.11.11,0,0,0,.07-.12.44.44,0,0,1-.38,0C21.43,46.59,21.4,46.65,21.49,46.81Zm0-8.61a.33.33,0,0,1,.14,0,.39.39,0,0,0,.14,0,.49.49,0,0,1,.35.26,1.15,1.15,0,0,0,.31.35Zm.66,36c0,.07-.14.13-.33.19a.72.72,0,0,1-.09-.28C21.88,74,22,74,22.15,74.2Zm-.33-29.36a.53.53,0,0,1,0,.31c0,.14,0,.22.09.25s.1-.1.28-.11.21-.06,0-.12c-.09.12-.16.1-.21-.07S21.91,44.84,21.82,44.84Zm.09,5.57a.27.27,0,0,0,.19,0Zm.38,21.92c.15.07.23.14.23.21s.06.15.19.21,0,.2-.1.21a.16.16,0,0,0-.14.17c-.15,0-.24-.07-.25-.21s-.11-.2-.26-.17c0-.15.05-.25.14-.28A.31.31,0,0,0,22.29,72.33Zm.09-21.13A.8.8,0,0,1,22.1,51Zm0,0A.44.44,0,0,0,22.5,51a.67.67,0,0,1,.07-.18Zm.05-1.36a.53.53,0,0,0,0-.37Zm.46,5.48a2.27,2.27,0,0,1,0-.87,1.11,1.11,0,0,0-.07-.72s-.06,0-.09.07a.08.08,0,0,0,0,.11,6.37,6.37,0,0,1,0-1.24,2.71,2.71,0,0,0,0-1c.15,0,.19-.17.11-.42a.76.76,0,0,1,.07-.65h1.36c0,.12,0,.2-.05.23s-.06.11,0,.24a.63.63,0,0,0,.14-.47h2.2l-.05.14h.14a2.42,2.42,0,0,0,.12.4c.05.11.18.15.4.11l-.17.26c0,.08,0,.15.17.21v.14l.14,0a1.27,1.27,0,0,0,.51.84l.17-.17a.37.37,0,0,0,.07-.25.29.29,0,0,0,.25.07l.31-.07c0-.1-.11-.13-.24-.1s-.2,0-.23-.09v-.56a.42.42,0,0,0,.19.23.2.2,0,0,0,.28,0l.14,0,0-.14c.38.06.61,0,.7-.26a2.52,2.52,0,0,1,.38-.63q2.85-.13,5.89-.09t6,0l0,.14.14-.05v.14a.47.47,0,0,0,.35.1c.17,0,.28-.11.31-.33a1.16,1.16,0,0,0,.56.65c-.16,0-.18,0-.07.17s0,.22-.16.25a.41.41,0,0,0,.32.1.37.37,0,0,1,.33.14q0,.18-.12.21c-.11,0-.13.1-.07.26h-.14c-.06,0-.09.07-.09.23s0,.22.09.19l.1,0,0,0c0,.12,0,.2.05.23s.08.09,0,.19c.12,0,.17-.06.16-.19a.93.93,0,0,1,0-.37.07.07,0,0,1,.1,0,.42.42,0,0,1,.09.14l0-.1a1.15,1.15,0,0,1,.07.24c0,.09,0,.18,0,.25a1,1,0,0,0,.07.21c0,.07.11.08.24.05-.13.13-.14.21,0,.26a.89.89,0,0,1,.26.16c.13,0,.18-.08.16-.23s0-.3,0-.42,0-.1-.09-.1a.16.16,0,0,0-.14.1c-.1-.06-.08-.14,0-.24a2,2,0,0,1,.29-.18l-.17-.17s0-.14,0-.3.15-.06.18,0,.1.08.19.05v-.05l.09.05.1-.05a.32.32,0,0,1,.09.23.14.14,0,0,1,.12-.09s.08,0,.11-.09c0,.31.06.68.07,1.12s0,.88,0,1.33v2.22c-.53,0-1,0-1.38,0a4.4,4.4,0,0,1-1.1,0,.9.9,0,0,0-.17.26c0,.11-.13.12-.25,0s.06-.18.19-.18a1,1,0,0,0-.66-.1,3.13,3.13,0,0,1-.75,0c0-.15,0-.19.1-.12s.09,0,0-.11h-.19l0-.14h-.1a1,1,0,0,0-.28-.33c-.06,0-.08,0-.07.07s0,.07.07.07-.09,0-.19-.05a.4.4,0,0,1-.14-.28c-.09.19-.14.25-.14.19s-.09-.06-.28,0l.05-.14-.09,0v-.09a.41.41,0,0,0-.31,0,.25.25,0,0,1-.21.07.49.49,0,0,0-.07-.23c0-.09-.1-.06-.16.09-.06,0-.07-.08,0-.16s0-.09-.22,0-.08-.05-.07-.05h.31c.06,0,.09,0,.09.05a.87.87,0,0,0-.75-.8,3.09,3.09,0,0,0-1.16,0,.19.19,0,0,0-.08-.18l-.14-.1-.14-.11a.31.31,0,0,1,0-.26.47.47,0,0,1-.33.09l0-.09h-.14v-.05c0-.12,0-.14-.1,0a.14.14,0,0,1-.23,0c0-.21,0-.33-.19-.35a.29.29,0,0,1-.28-.25l0-.1,0-.14a1,1,0,0,0-.26-.26c-.14-.1-.27-.07-.39.12l-.14-.05,0,.1a.57.57,0,0,1-.46.42c0,.12,0,.19.11.21s.12.09.12.21c-.09,0-.14,0-.14,0a.37.37,0,0,0,0,.12.13.13,0,0,1,0,.07s0,0-.14-.07c.09.06.11.13,0,.21s-.06.12,0,.12,0,.17-.09,0-.14-.1-.14,0l-.14,0-.09.14c-.13-.12-.19-.12-.19,0s0,.13-.14,0l0-.14-.15,0c-.06,0-.07,0,0,0s0,0,0-.11-.14,0-.14-.1a.36.36,0,0,0,.05-.21.32.32,0,0,1,.09-.21c-.15.07-.21,0-.16-.07s0-.16-.07-.16a.41.41,0,0,1-.09.21s-.08.09-.14.21q.27,0,.21.21a.31.31,0,0,0,.11.35l-.14,0,.05.14c-.06.16,0,.24.14.24a.4.4,0,0,1-.37.4.7.7,0,0,0-.52.25l-.14,0,0,.14h-.14l.05-.28-.28,0c0-.06-.06-.09-.08-.09s0,0,0-.09l.1-.05-.1,0c0-.22,0-.36.05-.42a.57.57,0,0,1,.28-.14.19.19,0,0,1-.19-.12.85.85,0,0,0-.14-.21c-.12.1-.15.2-.07.31s0,.18-.12.21c0-.1,0-.13-.14-.12a.15.15,0,0,1-.18-.07c0,.16,0,.22.18.19s.21,0,.14.23c0,0,0,.05,0,.14h-.14l0,.1c-.21,0-.32,0-.32.09a.21.21,0,0,1,.28.19c0,.15.09.17.18,0l.15,0,0-.09a.24.24,0,0,1,.19-.1v.1l0,.14c.06.12.11.17.14.14a.29.29,0,0,1,.19-.05l0,.09.14,0c.07.09.08.15,0,.16s0,.07,0,.17h-.09v.09s0,0,0-.09-.13.11,0,.16.13.13.07.26l-.09.09,0,.14a5.65,5.65,0,0,1-2.13,0,3.68,3.68,0,0,0-1.79,0,.4.4,0,0,0-.1.16q0,.12,0,.12c-.09,0-.14,0-.14,0s0,0,.05-.05a.16.16,0,0,0,.07-.07s0-.08-.07-.14a1.19,1.19,0,0,0-.66-.09,4.6,4.6,0,0,0-.77.16l-.72.24a.59.59,0,0,1-.47,0v-.23a7.38,7.38,0,0,0-1.4-.1H22.89a1.8,1.8,0,0,1-.14-.56c0-.25,0-.4.19-.47a.37.37,0,0,1-.16-.3.28.28,0,0,1,.11-.3l.05,0,.09,0c.16.06.21,0,.17-.09s-.1-.18-.17-.14l-.09,0ZM23,73a.29.29,0,0,1,.33.33c-.06,0-.08,0-.07,0s0,.06,0,.1h-.38c0-.1,0-.14-.09-.14C22.77,73.16,22.85,73.05,23,73Zm.19-1c-.12,0-.19,0-.19.09q-.23-.18-.09-.33H22.8c.06-.18.16-.23.3-.14A.29.29,0,0,1,23.22,72Zm-.28-32.73a.26.26,0,0,1,.09.18.41.41,0,0,0,0,.19Zm.66,14.63a.58.58,0,0,1,0-.42c.05-.09,0-.17-.11-.23A.57.57,0,0,0,23.6,53.91Zm.09.75c.06-.22,0-.33-.14-.33a.26.26,0,0,0-.07.24Q23.49,54.71,23.69,54.66Zm0,1.73c-.06-.16-.05-.26,0-.33s.07-.12,0-.18l-.14.25C23.49,56.24,23.53,56.33,23.69,56.39ZM24,36.89a.08.08,0,0,0,.09-.09h.19l.05-.09Zm.23,21.93h.24v.24Q24.11,59.15,24.2,58.82Zm0-22.58a.18.18,0,0,0,.14-.05.56.56,0,0,1,.14-.09Zm.38,8.18c-.07.06-.16,0-.28-.14Zm0,.47a.39.39,0,0,0,.05-.14.39.39,0,0,1,0-.14Zm1,1.4c.16-.06.21,0,.17.09s0,.18.07.15-.05.1-.14,0A.23.23,0,0,1,25.65,46.29Zm.75,11.46c.06.06.09.11.07.14a.08.08,0,0,1-.14,0S26.34,57.81,26.4,57.75Zm.28-7.06-.19.09ZM27,46.38a.74.74,0,0,1-.28-.79ZM27,38.06a.55.55,0,0,0-.24,0ZM27,46.38a.67.67,0,0,0-.12.17.25.25,0,0,1-.07.12Zm-.19,14.87h.38c.06.16,0,.22-.09.19s-.16,0-.1.14C26.84,61.58,26.77,61.47,26.77,61.25ZM27,46.38a1.17,1.17,0,0,1,.26-.18.18.18,0,0,1,.26,0Zm.19,5.52.07-.09a.46.46,0,0,1,.07-.1Zm.14,7.34c-.09.1-.13.13-.09.1a.62.62,0,0,0,.09-.12.19.19,0,0,1,.09-.09S27.38,59.15,27.29,59.24Zm0,2.11c.09,0,.14,0,.14.07a.16.16,0,0,1-.05.11.09.09,0,0,1-.09,0S27.26,61.47,27.29,61.35Zm.19,8.27a.45.45,0,0,0,.14,0,.55.55,0,0,1,.18,0,.43.43,0,0,0,.05-.15.14.14,0,0,1,0-.09Zm.32-12.86a.2.2,0,0,0,.12-.16.72.72,0,0,0,0-.19s0,0,0,0a1.42,1.42,0,0,0-.07.33c0-.06,0-.06-.07,0S27.71,56.83,27.8,56.76Zm.47,2.72c.22,0,.3.07.23.32a.27.27,0,0,0-.14-.14A.18.18,0,0,1,28.27,59.48Zm.09-20.3c.07.07.11.08.12,0s.09,0,.21,0,0-.23-.19-.23S28.3,39,28.36,39.18Zm.1,18.33c.15,0,.23.14.23.42A.3.3,0,0,1,28.46,57.51Zm.19-5.94.09.19Zm0-14.77c.1-.16.17-.16.24,0a.21.21,0,0,0,.32.11c-.09.16-.19.19-.3.1A1.24,1.24,0,0,0,28.69,36.8Zm0,23.1q.19,0,.21.09a.24.24,0,0,1-.07.23C28.74,60.19,28.69,60.08,28.69,59.9Zm.14-.52c.1.07.13.11.12.14s0,0-.07,0a.14.14,0,0,1-.09,0S28.77,59.45,28.83,59.38Zm.28,2.15c-.12-.12-.12-.21,0-.28S29.24,61.28,29.11,61.53Zm.19-.6a1,1,0,0,0-.07-.59,1.34,1.34,0,0,1-.12-.58Zm-.05-13.66c.13,0,.17.06.14.17s0,.13.19.07c-.06.15-.14.18-.23.07A.31.31,0,0,1,29.25,47.27Zm.42,14.26c-.09.13-.18.14-.25,0S29.42,61.47,29.67,61.53Zm.14-26.13-.18.21c-.1.11-.14.07-.14-.12a.24.24,0,0,0,.16-.05A.29.29,0,0,1,29.81,35.4Zm.28,1.4c0,.19-.09.27-.18.26a.26.26,0,0,0-.24.07c-.06,0,0-.06,0-.19A.35.35,0,0,1,30.09,36.8Zm-.37,9.07a.2.2,0,0,0,.14.05Zm.19,0a.51.51,0,0,1,.51-.07.9.9,0,0,0,.38.12c0,.16,0,.24-.07.26s0,.1,0,.25a.44.44,0,0,1-.42-.09.57.57,0,0,0,.21.26.52.52,0,0,1,.21.26l.26-.1c.07,0,.14,0,.21.1a2.82,2.82,0,0,1-.14.44s0,.23,0,.54a.36.36,0,0,1-.28-.1l-.16-.18a.87.87,0,0,0-.16-.17.56.56,0,0,0-.29-.07.79.79,0,0,0-.18-.58,1.61,1.61,0,0,1-.28-.73l.09,0Zm.42-10.1c0-.06,0-.07.14,0s.15.12.09.21-.14,0-.14,0A.16.16,0,0,0,30.33,35.72Zm.33,1.59a.27.27,0,0,1-.24.14C30.42,37.36,30.5,37.31,30.66,37.31Zm.09.71a.64.64,0,0,1,.51,0Zm.61,22.58.18,0,.19,0c0,.1.11.14.23.14s.07.12,0,.17a.19.19,0,0,0-.09.16s-.08.08-.14.23Zm.18-21.84c0-.06.07-.1.21-.11s.14-.06,0-.12c-.06.16-.11.16-.14,0s-.08-.23-.14-.23a.43.43,0,0,1,0,.28Q31.41,38.76,31.54,38.76Zm.56,16.7a.28.28,0,0,1-.18-.1Zm0-16c0,.15,0,.22,0,.19a.47.47,0,0,0,0-.15.75.75,0,0,0,0-.16S32,39.29,32.06,39.42Zm0,16.13v.09s0-.06,0-.18h.14v.09Zm.1-15.48a.19.19,0,0,0,0-.18c0-.07-.06,0-.1,0a.58.58,0,0,0,0,.19C32.14,40.18,32.17,40.17,32.2,40.07Zm-.1,15.39a.22.22,0,0,1,.17,0,.11.11,0,0,0,.12,0Zm.15.37c-.07-.06-.1-.11-.1-.14a.26.26,0,0,0,0-.14ZM32.1,60.6c.07-.06.11-.09.15-.07a.07.07,0,0,1,0,.07.08.08,0,0,1,0,.07S32.17,60.66,32.1,60.6Zm0,.28a.3.3,0,0,1,.15.19c0,.09.12.11.28,0,0,.07-.08.09-.14.07a.31.31,0,0,0-.19,0,.31.31,0,0,0-.05-.17A.28.28,0,0,1,32.1,60.88Zm.1-.84c.06,0,.09.07.09.11s0,.07.1.07-.09.15-.17.07A.17.17,0,0,1,32.2,60Zm.42.56a.18.18,0,0,1-.12.11.18.18,0,0,0-.07.17c-.09,0-.11-.09,0-.19A.19.19,0,0,1,32.62,60.6Zm-.23.93c0-.09,0-.13.14-.11s.15.07.09.16h-.19S32.45,61.53,32.39,61.53Zm0-5.79a.22.22,0,0,0,.14-.05.42.42,0,0,1,.14-.09Zm.32,4.95a.11.11,0,0,1,.07.14,1.23,1.23,0,0,0,0,.19q-.09,0-.12,0s0-.06-.11-.09v-.14A.19.19,0,0,0,32.71,60.69Zm0-12.67h.14c0,.06,0,.09.1.09v.14a.09.09,0,0,0-.1.1h-.14c0-.06,0-.1-.09-.1v-.14ZM33,61.21c-.1.12-.18.14-.26,0S32.7,61.14,33,61.21Zm-.24-21.7.19-.09.19-.1V39c0-.11-.05-.16-.14-.16a1.46,1.46,0,0,0-.17.3A1,1,0,0,0,32.71,39.51ZM32.9,56a1,1,0,0,0-.19-.28Zm0,0s-.06,0-.07,0-.06,0-.12,0Zm0,6.36a.83.83,0,0,1-.19-.15Zm-.14-5.94a.12.12,0,0,0,.09,0,.16.16,0,0,1,.1.05Zm0,4.11c.06-.12.13-.12.21,0a.43.43,0,0,1,.07.35c-.09,0-.15,0-.16,0a.29.29,0,0,1,0-.14v-.17S32.82,60.55,32.76,60.55ZM32.9,56a1.23,1.23,0,0,1,.28,0c.12,0,.19,0,.19-.14ZM33,57c.12.16.12.26,0,.31S32.92,57.29,33,57Zm.14,2.67c.06,0,.09.09.09.28s0,.28-.09.28c-.22,0-.26-.09-.12-.19A.28.28,0,0,0,33.18,59.71Zm.23,1.22a.16.16,0,0,1,0-.1.14.14,0,0,0,0-.09Zm-.09.65a.14.14,0,0,0,0-.09Zm.09-1.22c.13,0,.19.14.19.33C33.48,60.69,33.41,60.58,33.41,60.36Zm.14-5.61c.13.16.27.16.43,0ZM33.74,37a.64.64,0,0,1,.52.19q0,.2-.12.21a.4.4,0,0,1-.24,0,.42.42,0,0,1-.18-.14C33.67,37.21,33.68,37.13,33.74,37Zm.42,18.85-.26,0c-.1,0-.13.06-.07.21-.09,0-.12-.05-.09-.16a.38.38,0,0,0,0-.26Q34.21,55.55,34.16,55.88Zm-.23.18q.14,0,.09.24h-.19c0-.07,0-.1,0-.12S33.93,56.13,33.93,56.06Zm.42,5.57v.14h-.42c-.06-.06,0-.13,0-.19s.07-.11,0-.14,0-.07.07,0a.13.13,0,0,0,.16,0l.14.05.05-.14c.12,0,.17.14.14.32Zm-.05-.14a2.31,2.31,0,0,1-.14-.35,1.23,1.23,0,0,0-.14-.31Zm0-5.71a.1.1,0,0,1,.07.12c0,.05,0,.07.07.07s0,.09-.07.07a.21.21,0,0,0-.17,0,.1.1,0,0,1,0-.14A.16.16,0,0,0,34.26,55.78Zm0,13.65a.61.61,0,0,1,.4,0c.14,0,.18.14.11.33Zm.28-13.23v.19c-.09,0-.14,0-.14-.09v-.19A.26.26,0,0,0,34.49,56.2ZM34.44,62a.34.34,0,0,1,0-.16.37.37,0,0,0,0-.16Zm.28,7.77a.78.78,0,0,0-.28.09Zm0-13.66c.06,0,.07,0,0,.07a.13.13,0,0,0,0,.17c-.07,0-.1-.06-.1-.07s0,0-.09,0v-.14c.06,0,.09,0,.09,0S34.61,56.13,34.68,56.06Zm-.1,5.47h.14v.14h-.14Zm.14,8.19a.26.26,0,0,0,.21.07.45.45,0,0,0,.21-.12ZM34.91,55c.09,0,.14,0,.14.23,0,0,0,0,0,0s0,0-.09,0Zm.19,6.4a.55.55,0,0,1-.14-.18v-.28h.14a.26.26,0,0,1,.09.14Zm.37-5.79.09-.05c.1,0,.1,0,0,.16s-.06.23.1.26a.62.62,0,0,0-.61.23C35,56,35,55.91,35,55.88a1.08,1.08,0,0,0,0-.33.36.36,0,0,0,.21,0s.1,0,.17,0Zm-.37-2.3.18.1ZM35.66,37c.15.15.16.29,0,.42s-.24.22-.3.28a.26.26,0,0,1-.24-.28.47.47,0,0,1,.19-.38.78.78,0,0,1,.19.1S35.6,37.11,35.66,37Zm-.52,32.68a.26.26,0,0,1,0-.14.3.3,0,0,0,0-.1.3.3,0,0,0,.26.07c.08,0,.15,0,.21.17Zm0,0,.28.14a.44.44,0,0,0,.12-.07l.12-.07Zm.61-15.34,0-.18h.18l0,.14.14,0c0,.1,0,.14-.1.14a.35.35,0,0,1,.07.26.14.14,0,0,0,.07.16c0,.07-.07.11-.21.14s-.19,0-.16,0V54.8c-.13-.06-.17-.12-.14-.16s0-.1-.19-.17c0-.06.06-.07.09,0a.21.21,0,0,0,.14,0v-.14Zm-.28,1.27c0-.13,0-.28,0-.45s0-.26.21-.26Zm.05,5.14a.29.29,0,0,1,.09.21.26.26,0,0,0,.14.21Zm0-3.23h.15v.14h-.15Zm.38-3.88a.54.54,0,0,0-.33.33.28.28,0,0,0,.14.37Zm-.28,16a3.84,3.84,0,0,0,1.42.19c.49,0,1,0,1.48,0Zm.14-12.39c.09,0,.14,0,.14.07a.43.43,0,0,1,0,.12s0,0-.07,0S35.8,57.4,35.8,57.28Zm0,3.18c.12.06.19.14.19.23S35.8,60.61,35.8,60.46Zm.05-6.17s0,0,.07,0l.07-.05Zm.28-8.23c.15-.13.19-.1.11.07a.25.25,0,0,1-.35.16.15.15,0,0,1,0-.16L36,46c.06,0,.1.07.11.1a.31.31,0,0,0,.12.09A.08.08,0,0,0,36.13,46.06ZM35.89,58.4H36v.19h-.14Zm.1-1.54c.09,0,.14.08.14.16a.26.26,0,0,1-.05.17.06.06,0,0,1-.09,0S36,57,36,56.86Zm.56-3.79c-.13,0-.19,0-.19-.14-.19,0-.3,0-.33.14a.66.66,0,0,1,.21.19.46.46,0,0,0,.21.14,0,0,0,0,1,0,0s0,0,0-.09l.09,0,0-.14h.09l-.05.14.14.05c0,.09,0,.15.07.16a.21.21,0,0,0,.17,0,.32.32,0,0,0,.14-.14c0-.06,0-.09,0-.09a.1.1,0,0,1-.12.07.19.19,0,0,0-.16,0l0-.14-.1-.05c0-.06,0-.11-.11-.16s-.15,0-.12,0l-.14,0Zm-.42,3.32a.51.51,0,0,1,.18.23c0,.1-.07.1-.11,0A.49.49,0,0,1,36.13,56.39Zm.18,4.3h.24c0,.1,0,.14-.07.14s-.12,0-.12.1S36.31,60.85,36.31,60.69Zm.33-7.39a.3.3,0,0,0,0-.16L36.5,53Zm.65,1.87v.1a.56.56,0,0,1-.46-.14,1.06,1.06,0,0,1-.33-.42.51.51,0,0,1,.23-.19ZM36.64,59h.14v.19h-.14Zm.09-5.66.14,0a.16.16,0,0,0,.1,0Zm0,1.22s.05-.05.05-.07,0,0,0-.07Zm0,0a.3.3,0,0,0,.19.09Zm.05,13a.12.12,0,0,0,0-.07.09.09,0,0,1,0-.07Zm.09-7.06H37v.14h-.14ZM37.15,38c-.12,0-.2,0-.23.05Zm-.23,20c.16-.06.23,0,.23.14s-.07.2-.23.14Zm0,1.73h.19v.19h-.19ZM37,60.88c.1,0,.14,0,.12.14s-.09.16-.21.09v-.18C37,61,37,60.94,37,60.88Zm0-3.37c.1,0,.14,0,.14.07a.16.16,0,0,1,0,.12.08.08,0,0,1-.1,0S37,57.64,37,57.51Zm.24,9.87c-.16,0-.22.11-.19.23a.31.31,0,0,0,.23.24ZM37.15,38l0-.09.16-.12a.35.35,0,0,1,.26-.07.29.29,0,0,1,0,.3.34.34,0,0,1-.21.21c-.15.07-.23,0-.23-.18Zm.1,18.75h.19c0,.06,0,.1,0,.11a.11.11,0,0,0-.07.12H37.2q0-.09,0-.12S37.25,56.78,37.25,56.72Zm.28-5.29c0-.09-.08-.14-.14-.14s-.11.05-.14.14h.09l-.05.19.15.09a.47.47,0,0,0-.1.57,3.86,3.86,0,0,0,.4-.28,1.07,1.07,0,0,0,.26-.38.34.34,0,0,0-.24-.09l-.09-.1Zm-.09,5-.19.19a.54.54,0,0,1,.16-.19Q37.49,56.35,37.44,56.39Zm-.15,11.46a.26.26,0,0,0,0,.11c0,.05,0,.1-.07.17Zm0-16.23a.88.88,0,0,0,.38-.19Zm0,16.23a.16.16,0,0,1,.15-.1h.18Zm.05-8.56h.19v.19h-.19ZM37.53,56c.06-.16.08-.16.07,0s-.07.2-.16.14-.07,0,0,0A.08.08,0,0,0,37.53,56Zm0-1.82a.26.26,0,0,1,.18,0,.2.2,0,0,0,.14.05q0-.24-.09-.21A.35.35,0,0,0,37.58,54.15Zm.23,14s0-.07.09-.14Zm.37-14.49a.27.27,0,0,1,0-.28c0-.13,0-.2-.24-.24a.81.81,0,0,0,.05.45C38,53.78,38.09,53.8,38.18,53.68Zm0,15.24a.14.14,0,0,1,0-.07.09.09,0,0,0,0-.07Zm.09-13.7c0-.12.07-.14.12,0s.12.11.21,0a.32.32,0,0,0-.09.24c-.1,0-.14,0-.12-.1S38.42,55.22,38.32,55.22ZM38.88,57c-.12,0-.21-.14-.28-.32Zm-.09,11.41q.14,0,.42.24Zm.52.89a.3.3,0,0,1-.19.28.27.27,0,0,1-.33,0Zm0,0a.42.42,0,0,0-.43-.23ZM39,39.65c.06.13.15.14.25,0s.11-.2,0-.26c0,.09,0,.14-.09.14S39,39.59,39,39.65Zm.33,29.08.18-.09c.13-.09.17,0,.14.19h-.09V69c-.16.09-.26.08-.31,0s-.1-.13-.16-.07-.07,0,0-.07a.13.13,0,0,0,0-.16l.14,0-.05-.14h.05ZM39,56.67c.07.06.1.11.1.14ZM39,68l.19.1Zm.29.7a.3.3,0,0,0,0-.14.47.47,0,0,1,0-.14Zm0,.61a.13.13,0,0,1,.14.14Zm.09-30.06c0-.1,0-.13.14-.1s.15,0,.09-.18-.21,0-.25.09S39.34,39.28,39.4,39.28Zm.33,13.56a1,1,0,0,0,.09-.42H39.4A.41.41,0,0,0,39.73,52.84ZM39.4,61c.09,0,.14,0,.14,0v.18s0,0,0,0,0,0-.09,0Zm.37,8a1,1,0,0,1-.23-.18Zm0-29.08q.14-.33.42-.18v-.24a.25.25,0,0,0-.31,0c-.08.07-.11.07-.11,0s0-.09-.1-.09a.49.49,0,0,1,0,.3C39.6,39.86,39.63,39.93,39.73,39.93Zm0,16.65-.14,0V56.3c.16.09.26.08.31,0s.08-.05.11.17l0,.14-.14.14h0Zm0,0s0,0,0,0a.56.56,0,0,0,.18.38c0,.06.1,0,.19,0a3.06,3.06,0,0,0-.09-.37Zm0,12.43a.88.88,0,0,0,.24-.23Zm0,0q0,.1,0,.12a.14.14,0,0,1,0,.07l.19.14Zm0-10.61c0-.06,0-.09.19-.09s.2.06.14.18-.16,0-.19,0A.56.56,0,0,0,39.82,58.4Zm.09,10c.13.06.22.06.28,0a.14.14,0,0,0,.05-.09Zm.1,1c0,.06,0,.09-.1.09ZM40.19,41c-.15-.1-.23-.2-.23-.33l0,0ZM40,56.58a.09.09,0,0,0,.07,0l.07,0a.78.78,0,0,1,.09-.28Zm0,12.76a.26.26,0,0,1,.18.09Zm.18-16.6a.59.59,0,0,1,.28.1c-.06-.22,0-.34.19-.35a.46.46,0,0,0,.38-.21.47.47,0,0,0-.38-.17.62.62,0,0,1-.37-.07c.06-.09.07-.15,0-.18s0-.08.05-.15c-.28,0-.39.1-.33.38.25.06.35.15.28.26A1.38,1.38,0,0,0,40.19,52.74ZM40.52,57l.14-.14a.56.56,0,0,0,.09-.14Zm0,11.41.09-.19Zm.14-9.54h.18V59h-.18Zm.18-16.46a.74.74,0,0,1,.07-.18c0-.1,0-.14-.07-.14s0,.16-.09.21S40.74,42.33,40.89,42.36Zm0,14.92c.13,0,.16,0,.12.14a1.07,1.07,0,0,1-.12.19c-.09,0-.12-.09-.07-.17A.33.33,0,0,0,40.94,57.28Zm.14,12a.26.26,0,0,1-.14.09c0,.06,0,.11,0,.14a.3.3,0,0,1,0,.1.67.67,0,0,1,.26.07.2.2,0,0,0,.26-.07Zm.14-11.74h.14v.14h-.14Zm0,11.5a.41.41,0,0,0,.05-.18Zm.84-18.28c-.21-.06-.35,0-.42.05Zm0,15.48a2.34,2.34,0,0,1-.05-.52c0-.21,0-.29-.09-.23a4.61,4.61,0,0,0,0,.75l0,.09.14,0c0,.18,0,.28,0,.28s.08-.1,0-.28l0-.1Zm0-22.44a1.35,1.35,0,0,0,.35-.07c.14-.05.18-.15.12-.31a.33.33,0,0,0-.14,0,.39.39,0,0,1-.14-.05Zm.14,25.66h.14c0,.13,0,.19-.23.19,0,0,0-.05,0-.07S42.2,69.5,42.2,69.43Zm.19-30.34a.32.32,0,0,0-.23-.09Zm-.19-3h.24v.28C42.22,36.33,42.14,36.24,42.2,36.05Zm.19.75a.2.2,0,0,0,.14,0Zm0-.09a.21.21,0,0,1,.09-.17.17.17,0,0,0,0-.21l.3.07a2.22,2.22,0,0,1,.31.17c.09.25,0,.41-.21.49s-.39,0-.45-.17v-.14Zm.09,20.8c.09,0,.14,0,.14.14s-.09,0-.09.1S42.53,57.67,42.53,57.51Zm.09-12a.3.3,0,0,0,.19.09Zm1.5,24.64a3.53,3.53,0,0,0-.72,0,3.71,3.71,0,0,0-.68.12Zm-.89-13a.33.33,0,0,1,.1.23c-.13,0-.19,0-.19,0s0,0-.14,0a.32.32,0,0,0,.09-.23Zm0-4.31a.3.3,0,0,0,0-.23.23.23,0,0,1,0-.23ZM43.28,51a.32.32,0,0,0,.33,0Zm.23-.1c-.09-.09-.15-.14-.18-.14s.12-.12.28-.09a.76.76,0,0,0,.37,0c0,.09,0,.14.09.14q0,.42-.51.33l0-.14Zm0,6.41c.16.15.17.23,0,.23S43.39,57.43,43.51,57.28Zm0,13.65a.18.18,0,0,1,.19.12.17.17,0,0,1-.05.21C43.56,71.23,43.51,71.12,43.51,70.93Zm.14-11.13c.13,0,.19.11.19.33C43.65,60.13,43.59,60,43.65,59.8Zm.24-2a.26.26,0,0,0-.07-.16.12.12,0,0,1,0-.16ZM44.07,70a1.53,1.53,0,0,1,.71,0,3,3,0,0,1,.74.14c0,.15,0,.23-.11.23s-.15.08-.12.23c-.06-.21-.13-.28-.21-.18a.17.17,0,0,1-.26,0c0,.1,0,.14-.09.14l-.14,0-.09,0a.44.44,0,0,0-.52-.14v-.28l.14,0Zm0-35h0v.19a.24.24,0,0,0,.1.18Zm0,8.09a.45.45,0,0,1,0-.19Zm.1,14.12c0-.09,0-.13.14-.12s.15.09.09.21h-.19C44.25,57.31,44.23,57.28,44.17,57.28Zm0-19.78a.56.56,0,0,1,.14.09l.14.15Zm.23,20.15c0-.06,0-.06.05,0a.49.49,0,0,1,0,.19c0,.06-.07.06-.1,0A.21.21,0,0,1,44.4,57.65Zm.1-5.75a.34.34,0,0,1,.16,0c.05,0,.08,0,.12-.1a.08.08,0,0,1,0-.07.22.22,0,0,0,0-.12.59.59,0,0,0-.14-.23.19.19,0,0,1,0-.23.42.42,0,0,1,.09-.14.56.56,0,0,0,.09-.14Zm0,20.71a.41.41,0,0,1,.28-.07,1.27,1.27,0,0,0,.28,0s0,0,0,0,0,0,0,0,0-.14.09-.14Zm.18-.65a.34.34,0,0,1,.24.09c.06.07.12,0,.18-.09Zm.14-33.29c.1.16.19.16.28,0s.08-.26,0-.33a.36.36,0,0,1-.12.19A.33.33,0,0,0,44.82,38.67ZM45.1,41l0-.14c0-.06.06-.08.09,0s.11,0,.23,0c0-.25,0-.41.1-.47a.19.19,0,0,1,.11.14.5.5,0,0,0,.12.19.19.19,0,0,0,.19-.1.73.73,0,0,1,.14-.18,2.18,2.18,0,0,0,.28.25.34.34,0,0,0,.37,0V41a.38.38,0,0,1-.4,0c-.14-.06-.19,0-.16.23a2.72,2.72,0,0,0-.49-.09,1.11,1.11,0,0,0-.35.09H45.2v0s-.05,0-.05,0,0,0-.09,0c-.1.16-.16.17-.19,0,.15,0,.19-.11.09-.24ZM45,52.42v-.14l.19-.1Zm0-14.73.26-.35.21-.31Zm.14,14.49a.8.8,0,0,0-.09-.23Zm.14-1.07c.19.06.23.14.12.25a.76.76,0,0,0-.21.35c-.16-.09-.18-.18-.05-.28A.3.3,0,0,0,45.29,51.11Zm-.19-11.5a.74.74,0,0,0,.42,0Zm0,4.34c0-.09,0-.1.12,0a.17.17,0,0,0,.25,0,2.82,2.82,0,0,0,.26-.49c.11-.23.12-.32,0-.25l-.46.35C45.15,43.7,45.09,43.83,45.15,44Zm0,8.23s.12,0,.28-.09Zm.05-1.54q.13.09.18,0c.1,0,.13,0,.1.16a.38.38,0,0,0,0,.26.85.85,0,0,0-.21-.14C45.19,50.89,45.16,50.8,45.2,50.64Zm.37-9.21a.42.42,0,0,1-.37-.19Zm-.09-3.74c-.13-.1-.13-.17,0-.24S45.6,37.47,45.48,37.69ZM45.38,40A1.17,1.17,0,0,1,46,40a1.35,1.35,0,0,1,.47.25Zm.14-.42v-.1a.09.09,0,0,1,0-.07.2.2,0,0,0,0-.11,1,1,0,0,1-.14-.24Zm0,1.87a.2.2,0,0,1,0,.26c-.08.07-.07.16,0,.25Zm0-1.87a.57.57,0,0,0,.47.07.69.69,0,0,1,.47,0ZM45.71,52c.06.06,0,.13-.05.19s-.07.11.05.14-.06.08-.09.05a.3.3,0,0,1-.07-.17.27.27,0,0,1,0-.18S45.62,52,45.71,52Zm-.14-10.61c.19,0,.3,0,.33-.1Zm.14,21.32a.08.08,0,0,0,.09.09c.07,0,.1-.1.1-.21s0-.1-.1,0,0,.1-.14,0S45.59,62.66,45.71,62.75Zm1.08,7.39,0-.1c0-.06.07-.08.12,0a.29.29,0,0,0,.16,0,.9.9,0,0,0-.16.28c-.05.13,0,.19.16.19-.22.12-.39.15-.51.07a1.12,1.12,0,0,0-.66-.07c0-.16,0-.22-.07-.19s-.1,0-.25-.14a.49.49,0,0,1,.46-.16,2.28,2.28,0,0,1,.61.12Zm-.94,1.68h0Zm-.14-14a.2.2,0,0,1,.14,0s.09,0,.19,0-.07.1-.21.1S45.65,58,45.71,57.84Zm.09-.61a.19.19,0,0,1,0,.21c-.07.08,0,.15,0,.21Zm.05-4.3c-.09-.12-.09-.22,0-.28S46,52.68,45.85,52.93Zm0-11a1.61,1.61,0,0,1,.39,0,.66.66,0,0,1,.36.09Zm0,.38h.21a.29.29,0,0,1,.21.09Zm.28,26.32a1,1,0,0,0,.28-.54.6.6,0,0,0-.19-.54.37.37,0,0,1-.05.33l-.18.28a.53.53,0,0,0-.1.26Q45.94,68.55,46.18,68.64ZM46,44.94h.18c.07,0,.08,0,.05.14a.94.94,0,0,0,.33-.21c.06-.08.17,0,.33.11.12-.12.09-.25-.1-.37a.53.53,0,0,1-.44.14A.31.31,0,0,0,46,44.94Zm.09,27.35a.76.76,0,0,1,.12-.19.42.42,0,0,0,.07-.23Zm.14-32.36q0-.09.33-.09Q46.51,40.17,46.27,39.93Zm.42-3.22c0,.12-.08.18-.14.18a.26.26,0,0,1-.18-.09c0-.09,0-.15.11-.16A.2.2,0,0,1,46.69,36.71Zm.1,33.43a.58.58,0,0,0-.14-.17,1,1,0,0,1-.19-.16v-.23Zm-.28-.85h.28c-.07-.18-.13-.29-.19-.32A.45.45,0,0,1,46.51,69.29Zm0-31.27A1.14,1.14,0,0,1,46.9,38a.59.59,0,0,0,.31-.09Zm.19,4A.52.52,0,0,1,47,42a.34.34,0,0,0,.24-.09Zm.61-1.22v.47c-.1-.06-.15-.06-.17,0s-.1.06-.25,0a.32.32,0,0,0-.12-.28c-.08-.06-.09-.19,0-.38.09.07.14.08.16,0s.09,0,.21,0l.05.14ZM47,63.08c.06,0,.08,0,.07.09s0,.09.07.09c0,.16-.11.21-.33.14,0-.12,0-.18.07-.18S47,63.17,47,63.08Zm-.19-5.71c.22,0,.33.1.33.28-.16.07-.24.06-.26,0A1.71,1.71,0,0,0,46.83,57.37Zm.28,5.57s-.11,0-.23-.14Zm-.18-5c.09,0,.14,0,.14.07a.21.21,0,0,1,0,.12,0,0,0,0,1-.07,0S46.93,58.06,46.93,57.93Zm.28-15a.49.49,0,0,1-.19-.14ZM47,58.63h.14v.19H47Zm0-18.18a.2.2,0,0,1,.14,0,.42.42,0,0,1,0,.38Zm.14-2.57-.1-.1v-.23c.16.06.24,0,.26,0s.09-.14.21-.14l.09.14.14,0a1.14,1.14,0,0,0-.23.33c-.06.12-.2.17-.42.14Zm-.1,1c.1.09.14.09.14,0a.25.25,0,0,1,0,.32c-.06.1-.12.14-.19.14A1.19,1.19,0,0,0,47.11,38.86Zm0,1.12c.1,0,.14.06.14.19a.08.08,0,0,0-.09.09S47.11,40.17,47.11,40Zm.33,18q-.24,0-.21-.09a1,1,0,0,0,0-.23C47.35,57.64,47.41,57.75,47.44,57.93Zm.09.24a.16.16,0,0,1,0-.24.16.16,0,0,0,0-.23ZM48,37.41a.78.78,0,0,0-.28.09Zm0,25.53c.12,0,.15.08.07.16s-.1.15-.07.21c-.16-.06-.2-.12-.12-.16A.24.24,0,0,0,47.91,62.94ZM47.77,44.7a.14.14,0,0,1,.09,0v.37l.07.05s0,0,.07,0Zm0,13.84h.09q0,.09-.09.33Zm0,5c0-.07.08-.1.14-.1h.19c0,.07,0,.09-.12.07A.39.39,0,0,0,47.81,63.5Zm.1,5.33c.09,0,.1,0,0,.11a.19.19,0,0,0,0,.26c.19,0,.26,0,.21-.07s0-.13,0-.16c0,.18.06.26.1.23s0-.09,0-.19a.69.69,0,0,0-.09-.23C48.12,68.72,48,68.73,47.91,68.83Zm0-31.42,0-.1a.85.85,0,0,1,.09-.14.64.64,0,0,0,.1-.14.32.32,0,0,1,.23.19.59.59,0,0,0,.14.23.32.32,0,0,1-.28.24c-.16,0-.25,0-.28-.14Zm0,21.55a.46.46,0,0,0,.33.1.55.55,0,0,0-.14.18c0,.07-.1.08-.19,0Zm0-13.28v0a1.06,1.06,0,0,0,.38-.38.3.3,0,0,1,.21,0,.19.19,0,0,1,.16.12Zm0,22.07c.13-.15.19-.16.19,0S48.13,67.88,48,67.75Zm.1-9.49c-.1-.16-.11-.26-.05-.33Zm0,4.72h.14v.19H48.1Zm0,3.84c0-.07.07-.08.21,0a.69.69,0,0,0,.35,0c0,.09-.12.12-.26.07A.4.4,0,0,0,48.1,66.82Zm0-9.4q.28,0,.12.21T48.14,57.42Zm0,1.07h.19v.14h-.19Zm0,.89c.13.07.19.14.19.24S48.14,59.54,48.14,59.38Zm.24,2.9,0-.05Zm.18,1.54-.14.19.14-.19ZM48.75,44a.48.48,0,0,1,.16.12l.17.16-.19.35q-.09.16-.42.12a.82.82,0,0,1,.09-.4C48.62,44.24,48.69,44.13,48.75,44Zm-.09,19.17-.1-.19ZM49,67.42c-.09.13-.18.14-.25,0S48.73,67.36,49,67.42Zm.05.71a.26.26,0,0,1,.14.09.83.83,0,0,1-.19.23Zm0-9.82h.14v.18h-.14Zm.32,5.28a.59.59,0,0,0,0-.21.71.71,0,0,1,0-.26c-.09-.09-.14-.09-.14,0a0,0,0,0,0-.05.05Zm-.28,3.23a.78.78,0,0,0,.28.09c0,.06-.07.09-.11.09s-.07,0-.07.1-.09-.07-.07-.12A.24.24,0,0,0,49.12,66.82Zm.24-2.62a.25.25,0,0,1-.19-.31.42.42,0,0,1,.23-.3Zm0,5.28-.14-.09c0-.1.07-.14.11-.14l.17,0a.28.28,0,0,0,.18,0c.07,0,.1-.08.1-.21a1.66,1.66,0,0,1,.28.23c-.06-.12,0-.17.26-.16s.36.1.39.26l0,.09,0,.14h-1.4Zm0,.66c.1,0,.1.08,0,.16a.12.12,0,0,1-.21,0c0-.07.07-.09.11-.07S49.4,70.2,49.4,70.14ZM49.31,65c-.09-.1-.09-.09,0,0a.25.25,0,0,0,.33.07c-.06.09-.06.14,0,.14-.06.16-.12.17-.17,0A.67.67,0,0,0,49.31,65Zm.23,3.46c.1.06.11.11,0,.16a.23.23,0,0,1-.26,0c0-.16,0-.21.09-.14S49.51,68.47,49.54,68.41ZM49.4,58.07h.14v.19H49.4Zm0,5.52a.26.26,0,0,1,.14.23.33.33,0,0,0,.1.24Zm.38-20.29c.15,0,.25,0,.28,0Zm.28,21.09c-.13.15-.21.16-.26,0S49.84,64.26,50.06,64.39Zm.23-1.31-.09.16-.09.16c-.1,0-.12-.11-.07-.23A.15.15,0,0,1,50.29,63.08Zm-.09.51c0-.09,0-.11.07-.05s0,.1-.07.1a.18.18,0,0,0,.12.11.13.13,0,0,1,.07.12c-.25,0-.36-.08-.33-.23C50.15,63.7,50.2,63.68,50.2,63.59Zm.23-.19s0,0-.07,0-.07,0-.07,0,0-.12.1-.09.17.09.14.19-.05.11-.05,0A.2.2,0,0,0,50.43,63.4Zm0-17.44c.09,0,.14,0,.14.07a.17.17,0,0,1-.05.12s-.06,0-.09,0S50.35,46.09,50.39,46Zm0,.42c.13,0,.2,0,.21.1a1,1,0,0,0,.07.23q-.18,0-.21-.09A.84.84,0,0,0,50.43,46.38Zm.1,10.9h.18v.14h-.18Zm.14,12.2a8.09,8.09,0,0,0,1.31,0,3.88,3.88,0,0,1,1.3.07Zm.37-10c.09,0,.14,0,.14.09s0,.1,0,.12a.14.14,0,0,1-.09,0S51,59.6,51,59.48Zm0,3.78c.09,0,.14,0,.14.07a.13.13,0,0,1,0,.12s-.06,0-.09,0S51,63.39,51,63.26Zm.14-4.11c.13.06.17.11.14.14a.27.27,0,0,0,0,.19Q51.18,59.44,51.18,59.15Zm1.31,3.79h.19v.14h-.19Zm.09-1.41h.14v.14h-.14Zm0,.47h.14v.19h-.14Z"/><path class="cls-1" d="M61.23,45.22c.63,1,1.21,2.1,1.76,3.22s1.09,2.23,1.66,3.32l.6,1.12a4.24,4.24,0,0,0,.56.85s.06.11.07.25a.88.88,0,0,0,.17.4,3.5,3.5,0,0,1,.37.63l.4.84c.14.3.29.59.44.87a1.79,1.79,0,0,0,.52.61l0,.14.14.09c-.18.28-.33.42-.42.42a2.7,2.7,0,0,0-.51.09c-.07.25,0,.42.11.52a.24.24,0,0,1,.07.37c-.09-.09-.14-.12-.14-.09v.19a1.37,1.37,0,0,1,0,.28.15.15,0,0,1-.16.14.36.36,0,0,0,.21.11.57.57,0,0,1,.21.12,1.07,1.07,0,0,0,.23-.14s.11,0,.24.14l0,.09,0,.05a.31.31,0,0,1,.16.09.17.17,0,0,1,0,.1s0,.05,0,.07a.87.87,0,0,0,.26,0,1,1,0,0,0,.16.61,1,1,0,0,1,.16.61,1.76,1.76,0,0,0,.82.44.74.74,0,0,1,.59.63c-.16.25-.17.42,0,.52s.2.29.17.6a.17.17,0,0,1,.23,0l0,.14.14,0c0,.09,0,.13,0,.11l.14,0c-.06.16,0,.27.07.35a.88.88,0,0,1,.26.31c0,.06,0,.1,0,.11a.08.08,0,0,0,0,.12,2.31,2.31,0,0,0,.19.16,2.25,2.25,0,0,1,.24.26s-.06,0-.08,0a.19.19,0,0,0,.08.18.86.86,0,0,0,.25.19.43.43,0,0,1,.21.28c-.12-.31-.25-.61-.37-.89a8.41,8.41,0,0,0-.42-.79c.09-.1.14-.16.14-.19l.14,0,0-.09a.15.15,0,0,1,.14-.09.09.09,0,0,0,.1-.1c-.19-.06-.26-.07-.22,0s0,.08,0,.14l-.14,0,0,.14c-.06,0-.1,0-.11,0a.14.14,0,0,1-.12.05,3.54,3.54,0,0,1-.14-.33v-.09l-.09,0,0-.14-.14.05a.51.51,0,0,0-.18-.33c-.1-.06-.11-.2-.05-.42l.09,0v-.1c0-.19.09-.26.17-.23a.39.39,0,0,0,.3,0,.28.28,0,0,0-.14-.23v-.14c-.06-.13,0-.19.05-.19,0-.16-.1-.21-.19-.16a.72.72,0,0,1-.28.07A1.44,1.44,0,0,0,70,61a1.28,1.28,0,0,0-.14-.25q1.64-3.18,3.32-6.29t3.32-6.25a2.13,2.13,0,0,0,.68.08l.72-.08a.94.94,0,0,0-.6-.09,2.73,2.73,0,0,1-.7,0c.24-.56.53-1.12.84-1.68l.93-1.69a8.14,8.14,0,0,0,.47-1,1.45,1.45,0,0,1,.7-.77,1.09,1.09,0,0,1,.19-.87,2.83,2.83,0,0,1,.61-.63,3.41,3.41,0,0,1,.14-.68.68.68,0,0,1,.37-.44l-.05.14H81a.81.81,0,0,0,.56.14.86.86,0,0,0,.43-.23,2.14,2.14,0,0,0,.32-.45,4.4,4.4,0,0,0,.24-.49,1,1,0,0,0,.44,0q.12,0,.21-.33l.09,0,0-.14a.38.38,0,0,0,.26.21.84.84,0,0,0,.37.05.49.49,0,0,0,.26-.12c.06-.06,0-.14,0-.23s0-.09.12-.07a.3.3,0,0,0,.21,0c-.06-.28,0-.46.14-.53s.22-.24.19-.49h4.35L89.1,38l.09.05c0,.12,0,.19-.11.21s-.12.08-.12.21h.33c0-.16,0-.25,0-.28a.94.94,0,0,0,.16-.14l.1-.05,0-.09H92a.37.37,0,0,1-.17.25c-.07,0-.1.15-.07.31s0,.07.07,0a.14.14,0,0,1,.17,0h.09l0,.14h.1a2.36,2.36,0,0,0-.24.53.55.55,0,0,1-.42.4c-.15,0-.23-.08-.23-.26S91.17,39,91,39l-.26.07c-.08,0-.1.1-.07.25a3.23,3.23,0,0,1-.7-.25,1.34,1.34,0,0,0-.84-.07c0-.1-.07-.17-.19-.24a.9.9,0,0,1-.28,0s-.1,0-.19.07a.49.49,0,0,1,.12.25.23.23,0,0,0,.21.21c0,.13-.09.2-.26.22s-.15.05.07.11c-.06.13-.15.16-.26.1a.57.57,0,0,1-.21-.19.47.47,0,0,1,.07.3.15.15,0,0,1-.07.1l-.07,0s0,.07.07.17-.11.07-.25,0a.68.68,0,0,0-.35,0,.32.32,0,0,0,.09-.23.64.64,0,0,0-.4.37c-.08.19-.24.25-.49.19h-.19q0-.13-.3-.12a.35.35,0,0,1-.35-.11.56.56,0,0,0,.14-.1s0,0,0,0a2.21,2.21,0,0,1-.28.32,1,1,0,0,1-.37.24.38.38,0,0,1,0-.31c0-.11,0-.19-.18-.25a.45.45,0,0,1-.33.07,1.19,1.19,0,0,1-.33-.07v-.1h-.09c.06-.15.06-.23,0-.23a.29.29,0,0,0-.1.23l-.09,0,0,.14a1.09,1.09,0,0,1-.38.11.27.27,0,0,1-.28-.11q0,.22-.21.21c-.17,0-.24,0-.21.16a1.47,1.47,0,0,1,.84.07,1,1,0,0,0,.89-.12.27.27,0,0,0,.3.24c.18,0,.26.08.26.23,0-.09.08-.12.14-.09l.21.11.17.1s0,0,0-.12l.14,0,.1,0c.12,0,.16.07.11.21s0,.18.17.12A.35.35,0,0,0,86.6,41a.28.28,0,0,1,.07-.28l.14,0,0-.14a1.5,1.5,0,0,1,.4,0c.11,0,.22,0,.35-.14.06,0,.06.09,0,.19a.45.45,0,0,0-.09.23c.15,0,.23,0,.23.09q.46-.09.51-.42a.31.31,0,0,1,.24.07,1,1,0,0,0,.14.17c.12-.06.14-.14,0-.24a1,1,0,0,1-.18-.23,3.4,3.4,0,0,0,.68-.35l.72-.49q.24,0,.3.12l.17.21a.87.87,0,0,1,.65-.19,1.11,1.11,0,0,0,.56-.05,3.6,3.6,0,0,1-.37.89c-.19.34-.36.66-.51.94h-.1v0a.21.21,0,0,0-.19-.07c-.06,0,0,.07,0,.17l0,.14.15,0c-.16.34-.33.66-.5,1s-.33.6-.49.91l-.09-.09h-.19c0-.1,0-.11-.14-.05a1.26,1.26,0,0,0-.18.14.68.68,0,0,0,.28.09l.09.1h.14a.57.57,0,0,1-.21.42.22.22,0,0,0,0,.37,1.11,1.11,0,0,0-.54.68,7.19,7.19,0,0,1-.45,1,4.93,4.93,0,0,1-1.1,0,2.42,2.42,0,0,0-.86,0c-.19,0-.27,0-.26.07l-.25-.07a1.76,1.76,0,0,0-.73,0l-.68.12c.07.31.11.59.14.82a2,2,0,0,1,0,.72c.06,0,.09,0,.09,0s0,0,.09,0v.14l.14-.05a.15.15,0,0,1,.07.19c0,.09,0,.14.12.14v.14l.14,0v.1a0,0,0,0,0,0,0s0,0,0,.09q.27.09.3-.12c0-.14.1-.21.26-.21a1.29,1.29,0,0,1,0,.73c-.08.23,0,.39.12.49a.9.9,0,0,1,.28-.17c.12,0,.22,0,.28,0l0,.09,0,.05a.45.45,0,0,1-.09.32.56.56,0,0,0-.14.29,1.27,1.27,0,0,0-.92-.19q-.63,0-.72.42a.36.36,0,0,1,.21.26,1,1,0,0,1,0,.35,2.3,2.3,0,0,0,0,.37c0,.13,0,.2.14.23l0,.14,0-.14c.13,0,.17,0,.14.17s0,.22.1.26a7.65,7.65,0,0,0-.57,1,4.09,4.09,0,0,1-.6,1l0-.14-.09,0c-.13.21-.27.25-.42.09-.07.12,0,.18.06.16l.26,0,0,.14.14,0c-1.34,2.49-2.67,5-4,7.45S77.3,66.55,76,69c0,.07.11.1.33.1,0,.22,0,.32.09.32-.06.22-.15.3-.26.24a.47.47,0,0,0-.35,0,18.33,18.33,0,0,1-2.92.07c-1.07,0-2.14,0-3.2,0l0-.14-.14-.1a2.52,2.52,0,0,1,1.16-.09,2.65,2.65,0,0,0,1.13,0l0,0h0a.72.72,0,0,1,.61,0c.22.09.37,0,.47-.14a1.36,1.36,0,0,1-.57,0,1.06,1.06,0,0,0-.51,0l0-.14-.14,0H70.23a8.15,8.15,0,0,1-1,0,4,4,0,0,1-.82-.14,2.41,2.41,0,0,1-1.26.14L66.05,69a1,1,0,0,1-.38,0l-.28-.12q0-.27.24-.09a.9.9,0,0,0-.73-.19c-.32,0-.52,0-.58,0l0,0v0a.38.38,0,0,1-.26,0c-.1,0-.16,0-.16.1l-.09,0-.1,0a1,1,0,0,0-.7-.23Q61.9,66,60.72,63.87t-2.29-4.35a.56.56,0,0,1,.37,0,.47.47,0,0,0,.38-.1c0-.06-.07-.1-.1-.11s0-.06,0-.12V59l-.1.05a1.21,1.21,0,0,1-.23-.52,1.88,1.88,0,0,1-.47,0,.32.32,0,0,1-.28-.28l.09,0v-.09c0-.07,0-.1.07-.1s.07,0,.07-.09a.33.33,0,0,0-.25-.09c-.11,0-.17.06-.17.18h0v.1q-.37-.7-.78-1.41a13.74,13.74,0,0,1-.72-1.49q-.33.23-.51,0a.74.74,0,0,0-.61-.24c0-.12,0-.19,0-.21a.21.21,0,0,1,.19.07.74.74,0,0,0-.3-.21q-.12,0-.21-.21l0-.14,0-.09c0-.25,0-.38.21-.4a.52.52,0,0,0,.4-.21l.09,0-.05-.1a.49.49,0,0,0,0-.39c0-.17-.11-.35-.17-.54s-.12-.37-.16-.54a1,1,0,0,1,0-.49,2.13,2.13,0,0,0-.18-.37c-.07-.1-.22-.11-.47,0a.31.31,0,0,0,0-.26.48.48,0,0,0-.19-.09.6.6,0,0,1-.16-.05s0-.07,0-.16c-.09,0-.15,0-.16.07s0,.16-.07.26c-.31-.53-.6-1-.87-1.55s-.52-1-.77-1.59a.48.48,0,0,1-.44,0c-.11-.06-.21,0-.31.24a1.18,1.18,0,0,1-.23-.42.92.92,0,0,0-.33-.47c.16.06.24,0,.24-.07s0-.16-.14-.16a.19.19,0,0,1,.16-.12.23.23,0,0,0,.16-.12l.1,0v-.14c0-.06.07-.09.11-.09s.09,0,.12-.1l.09,0,.05.05c.19.06.28,0,.28-.15H52s0,0-.1,0l-.05-.09-.09,0a.1.1,0,0,1,0-.14.16.16,0,0,0,.06-.14l.1,0,0-.09a3.22,3.22,0,0,0,.19-.33.75.75,0,0,0,.09-.33.55.55,0,0,0-.21-.35.51.51,0,0,1-.21-.26.47.47,0,0,1,0-.14.2.2,0,0,1,0-.11s0-.06,0-.12a.46.46,0,0,0-.11-.16s-.07-.06-.07,0,0-.11.12-.16.06-.1,0-.16l-.05-.1h-.14c0-.06-.07-.11-.21-.16s-.21,0-.21,0v0l0-.05a.48.48,0,0,1-.33.09l.05-.14-.14,0c-.22,0-.31.1-.26.21s0,.18-.21.21c0-.12,0-.19,0-.21a.65.65,0,0,0-.22,0,1.17,1.17,0,0,1-.3-.05c-.11,0-.18-.12-.21-.28a.28.28,0,0,1-.19.19.49.49,0,0,0-.23.14.43.43,0,0,0-.28-.21.54.54,0,0,0-.28,0l-.31.12a1,1,0,0,1-.35.07c0-.72.07-1.41.1-2.06s.07-1.31.14-2a1.28,1.28,0,0,1-.33-.54,1.28,1.28,0,0,0-.33-.54c-.12,0-.2,0-.23.12A.42.42,0,0,1,47,39l-.09-.1h-.14a.84.84,0,0,1,0-.79.29.29,0,0,0-.26.28.55.55,0,0,1-.16.37c-.22-.12-.31-.23-.28-.32a1.9,1.9,0,0,0,0-.66,12.65,12.65,0,0,1,1.59-.09l1.87,0,2,0,1.84,0a4.63,4.63,0,0,0,.92-.09.74.74,0,0,1,.72.19c.16.06.21,0,.16-.1s0-.15.17-.09.43.22.93.19a6.68,6.68,0,0,1,1.27,0c.53,1,1,2,1.56,3l1.57,3-.14.09,0,.14a.26.26,0,0,0-.18.09c.06,0,.1.07.11.12s0,0,.07,0l.15,0,.09-.14a3,3,0,0,1,.51,1l-.14,0-.14,0h-.14c.06.12,0,.18-.07.16a.43.43,0,0,0-.26,0l.05-.14-.14-.14a.26.26,0,0,0,.07-.11s0-.09-.07-.12a.46.46,0,0,1,0,.14.26.26,0,0,0,0,.14v.14l.14.09s-.06.05-.18.05c.06.12.06.2,0,.23s-.08.1,0,.19.14,0,.14.05a.15.15,0,0,0,.09.14c0-.22.08-.35.24-.4a.33.33,0,0,0,.23-.35l.19,0ZM48.7,44.56h.19c0,.06,0,.09,0,.09v.14s0,0,0,.1H48.7c0-.06,0-.1-.09-.1v-.14A.08.08,0,0,0,48.7,44.56Zm0-2.1h.19v-.19H48.7Zm.24,3,0-.19,0-.18a.6.6,0,0,0,.32-.07.42.42,0,0,1,.33,0,2,2,0,0,0,.21.35,1.66,1.66,0,0,1,.21.4,1.25,1.25,0,0,0-.47.14.71.71,0,0,1-.51,0,.17.17,0,0,0,0-.23h-.09l0-.1Zm1.68-1.64.05,0a1.49,1.49,0,0,0,.14-.24Zm.7,1.27c-.16.15-.19.28-.09.37s0,.09-.14.09,0-.09-.1-.09c.16-.06.19-.12.1-.19S51.07,45.14,51.32,45.08Zm-.19-1.45a.55.55,0,0,1,0,.25.36.36,0,0,0,.09.26Zm0,2.66.19.19a1.21,1.21,0,0,1,.19.28Zm.8-.14-.21-.09a.18.18,0,0,0-.21,0Zm-.24-2.34a.13.13,0,0,0,0,.07s0,0,0,.07Zm1.17,2.57a1,1,0,0,1-.23,0c-.09,0-.13,0-.09.17a.3.3,0,0,0,.16-.05.3.3,0,0,1,.16,0l0,.14.14,0a1.66,1.66,0,0,1,.63,0c.23,0,.38,0,.44-.15-.18,0-.38,0-.58,0a1,1,0,0,0-.49.07v0Zm0,.19a.38.38,0,0,0,.09-.11s0,0,.05-.08Zm.65-3.32s.06,0,.07,0a.17.17,0,0,0,0-.14.13.13,0,0,0,0-.09s0,0,0,.11a.34.34,0,0,1,0,.19C53.39,43.36,53.41,43.35,53.47,43.25Zm.28,2.06a.3.3,0,0,0,.1-.21c0-.08-.05-.12-.14-.12C53.71,45.2,53.72,45.31,53.75,45.31Zm1.17,8.42q-.47.09-.42-.33C54.81,53.34,55,53.44,54.92,53.73Zm.61,0a.32.32,0,0,1-.24-.3.87.87,0,0,0-.09-.4Zm2.2,4.39a.14.14,0,0,0,0,.1.72.72,0,0,1,.28.09Zm.56,1c.06,0,.09,0,.09.07a.18.18,0,0,0,0,.07.5.5,0,0,0,.42,0L59,59Zm2.24-13.8a.49.49,0,0,0-.19.05Zm.1-.89a1.21,1.21,0,0,0-.19-.37Zm.6,3.23c0-.31-.06-.5-.28-.56a.51.51,0,0,0,0,.3A.43.43,0,0,0,61.23,47.6Zm-.09-2.24a.29.29,0,0,1,0-.19Zm1.17,13.93c.09-.09.15-.12.16-.09l.21.28a.31.31,0,0,1,0-.17s0-.08,0-.11c-.06.15-.11.14-.14-.05s0-.3.1-.33c-.16,0-.2-.08-.12-.14s0-.12-.17-.19a.72.72,0,0,0,0,.26.37.37,0,0,1,0,.24A1.66,1.66,0,0,0,62.31,59.29Zm1,.33c-.12,0-.13,0,0-.12s.08-.18-.07-.21c0,.09,0,.2-.14.33s-.14.15-.05.09.09,0,.09-.05,0,0,.1,0,0,.08.09.07S63.35,59.65,63.29,59.62Zm-.19,8.74c-.12,0-.09,0,.1.09s.23.13.14.1-.08.08,0,.14.11.12,0,.18A.69.69,0,0,1,63.1,68.36Zm1.5,1.17.05.14-.66,0c-.22,0-.34-.07-.37-.26l.63-.14c.26-.06.43,0,.49.14Zm-.8-.38a.26.26,0,0,1,.05-.18.14.14,0,0,0,0-.1.41.41,0,0,0,0-.18l-.09-.19Zm.43-.42s0-.1,0-.23Zm.28-8.93c.09,0,.14-.07.14-.14s-.05-.11-.14-.14a.64.64,0,0,1-.1.14.56.56,0,0,0-.09.14l.05.05,0,.09c-.06.19,0,.3.1.33q-.11-.23,0-.33s0,0,0,0Zm-.14.05.09,0a.16.16,0,0,0,.09,0Zm.7-10.8c.06.19,0,.28-.19.28a.53.53,0,0,1-.37-.09c0-.25.07-.36.32-.33-.09.16-.09.19,0,.12S65,49,65.07,49.05ZM64.6,69.53a.62.62,0,0,0,.33,0Zm2.9,0,0,.14H64.93v-.14l-.1-.1c0-.09,0-.14.12-.14a.91.91,0,0,1,.26,0,.85.85,0,0,0,.25,0c.08,0,.12-.06.12-.19a1.55,1.55,0,0,0,1,.14,1.51,1.51,0,0,1,1,.09Zm-2-5.57c.09,0,.11,0,.07-.18s-.07-.16-.07,0a.63.63,0,0,1,0,.21C65.41,64.07,65.42,64.06,65.49,64Zm.56-15.05q.18,0,.21.12c0,.07,0,0,.12-.12a.31.31,0,0,1,0,.42.41.41,0,0,1-.37.23.11.11,0,0,0,0-.14s-.07,0-.07,0-.08,0,0-.16a.38.38,0,0,0,0-.26C66,49.11,66.05,49.07,66.05,48.91Zm.23,11.22s0,0,0,0,0,0-.1,0C66,60,66,60,66,60s.06.14.18.26l-.14,0,.14,0c-.09.1-.09.14,0,.14s0-.07,0,0,0,.06.09,0,0,0,.1,0h.09v-.1q0,.11.09,0a.41.41,0,0,0,0-.18.15.15,0,0,0-.07-.14c-.05,0-.1,0-.16.14v0Zm-.28.19a.47.47,0,0,0,.28,0Zm.28,0h0c-.07-.06,0-.09,0-.09Zm0,0s0-.05,0-.07a.11.11,0,0,1,0-.07Zm.19.19a.26.26,0,0,0-.19-.19Zm0,2c.22,0,.26,0,.14-.21s-.2-.21-.23-.12S66.47,62.2,66.47,62.42Zm.09-8.32a.18.18,0,0,0,0-.07s0,0,0-.07Zm.7,9.21c0-.22,0-.34,0-.37a1,1,0,0,0-.1-.28c.07,0,.09,0,.07,0a.08.08,0,0,0-.07,0c0,.07-.05.08-.07,0s0,0-.11,0A1.16,1.16,0,0,0,67,63a.08.08,0,0,1,.09-.09.72.72,0,0,0,.38.37c.06,0,.09.07.09.1l.1-.14c.12,0,.17-.1.14-.21s-.08-.09-.14.07c.06,0,.09,0,.09,0a.2.2,0,0,1-.14.05h-.1l-.09.14,0,.09S67.42,63.4,67.26,63.31ZM67,53.82q.09-.09.33,0a.28.28,0,0,1,0,.16.31.31,0,0,0,0,.17.2.2,0,0,1-.09-.19A.13.13,0,0,0,67,53.82Zm.47,15.71,1.07,0a8.53,8.53,0,0,0,1.13,0Zm0-6.36a.17.17,0,0,0,0,.12.12.12,0,0,1,0,.07Zm.1-3.37c.09,0,.15,0,.19,0Zm.09-2.33a.71.71,0,0,1,.33-.1Zm.14,1.16c-.15-.15-.17-.25,0-.3S68,58.39,67.87,58.63Zm.47-9c.06.18,0,.31-.23.37s-.3,0-.24-.33c.13.07.2.06.24,0S68.21,49.6,68.34,49.66Zm-.28,7.71-.14-.14c0-.22,0-.33.16-.35a.64.64,0,0,0,.35-.12c.13,0,.2.06.21.17a.52.52,0,0,0,.12.26.36.36,0,0,0-.35.21c-.08.14-.21.18-.4.11Zm.42-2.76a.49.49,0,0,1,0,.19.15.15,0,0,0,.09.14Zm.37.19,0-.14a.7.7,0,0,1,0,.19Zm1.36,1.45c0,.13-.14.19-.33.19,0,0,0-.11,0-.24s.13-.12.21-.09A.32.32,0,0,1,70.21,56.25Zm.51-1.68c-.09.06-.11.12,0,.18a.29.29,0,0,1,0,.28c-.06.16-.13.22-.21.17a.59.59,0,0,1-.18-.17.94.94,0,0,1-.12-.18c0-.06,0-.05,0,0q-.22-.09-.09-.21t.09-.21q.2.2.24-.09c.06.12.07.2,0,.21S70.47,54.6,70.72,54.57Zm-.7,7.9.07,0a.09.09,0,0,0,.07,0Zm.14,1.21.17-.16.16-.16Zm.1-.32a.24.24,0,0,0,.18-.1Zm.46,2.9c.07-.1,0-.13-.16-.1s-.18.06,0,.1a.59.59,0,0,1,.21,0C70.83,66.33,70.82,66.32,70.72,66.26Zm.75-11c0,.19-.12.29-.28.3a.33.33,0,0,1-.33-.11c0-.25,0-.39.24-.4A.31.31,0,0,1,71.47,55.27Zm-.28-1.64c0,.13,0,.2.1.21s.06.09,0,.21a.39.39,0,0,1-.36-.21C70.86,53.7,70.94,53.63,71.19,53.63ZM71.1,63.82a.46.46,0,0,1-.19-.23Zm.09-1.4v-.28H71C71,62.33,71,62.42,71.19,62.42Zm.66-2.62q-.1.24,0,.33a.23.23,0,0,1,.23-.19.07.07,0,0,0,0,.07s0,0,0-.07a.08.08,0,0,1-.09-.09c.06,0,.09,0,.09,0s0,0-.09,0-.08.08-.23.14a.18.18,0,0,0,.09-.18C71.94,59.66,71.91,59.68,71.85,59.8Zm0,9.54a.27.27,0,0,1,.1-.19Zm.52-6.92a.42.42,0,0,0-.14-.28.67.67,0,0,0,.07.26C72.38,62.51,72.41,62.52,72.41,62.42Zm.32.33s0,0,0,0,0-.09,0-.07a.07.07,0,0,0,0,.07,1.1,1.1,0,0,1,.33.14A.14.14,0,0,1,73,63l.09-.05a.31.31,0,0,1,.14.21c0,.11.08.09.14-.07A.56.56,0,0,1,73.2,63l-.09-.09a.16.16,0,0,1,0-.1l-.14,0h0l0,0A.3.3,0,0,1,72.73,62.75Zm.33.09L73,63Zm.42-7.29v-.28l-.21.07a.33.33,0,0,0-.21.12l.17.16a.2.2,0,0,0,.16.07v.14l.09,0v.14h.19v-.18a.14.14,0,0,0-.09-.14l0-.1Zm-.09.28a.65.65,0,0,1,.23-.33Zm2-3.83a.67.67,0,0,0,.1.28q.09.18.18,0-.27-.2,0-.33c-.06,0-.11,0-.14,0A.18.18,0,0,1,75.35,52Zm2,16.36,0,.09a.16.16,0,0,0,0,.19.27.27,0,0,1-.37.14l-.42-.14c0-.16,0-.23.09-.21s.11-.05.05-.21a.82.82,0,0,0,.35,0s.13,0,.25.14Zm.09,0a.51.51,0,0,0-.23-.18c.06-.28.19-.4.39-.35a.38.38,0,0,0,.45-.22.53.53,0,0,0,.33.17c.12,0,.17.18.14.49,0,.06-.12.08-.26,0s-.21,0-.21.09a.51.51,0,0,1-.19-.23.31.31,0,0,0-.12.09s0,.06-.11.09l-.1,0Zm-.09,0q.18,0,.18-.09Zm3.5-27.82.1-.19Zm2.43,4.77h.15v-.19h-.15ZM85,41.48a1.64,1.64,0,0,1-.7-.19,2.49,2.49,0,0,0-.84-.24.18.18,0,0,0,.11.19,1.12,1.12,0,0,0,.29.07l.3.07a.3.3,0,0,1,.19.24.42.42,0,0,1-.19.11.24.24,0,0,0-.14.12.21.21,0,0,0,.21.07.67.67,0,0,0,.21-.09.72.72,0,0,1,.21-.12c.08,0,.16,0,.26.09a.08.08,0,0,1,.09-.09l0,.14h.14V42a.5.5,0,0,0,.33,0c.15,0,.15-.1,0-.16v-.09l-.1,0a.15.15,0,0,0-.14-.09h-.18l0-.1ZM83.77,54.1a.26.26,0,0,0,.09-.16.41.41,0,0,1,0-.17Zm.28-2.24c0-.1-.08-.15-.14-.15s-.09,0-.09.15h.09l0,.14.1.09a.37.37,0,0,0-.14.35.26.26,0,0,0,.23.3.32.32,0,0,1,.09-.23,2.31,2.31,0,0,1,.19-.16l.16-.14a.37.37,0,0,0,.07-.26c-.12,0-.19,0-.21,0s-.08.06-.21,0l0-.1Zm.14,0A.41.41,0,0,1,84,52a.3.3,0,0,0-.17,0Zm0-11.87s.12,0,.28,0Zm.37,7.85a1.4,1.4,0,0,0,0-.42Zm.33,3.18-.09,0c-.07-.13-.06-.2,0-.21s.12-.06.12-.12.1.09.11.26,0,.22-.16.16Zm0,.51a1.37,1.37,0,0,0,0-.28.24.24,0,0,1,.07-.23Zm0-3.27.09-.19a1.62,1.62,0,0,0,.1-.18h0a.14.14,0,0,0,.09,0Zm.19-6.45a.47.47,0,0,1,.09-.33Zm.47-.09a.46.46,0,0,1-.24,0,.24.24,0,0,0-.23.07Zm-.33,6.12-.09-.05a.31.31,0,0,0,.06-.18,2.61,2.61,0,0,1,.08-.33.94.94,0,0,1,.11-.3c.05-.08.1-.1.17-.07s.15.21.09.56-.19.51-.37.51Zm.47,2.57c.12.07.14.15.07.26a1.58,1.58,0,0,0-.17.26c-.09-.07-.1-.15,0-.26A.48.48,0,0,0,85.69,50.45ZM86,39a.18.18,0,0,1,.19-.14c.09,0,.14,0,.14-.1H86a.48.48,0,0,1-.14.24.12.12,0,0,0,0,.09l0,.14a.24.24,0,0,1-.16.09s-.09,0-.12.1c.22,0,.33-.06.33-.19l0-.09,0-.14Zm0,.14a.08.08,0,0,1-.07,0l-.07,0Zm.09,1.63s-.06,0-.07,0a.25.25,0,0,0-.12,0Zm0,0a.41.41,0,0,1,.19,0Zm0,0,0,.12a.31.31,0,0,0,0,.12Zm.47,8.28h-.1a.28.28,0,0,1-.21-.28,3.45,3.45,0,0,0,0-.52.82.82,0,0,0,.42.1l.14,0h.09a2.52,2.52,0,0,1-.33.65Zm.32-9.82a.35.35,0,0,0-.32.05c-.07.06-.13,0-.19-.05-.16.25-.12.36.09.33A.46.46,0,0,0,86.85,39.23Zm-.56,10.1c.07,0,.14-.12.24-.28Zm.52-8.56c-.06-.06-.1-.1-.1-.14a.12.12,0,0,0,0-.09ZM87,44.33c0-.1-.11-.12-.22-.07s-.08.1.07.16,0-.09.05-.09,0,.05,0,.07S87,44.39,87,44.33ZM87.56,42a.18.18,0,0,0,.23-.1c.06-.09,0-.14-.05-.14a.25.25,0,0,1-.09.12A.25.25,0,0,0,87.56,42Zm.09,5.7c0-.06,0-.08,0-.07a.08.08,0,0,1,0,.07c.07.06.1,0,.1-.05.12.07.14.11,0,.14A.18.18,0,0,1,87.65,47.74Zm.42-1c-.16,0-.16-.07,0-.12s.19,0,.16.12l.05,0A.17.17,0,0,0,88.07,46.71Zm.14.38q-.18-.15,0-.21T88.21,47.09Zm.42-.38c.13,0,.17.06.14.1a.38.38,0,0,0,0,.23C88.57,46.92,88.54,46.81,88.63,46.71Zm.24-3.79a3.29,3.29,0,0,0,.46-.23.46.46,0,0,0,.19-.51c-.34-.07-.53,0-.56.21S88.9,42.77,88.87,42.92Zm0,3.7c.12,0,.18.05.18.16v.31Q89,47,89,46.88A.36.36,0,0,0,88.87,46.62ZM89.1,38a1,1,0,0,1,.23-.07.26.26,0,0,1,.24.07Zm.65,9.49a.21.21,0,0,1-.28-.19.9.9,0,0,0-.14-.37Zm.56-5.7c.19-.1.25-.19.19-.28ZM92,38.58a1.67,1.67,0,0,0,.19-.42Z"/><path class="cls-1" d="M87.28,40a.3.3,0,0,0,.21,0,.26.26,0,0,1,.21.07Zm4,27A.59.59,0,0,1,91,67l-.21-.1Zm.23-28a.87.87,0,0,1-.28,0,1,1,0,0,0-.28,0ZM91,46c0-.06,0-.09-.1-.09s.1.18.28.18a.19.19,0,0,1,0-.16s0-.07-.07-.07S91.08,46,91,46Zm.23,21,0,.14c.1.16.31.21.66.14a1.14,1.14,0,0,1-.07-.51,3.09,3.09,0,0,0,0-.56q-.32-.28-.84.09a.5.5,0,0,1,.07.31c0,.07.06.16.21.25Zm-.14-12.32c0,.14,0,.23.09.26,0-.15,0-.23,0-.21l.14.12c-.06-.13,0-.17.1-.14s.15,0,.09-.19c-.16,0-.23,0-.23-.09s-.07-.11-.19,0A.49.49,0,0,1,91.11,54.68ZM115.38,36.8l-.15.05c-.06.12,0,.27.17.44l.4.4q0-.28.18-.33a.71.71,0,0,0,0,.44,1.23,1.23,0,0,1,0,.54l.14,0,0,.09h.24a.26.26,0,0,0-.1.28.21.21,0,0,1,0,.23V39l0,0v.14H116l0,.14,0,.09a.73.73,0,0,1,.19.47,5.47,5.47,0,0,0,0,.61c-.07-.1-.14-.1-.24,0s-.09.15,0,.18.28.23.28.5a.73.73,0,0,0,.38.63.64.64,0,0,0,0,.56.39.39,0,0,1,0,.42.48.48,0,0,1-.28.33,2.38,2.38,0,0,1-.37.06,1.64,1.64,0,0,0-.35.08c-.11,0-.17.12-.17.28a.16.16,0,0,0,.24-.05c.06-.09.09-.08.09.05s.09.14,0,.16-.13.1-.09.26l.14.09,0,.14a.51.51,0,0,0,.4,0,1.2,1.2,0,0,1,.35-.11c-.07.18,0,.26.09.23s.2,0,.23.09-.17,0-.16.14,0,.19-.07.19,0-.17-.19-.23a1.52,1.52,0,0,0-.56-.1,5.47,5.47,0,0,0-.6,0,1.09,1.09,0,0,0-.38.07l-.09,0-.1-.05c0,.07,0,.1,0,.1a18.44,18.44,0,0,1-.12-2.64c0-.95,0-1.77.12-2.46l0,0h0a1.48,1.48,0,0,1,0-.39c0-.11.09-.12.19,0a3.6,3.6,0,0,0-.1-.53c0-.11-.07-.26-.14-.45-.74,0-1.48,0-2.19-.07a21.64,21.64,0,0,0-2.29,0,13.27,13.27,0,0,1-1.41,0,6.36,6.36,0,0,0-1.21.07.69.69,0,0,0-.17.1.27.27,0,0,1-.16,0c-.31,0-.63,0-1,0l-.93-.1a4.41,4.41,0,0,0-.89,0,1.59,1.59,0,0,0-.82.33c-.06-.25-.26-.37-.58-.35s-.64,0-.92,0c-.06.22-.18.33-.37.33a1.36,1.36,0,0,0-.51.09c.06.25,0,.38-.12.4a.39.39,0,0,0-.31.26c.16.06.23.1.21.11a.68.68,0,0,1-.21.12c.19.13.3.12.33,0s.11-.17.24-.07c-.16,0-.15.06,0,.18s.3.13.4,0l.09,0,.09,0c0-.15,0-.17.1,0s.14.11.14-.05c.12,0,.14.08.07.14a.21.21,0,0,1-.26,0l0,.05-.09-.05a1.92,1.92,0,0,1-1.1.09,2,2,0,0,0-1.1.1l.05.09v.05c0,.09,0,.15,0,.16a.21.21,0,0,0,.12,0,.36.36,0,0,1,.14,0s0,.05,0,.12a.36.36,0,0,0-.28-.1c-.13,0-.17-.07-.14-.23l-.14-.05,0-.09H99.2c0,.12,0,.2,0,.23s0,.1,0,.19a1.07,1.07,0,0,0-.56-.33.91.91,0,0,1-.24.24.38.38,0,0,0-.3-.17,1.2,1.2,0,0,0-.45.05,1.42,1.42,0,0,0-.39.19.31.31,0,0,0-.17.25v.1H97a.2.2,0,0,0,0,.14.26.26,0,0,1,0,.18l-.49-.07-.58,0,0,.14-.14.09q.18.24,0,.36a1.47,1.47,0,0,1-.43.16.58.58,0,0,1,0-.4.17.17,0,0,0,0-.26l-.09-.09,0-.19a.75.75,0,0,0-.63.07,2.2,2.2,0,0,0-.45.54,1.22,1.22,0,0,1-.14-.28c0-.09-.12-.14-.28-.14a4.3,4.3,0,0,0-1.07,1.22l.14,0,0,.14a3.3,3.3,0,0,1,.51,0,2,2,0,0,0,.47,0c0,.16-.19.21-.47.17l-.6-.12h0l-.09-.05a8.21,8.21,0,0,0-1,2.2c0,.06,0,.09.07.07s.07,0,.07.07,0,0-.09,0l-.14,0a2.37,2.37,0,0,0-.28,1.12c0,.5-.08,1-.14,1.45s-.1,1.19-.12,1.87,0,1.34,0,2a.73.73,0,0,1,.47.14q.18.14,0,.42c.12.06.21.07.25,0s.11,0,.17.07a.21.21,0,0,1-.14.23l-.31.1-.3.09a.22.22,0,0,0-.14.24l.19.16c.06.05.07.13,0,.26a.22.22,0,0,1-.11-.1s-.06,0-.12,0c0,.19.09.3.19.33s.17.17.23.42c.41-.06.65,0,.75.28a1.75,1.75,0,0,0,.37.61c-.09,0-.14,0-.14.09.19,0,.25.07.19.19s0,.22.14.28q-.33.09-.3.3a1.64,1.64,0,0,0,.11.45l.14-.05,0,.14h.09v-.19H93a1.11,1.11,0,0,1,.37-.23.43.43,0,0,1,.47.14.77.77,0,0,1-.14.52,3,3,0,0,0-.28.32V56h-.09c0,.06,0,.1.07.11a.26.26,0,0,1,.11.12.6.6,0,0,1-.32.12c-.07,0-.16.05-.28.21-.07-.25-.18-.36-.35-.33s-.29-.08-.36-.33c-.15-.06-.24-.07-.25,0s-.1,0-.26,0a3.48,3.48,0,0,1-.19-.35c-.06-.14-.15-.16-.28-.07l0,.14-.14,0v1.47a10.21,10.21,0,0,0,.09,1.38.39.39,0,0,0,.21.11.25.25,0,0,1,.17.12.73.73,0,0,0-.19.16,1.39,1.39,0,0,0,.14.26c-.22,0-.33,0-.33.1s.17.27.31.25a.74.74,0,0,1,.39.07l-.09.19.19-.09a.38.38,0,0,1-.17.37c-.14.13-.11.16.07.09L92,60l.14.09c.07,0,.1,0,.1,0a.16.16,0,0,1,0-.1c.22,0,.33.25.33.66-.18.06-.29,0-.3-.12a.38.38,0,0,0-.17-.3l-.09.09H91.9c.07.22,0,.3-.09.23a1.13,1.13,0,0,1-.28-.18l0,.14-.14,0a4.58,4.58,0,0,0,.24,1.5,3.62,3.62,0,0,1,.18,1.36c.1,0,.14,0,.14.09a9,9,0,0,1,.59,1.45,3.91,3.91,0,0,0,.68,1.31,5.38,5.38,0,0,0,1.59,1.45,10.66,10.66,0,0,0,2,.93.28.28,0,0,1,0,.17s0,.07.07.07c.09-.16.28-.17.58,0a6.74,6.74,0,0,0,.73.31s0,.06-.14.09-.08.08,0,.14l.14,0,.14,0h.14v.14H98.4v0h-.28a1,1,0,0,1-.42.57c-.22.15-.29.31-.23.46,0-.06.11,0,.23,0l.28.16a1.26,1.26,0,0,1-.23.42,1.41,1.41,0,0,1,.47.1.4.4,0,0,0,.42,0q-.24-.24-.12-.33c.08-.06.09-.17,0-.33a.38.38,0,0,0,.28-.09.67.67,0,0,1,.28-.14c.07-.13.06-.2,0-.23s-.09-.11,0-.24a1,1,0,0,1,1-.37,9.9,9.9,0,0,0,1.4.19c.78.06,1.53.09,2.27.09s1.42,0,2.08-.09c-.07,0-.1,0-.1-.08s0-.07.1-.07.09.08.09.24h14c-.06-.38-.12-.77-.19-1.19a2.81,2.81,0,0,1,0-1s-.06,0-.09,0,0,0,0-.07a4.51,4.51,0,0,0-.14-1q-.14-.63-.18-1-.24,0-.24-.09a.29.29,0,0,0,.24-.4,1.51,1.51,0,0,1-.1-.39l-.09,0-.14,0c-.06,0-.1.07-.1.23h-.14q0,.09,0,.09s0,0,0,.05l.05.14-.1-.05c0,.16,0,.21-.11.17s-.14-.14-.07-.26l-.05-.09.14,0a.25.25,0,0,0,.12-.25c0-.11,0-.17.21-.17l-.05-.14.14,0a3.12,3.12,0,0,0,0-1.17q-.15-.66-.24-1.17h-.89c.07.12.08.19.05.21a.47.47,0,0,0-.14.16v.1h-.05a.24.24,0,0,1,.14.2.33.33,0,0,1-.09.22q-.37,0-.42-.24c0-.15-.16-.22-.38-.18,0-.16,0-.26,0-.31s-.1-.1-.16-.16c-1.16,0-2.14,0-3,0s-1.62-.08-2.43-.14l0,.14-.14,0c0,.07-.09.1-.26.1s-.24,0-.21-.1l0-.09,0-.09a.94.94,0,0,1-.35.07s-.13,0-.26.11l0,.1h-.09a.62.62,0,0,0-.33,0c-.13,0-.19,0-.19-.1l-.09,0,.09-.05a.47.47,0,0,0-.37-.07c-.19,0-.22-.07-.1-.26a1.07,1.07,0,0,1-.44,0,.83.83,0,0,1-.3-.14c-.07.1-.06.17,0,.21s.07.09,0,.12c0-.16,0-.23-.12-.23a.44.44,0,0,0-.24.07l-.18.09s0,0,0-.12a.72.72,0,0,1-.68.19,1.27,1.27,0,0,0-.67,0h-.15l0-.09q-.22-.24-.33-.12a.74.74,0,0,1-.32.21.2.2,0,0,1,0-.14s0-.08,0-.14a.49.49,0,0,0-.14.19.2.2,0,0,1-.19.09c.06-.16.06-.21,0-.16a1.35,1.35,0,0,0-.19.16v0l0,0a.57.57,0,0,1-.42,0,4.21,4.21,0,0,0-.57,0l-.09-.05-.09,0c0,.07,0,.1-.07.1s-.07,0-.07-.1l-.14-.09,0-.14c-.06,0-.09-.06-.09-.19l0,0,0-.1c-.06,0-.09,0-.07-.07s0-.08-.07-.11l-.14,0,0-.1c-.32-.09-.32-.17,0-.23l.09-.14,0,.14a.83.83,0,0,1,.21-.16c.07,0,.07-.1,0-.17h-.42a.4.4,0,0,1-.42-.32c.06.15.06.24,0,.25a.45.45,0,0,0-.21.12,1.66,1.66,0,0,0-.21-.4,1.79,1.79,0,0,1-.21-.39c-.13.06-.16.11-.1.16s0,.1,0,.16a.92.92,0,0,0-.33-.16c-.16,0-.19-.13-.09-.26-.16,0-.25.07-.26.1a.41.41,0,0,1-.21.09c0-.28-.06-.36-.16-.23s-.17.21-.17.28c0-.44-.08-1-.16-1.52a7.71,7.71,0,0,1,0-1.8l-.09,0v-.14c-.09,0-.15,0-.16,0s-.09.08-.21.05a.46.46,0,0,0-.17-.28.45.45,0,0,1-.11-.33.24.24,0,0,0,.28-.14c.12,0,.13.06,0,.09s-.15.08-.12.14a.71.71,0,0,0,.26,0l.21-.1v-.14l.09.05c0-1.19,0-2.3,0-3.35a21.89,21.89,0,0,1,.1-3,2.93,2.93,0,0,1,1.38-2.41,5.84,5.84,0,0,1,2.78-.87c.9-.06,1.86-.08,2.87-.07l3.11,0,3.18.07a30.32,30.32,0,0,0,3,0,.64.64,0,0,1-.09.42,1,1,0,0,0,.61-.09c.21-.09.31-.06.28.09a1,1,0,0,1,.11-.23c0-.06,0-.12,0-.19l-.14,0,0-.14a.11.11,0,0,1,.07-.12.19.19,0,0,0,.11-.11c-.34,0-.49-.12-.44-.26a.66.66,0,0,0-.12-.54c.13.06.21,0,.26-.07s0-.18,0-.21,0,.12-.12.07-.12-.08-.12-.12a.43.43,0,0,1,.52,0,.81.81,0,0,1,.37.49c0-.15,0-.2.05-.14s.09.08.18,0c0,.15,0,.25.1.28l.09-.14.14,0a3.3,3.3,0,0,1,.68-.39.68.68,0,0,0,.4-.49l.14,0a.15.15,0,0,0,.09,0c.13-.09.17-.18.12-.25s0-.15.12-.21,0,.08.11.07a.13.13,0,0,1,.17.07,7,7,0,0,1-.14,1.12,4.78,4.78,0,0,0-.14,1,1.53,1.53,0,0,0,.49.11,1.34,1.34,0,0,1,.44.12.47.47,0,0,0,.19-.56,1.91,1.91,0,0,1,0-.75v-.21a.91.91,0,0,1,0-.26,1,1,0,0,1,0-.32c.07-.13.1-.15.1-.07s0,0-.1-.12,0-.23.07-.4.23-.18.35,0l0-.14.1-.09v-.33h.09l0-.1h.14a.38.38,0,0,0,.07-.32.43.43,0,0,1,.07-.33h-.09v-.14c-.13.06-.18,0-.16-.07s0-.2,0-.26.17,0,.14.14l.14.05,0,.14a.61.61,0,0,1,.14.51.84.84,0,0,1-.23.47l0,.14-.1,0a.26.26,0,0,0,0,.19.12.12,0,0,1-.07.14l-.09.1-.15-.05c0,.31,0,.51.24.61.06-.16.14-.24.23-.26a1.1,1.1,0,0,1,.24,0v-.14l.09-.1c0-.12,0-.19,0-.21s.07-.08,0-.21c.1,0,.13.1.1.21a.5.5,0,0,1-.1.21l0,.14.09.1h.19l-.05-.1.14,0a.92.92,0,0,0,0-.31c0-.08,0,0,.11.12h.14l.1.09a.2.2,0,0,0,.14,0,.2.2,0,0,1,.14-.05c-.06.19-.09.3-.07.33l.12.28h-.14l0,.09-.14,0v.18c-.28,0-.33-.09-.14-.28l-.09-.14.14-.09h-.33c-.12.09-.18.18-.16.26s0,.13-.17.16l-.09,0-.14,0a.08.08,0,0,1-.09.09l0,.14-.09-.05c0,.35-.08.71-.14,1.08a4,4,0,0,0,0,1.36,1.67,1.67,0,0,1,.79.72,4.52,4.52,0,0,1,.45,1.12,9,9,0,0,1,.21,1.36l.09,1.47c0,.75,0,1.52.07,2.32s0,1.58,0,2.36-.11,1.51-.21,2.19a11.27,11.27,0,0,1-.37,1.78l.14-.05v.14a.55.55,0,0,1,.37-.09c.19,0,.27.09.24.28s-.07.15-.19.26l-.14.12h-.14a.26.26,0,0,1-.14,0s0,0,0,0a.23.23,0,0,0-.12.16c0,.08-.09.13-.21.17s-.24.06-.26.09-.08.08-.21.14a.08.08,0,0,0-.09-.09v.09H123l-1.76.54a6,6,0,0,1-2.22.21,4.07,4.07,0,0,0,.14,1.12l.14-.05,0,.14a.45.45,0,0,1,.33.1c0,.09-.08.14-.14.14a.24.24,0,0,1-.19-.1l0,.14-.14,0c.19,1.12.35,2.16.49,3.11s.28,2,.4,3.2c1.28,0,2.53,0,3.74-.12a22.66,22.66,0,0,0,3.44-.47,12.67,12.67,0,0,0,2.9-1,6.11,6.11,0,0,0,2.12-1.7,8.5,8.5,0,0,0,.75-1.17,4.09,4.09,0,0,0,.47-1.36c.09-.4.18-.75.26-1a6.69,6.69,0,0,0,.16-1,13,13,0,0,0,.09-1.56V58.54a7.45,7.45,0,0,1,.05-.79.78.78,0,0,0-.28-.71.45.45,0,0,1-.54,0,1,1,0,0,1-.4-.35.54.54,0,0,0,.29,0,.47.47,0,0,1-.33-.09l-.05.14-.05-.14a1.78,1.78,0,0,1-.53-.19.8.8,0,0,1-.31-.23.82.82,0,0,1,0-.54.32.32,0,0,0-.23-.45.66.66,0,0,0,0-.3s0-.1.17-.16l0-.14.09,0c0-.28.12-.38.35-.3l.59.21c.12-.25.24-.37.35-.37s.32,0,.63,0l.09-.14.14.05V52.46l0-.09.14,0c0-.06,0-.1-.05-.11s0,0,.05-.07l-.05,0H134a.92.92,0,0,0,0-.54,1.59,1.59,0,0,1,0-.63l-.14,0,0-.14c-.1.06-.15.05-.17,0s-.07-.11-.16-.11c.06-.16.12-.18.16-.07s.1.16.17.16l0-.14.14,0a.2.2,0,0,1,.28-.17c.16,0,.18,0,.05-.16,0,0,0,0-.05.07s0,0,0-.07.09,0,.09,0,0,0,.09,0l0-.14,0-.1c0-.22,0-.33-.11-.33s-.18,0-.21-.09,0-.11.09-.14.08-.06,0-.09-.06.17-.09.14l-.14-.14c0,.18,0,.29-.14.32a.45.45,0,0,0-.16-.3c-.11-.11-.2-.12-.26,0s.11,0,.14,0,0,.09-.05.12l-.49-.19a.46.46,0,0,0-.49.14,1.92,1.92,0,0,0,0,.52.27.27,0,0,1-.17.28q-.18.09-.21,0c0-.07,0-.11-.11-.11a.47.47,0,0,1-.1.56c0-.13-.07-.19-.11-.19l-.14,0c-.05,0-.08,0-.1,0a.38.38,0,0,1,0-.16,1.07,1.07,0,0,0-.3.3.77.77,0,0,1-.36.26.15.15,0,0,1-.16-.12c0-.07-.07-.08-.16,0a1.29,1.29,0,0,0-.33.33v-.19L130,51l-.09-.14a1.45,1.45,0,0,1-.44-.45,2.14,2.14,0,0,1-.26-.77l-.14,0,0-.14a.67.67,0,0,0-.09-.47c-.09-.19-.06-.26.09-.23a1.83,1.83,0,0,1-.14-.45c0-.17.07-.3.28-.4a1.36,1.36,0,0,1,.19-.77,2.33,2.33,0,0,0,.33-.63q0,.09,0,.12s.08,0,.14,0l.16-.08.12,0c-.09,0-.11,0-.05-.16a.57.57,0,0,1,.19-.21.68.68,0,0,1,.21.21c.08.11.15.08.21-.07l-.19-.1-.23-.14a1.19,1.19,0,0,1,.33-.37.57.57,0,0,1,.51,0v.1l.14-.05.1.14a.93.93,0,0,0,.21-.35,2.21,2.21,0,0,1,.14-.37.66.66,0,0,1,.14-.24s.1,0,.16.12a.48.48,0,0,1,.16-.38l.31-.28a.19.19,0,0,1-.14-.21.3.3,0,0,0-.1-.25c.16.06.24,0,.24-.07s0-.18.09-.21.06.06.19,0a.82.82,0,0,0,.09.42c.06.09,0,.26-.05.51a.23.23,0,0,1,.15,0s.07,0,.14,0l.09-.05-.05.1h.1c.09.09.11.15.07.18a1.07,1.07,0,0,0-.17.15.72.72,0,0,0,.61.18,4.51,4.51,0,0,0-.4-1.8,4.88,4.88,0,0,1-.44-1.66l-.14.28a6,6,0,0,0-2.32-2.33,11.08,11.08,0,0,0-3.39-1.24,22.18,22.18,0,0,0-4.16-.45c-1.49,0-3,0-4.63,0,0,.28-.06.44-.18.47q0-.24-.12-.09c-.08.09-.15.07-.21,0s0-.25.12-.28.13-.08,0-.14h-.42c-.25,0-.37,0-.37-.14a.15.15,0,0,0,.21,0,.34.34,0,0,0,.16-.21.75.75,0,0,0-.14-.26,1.23,1.23,0,0,1-.19-.39c-.18.12-.3.12-.35,0a.35.35,0,0,0-.3-.24.49.49,0,0,1-.56.12.73.73,0,0,0-.56,0ZM91.16,55.36a.38.38,0,0,0,.09.28Zm2.75,14.82,0-.09a.84.84,0,0,0-.49-.68,1.06,1.06,0,0,1-.58-.58.78.78,0,0,1-.28.09.32.32,0,0,1-.19,0,1,1,0,0,0-.21-.07,1.19,1.19,0,0,0-.35,0,.37.37,0,0,0,.3.46l.49.14c0,.07,0,.15.07.26a.65.65,0,0,1,.12.4,1,1,0,0,1,.63.14,2.17,2.17,0,0,1,.58.42c.07-.06.08-.12,0-.16a.54.54,0,0,1,0-.26ZM92,68.45c0,.13.12.18.3.14l-.09-.35A.29.29,0,0,0,92,68,2.68,2.68,0,0,0,92,68.45ZM92,60a.47.47,0,0,0,0,.28Zm.38-5.24v-.23h-.24C92.12,54.74,92.2,54.82,92.42,54.75Zm.33-10.45a2.17,2.17,0,0,1-.52-.07.53.53,0,0,1,.38-.07l.6.07A.68.68,0,0,1,92.75,44.3Zm-.14,11a.11.11,0,0,1,.09,0,.14.14,0,0,0,.09-.05ZM93,41.8c-.13.07-.19.13-.19.19Zm-.19,13.37a.68.68,0,0,1,.09.47ZM95.46,39a4.86,4.86,0,0,0-1.26,0,4.93,4.93,0,0,1-1.27,0ZM93.17,55.83c-.13,0-.19.08-.19.23a.26.26,0,0,0,.09.19.13.13,0,0,1,.07-.12s.07-.05.07-.11L93.12,56Zm0,.14a.67.67,0,0,1,.28.05Zm.14-13.35s0,0,0-.12h.18v.24h-.28A.14.14,0,0,1,93.26,42.62Zm.14,18.31c0-.16.08-.22.23-.19s.08.14.05.14-.05.06-.05.19S93.4,61.08,93.4,60.93ZM94.2,70a.21.21,0,0,1-.15.11.46.46,0,0,0-.14.07Zm0,.14c.06.15.11.21.16.16s.13,0,.26,0v-.51h-.57V70h.15Zm1.4-29.69a.34.34,0,0,0-.1-.28,1,1,0,0,1-.14-.19Zm-.19.09s0,0,.07,0,0,0,.07,0Zm.09.09h.1v-.18l-.14-.1.09.1Zm.57,0a1.54,1.54,0,0,1-.47-.23Zm-.33,30a.3.3,0,0,0,0,.16.3.3,0,0,0,.24.1c.09,0,.15-.06.18-.19a.18.18,0,0,1-.18-.09.29.29,0,0,0-.15-.14A.29.29,0,0,1,95.74,70.72Zm.14-31.07c.15-.06.26-.08.33,0Zm.05,10.29c.12.15.22.19.3.09a1.33,1.33,0,0,0,.21-.33.3.3,0,0,1,0,.43,1.81,1.81,0,0,0-.28.32A.46.46,0,0,1,95.93,49.94ZM96,58.49a.42.42,0,0,0,.09-.14c.13,0,.17.1.12.19s-.15.13-.3.09A.85.85,0,0,1,96,58.49ZM96.72,40A.42.42,0,0,1,96.3,40a.27.27,0,0,1-.09-.37Zm0-.38a1.33,1.33,0,0,0-.28,0,.27.27,0,0,1-.23-.07Zm.09-.65a.27.27,0,0,1-.23.07,1.33,1.33,0,0,0-.28,0Zm0,.79c.25.1.37,0,.37-.23q0-.09-.33-.12c-.18,0-.26.06-.23.21h.14Zm.28,19-.14,0q0,.28-.24.24c0-.09,0-.14-.09-.14s0-.1.07-.1a.14.14,0,0,0,.12-.09h0l.1-.09.18,0v-.18c.19,0,.31,0,.35-.17s.17-.19.36-.16a1,1,0,0,0,.28-.35c.06-.14.21-.18.46-.12,0,0,.07.08.19.14,0,.25-.06.36-.19.33s-.17.05-.14.23a.76.76,0,0,0-.37,0,.48.48,0,0,0-.23.28c-.07,0-.07-.12,0-.28q-.33.15-.33.33t-.33,0Zm.6-20.24a2.27,2.27,0,0,0-.42,0c-.15,0-.18.1-.09.19a.44.44,0,0,0-.37-.05c-.19,0-.22.11-.1.24h.14v.14l.45.07a1.31,1.31,0,0,0,.49-.07v-.42l-.14,0Zm-.56,1.73-.18-.1s0-.05,0-.07a.18.18,0,0,0,0-.07l-.09,0Zm-.28,30.53c.1.09.19.11.28,0a.42.42,0,0,1,.33,0Zm.1-12.25a1.77,1.77,0,0,1,.14.23Zm1.35-19.92a.2.2,0,0,0-.3-.09,1,1,0,0,1-.35.09ZM98,50.59a.55.55,0,0,0,.26-.14c.15,0,.18.13.07.28a.38.38,0,0,1-.4.19C97.83,50.73,97.85,50.62,98,50.59Zm.3-11.92h-.14c.06.12.06.2,0,.21A.24.24,0,0,0,98,39a.41.41,0,0,0,.38.07.59.59,0,0,1,.37,0c-.06,0-.09-.1-.09-.32l-.14,0,0-.09h-.19Zm.52,0a.25.25,0,0,1-.12,0,.09.09,0,0,0-.07,0,.18.18,0,0,0,0,.07s0,0,0,.07Zm.6-.14c0-.19-.06-.28-.18-.28l-.1.19ZM99.43,71h.28v-.19h-.28Zm.42-32.82c.25,0,.38,0,.38,0s0,0-.14,0a.66.66,0,0,0-.28,0c-.1,0-.11.07,0,.16ZM100.13,70l0,.14a.45.45,0,0,0,.32-.09v-.33c-.12-.09-.27-.07-.44.07s-.21.27-.12.4c0-.13.06-.18.19-.14ZM100,57.28c-.1,0-.13-.13-.1-.28.25-.06.36,0,.33.23A.21.21,0,0,1,100,57.28ZM100.13,70a.08.08,0,0,1,0,.07s0,0,0,.12Zm.38-31.28c.06,0,.09,0,.09,0s0,0,.09,0a.46.46,0,0,1,0-.19c0-.06-.05-.08-.14-.05Zm.09.56h.14V39h-.14Zm.14,16c0,.13.05.26.07.4a.87.87,0,0,1-.07.44Zm1.17,17.51a1.24,1.24,0,0,0-.4-.16.61.61,0,0,0-.4,0,.35.35,0,0,0-.18.33,1.28,1.28,0,0,0,.58.07,2.51,2.51,0,0,1,.63,0A.51.51,0,0,0,101.91,72.73ZM101.19,51c0,.06.07.07.16,0s0-.16-.12-.21-.16,0-.16,0A.21.21,0,0,1,101.19,51Zm0,6.17a.33.33,0,0,0-.1.23Zm.33-6.59c0-.19-.1-.25-.28-.19Zm-.05-7.09v-.3q.09-.24.09,0v.33Q101.49,43.67,101.49,43.46Zm.09,13.68h.14V57h-.14Zm.12-6c-.11.1-.1.19,0,.28a.31.31,0,0,1,.21-.28c.14-.06.14-.14,0-.23A.81.81,0,0,1,101.7,51.15Zm.21-.32q-.09,0-.09,0s0,0-.1,0,0,.1,0,.12,0,.05,0,.11A.27.27,0,0,0,101.91,50.83Zm0-.17c.12.05.2,0,.23-.07s-.1,0-.11-.11-.09-.09-.21,0S101.78,50.62,101.91,50.66Zm0-11.38a.26.26,0,0,0,.09.14Zm.14,21a1.53,1.53,0,0,0-.14-.17c0-.12.06-.13.09,0s.08.15.14.12.1,0,.1-.1.07.07,0,.1-.05.08,0,.14A.23.23,0,0,1,102.05,60.25Zm0-8.35s0,0,0,.1a.58.58,0,0,0,.19,0c.06,0,.08-.07,0-.16h-.19C102.05,51.87,102,51.9,102,51.9Zm.21-.35s0,.06,0,.12h.23v-.24h-.14Q102.29,51.54,102.24,51.55Zm.32,5.78c-.21,0-.32,0-.32,0A.65.65,0,0,0,102.56,57.33Zm-.18,6c.09,0,.13,0,.11.14s-.07.15-.16.09v-.14S102.38,63.42,102.38,63.36Zm.32-12.25a.28.28,0,0,1-.23-.14c-.06-.1-.08-.17,0-.24Zm-.11,21.64c-.08,0-.09.13,0,.29.25,0,.39-.07.43-.19-.13,0-.17,0-.12-.14s0-.16-.17-.1C102.7,72.68,102.67,72.72,102.59,72.75Zm.07-22.34a.06.06,0,0,0,.09,0,.17.17,0,0,0,0-.12s0-.09-.14-.12Q102.62,50.36,102.66,50.41Zm.47-11c0,.09-.07.13-.19.09a.43.43,0,0,0-.28,0C102.72,39.34,102.88,39.31,103.13,39.37ZM102.75,56a.31.31,0,0,0,0,.17c.13.06.19,0,.19-.12s0-.21-.09-.21A.28.28,0,0,1,102.75,56Zm0,16.11H103c.06-.16,0-.23-.23-.23Zm.33-12.58q.18,0,.18-.09a.2.2,0,0,1-.14,0,.2.2,0,0,0-.14,0C103,59.46,103,59.52,103.13,59.52Zm0-2.48a.3.3,0,0,0,0-.16.3.3,0,0,1,0-.16Zm0,2s0,0-.1,0a.36.36,0,0,0,.33,0c.09,0,.09-.07,0-.07S103.13,58.94,103.13,59Zm0-8.82h.18V50h-.18Zm1.35-10.71a.76.76,0,0,1-.35,0l-.42-.05a.47.47,0,0,1-.26-.07q.09-.09.45,0a.85.85,0,0,0,.63,0C104.59,39.39,104.57,39.43,104.48,39.46Zm-.84,20.67c0,.25,0,.41-.14.47Zm0-10.1h.14v-.19h-.14Zm0,1.4h.18v-.18h-.18Zm.07,5.38s0,0-.07.09c.18,0,.28-.06.28-.18h-.19C103.78,56.78,103.77,56.81,103.76,56.81ZM106,65.13l.14.05-.09.09-.14,0c-.09.18-.09.31,0,.37a1.66,1.66,0,0,0,.31.14.09.09,0,0,0,0,.09s0,0-.07,0l0,.05.05,0v.18h-.19l-.09,0,0-.14a.27.27,0,0,0-.21.23c0,.13-.12.16-.3.1l0,.14-.14-.05c0,.16,0,.26.07.3a1,1,0,0,0,.28.12L106,67c.09,0,.12.13.09.28-.16,0-.2-.07-.14-.23-.09,0-.15,0-.16.12s-.07.08-.17,0a.33.33,0,0,1,.1.26.29.29,0,0,0,.14.26l0-.15.05.15c.06-.13.12-.15.16,0s0,.15-.11.19l0,.09,0,.09c.06,0,.1.12.11.26s0,.21-.11.21a.11.11,0,0,1-.12-.09c0-.07,0-.14,0-.21a.22.22,0,0,0-.09-.17.48.48,0,0,0-.3,0,2.46,2.46,0,0,0-.31-.79.67.67,0,0,1-.11-.61l-.14.05-.1-.14a.12.12,0,0,1-.16,0,.15.15,0,0,0-.17,0,.35.35,0,0,0,0-.37.55.55,0,0,1-.09-.29,1.06,1.06,0,0,1,.14-.37,2.38,2.38,0,0,0,.14-.23s0,0-.05,0,0,0,0,0c-.13-.13-.13-.39,0-.8l-.14,0,0-.14c-.12,0-.19,0-.21,0a.49.49,0,0,1,0-.22,2.29,2.29,0,0,0,.07-.28.55.55,0,0,0,0-.28c-.28,0-.42.19-.42.56-.12-.09-.18-.17-.16-.23s.05-.14.09-.23l.14-.28a.29.29,0,0,0-.07-.33,1.75,1.75,0,0,1,.4-.05,2.6,2.6,0,0,1,.4,0c.12,0,.2,0,.23,0s0-.12-.14-.28l-.14,0,0-.14c-.06,0-.08-.07,0-.21s.08-.2.14-.17l.1,0,.09,0v-.32h1c0,.31-.06.54-.07.67a1.8,1.8,0,0,0,.07.64q-.28-.19-.42,0c-.1.12-.07.25.09.37-.12.19-.25.19-.37,0a4.43,4.43,0,0,1,.3.89,1.82,1.82,0,0,0,.35.75Zm-2.19-3.83a2.35,2.35,0,0,0,.32-.28ZM104,61v.1l.18,0,0,.23v0l.14,0,0,.14c.13,0,.19,0,.19-.16a.94.94,0,0,1,0-.3c-.1,0-.14,0-.14-.12a.15.15,0,0,0-.1-.16c0,.12-.12.18-.28.18l0,.1Zm.28.28a.49.49,0,0,0,0,.19Zm0-3.55a.25.25,0,0,1,0,.19.57.57,0,0,0,0,.18Zm.19,6.59a.28.28,0,0,1-.09.19Zm.38-2.1a.46.46,0,0,0-.1.28.42.42,0,0,1-.14.28Zm-.12-1q-.17.21.21.21a.4.4,0,0,1,0-.37c.06-.13.06-.19,0-.19A1.14,1.14,0,0,1,104.74,61.18Zm.33-1.1c.07.07.14,0,.21-.14a.24.24,0,0,1-.31,0c-.08-.08-.11-.07-.11,0ZM105,64.39a8.62,8.62,0,0,0,0,1.14,6.29,6.29,0,0,1-.07,1.15Zm.23-5.76.68-.07a4.08,4.08,0,0,1,.68,0Zm.1,6.9a.25.25,0,0,0-.1.12.16.16,0,0,0,.24-.05c.06-.09,0-.15-.1-.19S105.31,65.52,105.28,65.53Zm0-6.08a.38.38,0,0,0,0-.11.6.6,0,0,0,0-.19c0-.06,0-.08-.07,0v.24C105.28,59.43,105.28,59.47,105.3,59.45Zm.07,1.24a.38.38,0,0,0,.07.24.23.23,0,0,1,0,.23.17.17,0,0,0-.09.16.46.46,0,0,1-.05.21Zm0,5.57a.39.39,0,0,1,0,.14.38.38,0,0,0,0,.14Zm0-16.13h.18v-.19h-.18Zm.35,7.69s0,0,.07,0a.57.57,0,0,0,0-.18c0-.07,0,0-.07,0A.43.43,0,0,0,105.77,57.82Zm0,5.07V63h.19C105.87,62.91,105.81,62.86,105.74,62.89Zm.1,6.19a.35.35,0,0,0,0-.25A.23.23,0,0,1,106,69a.25.25,0,0,1-.07.24C105.84,69.25,105.81,69.19,105.84,69.08Zm0-8.81a.2.2,0,0,1,0-.14l.09-.05a.22.22,0,0,0,.23.07.28.28,0,0,1,.24.07Zm0,7.29c0,.22.05.35.14.38ZM106,52.74s0,0,0,0a.31.31,0,0,1,.12.09s0,0,.11,0a.27.27,0,0,0-.18-.23Q106,52.74,106,52.74Zm.12,7.93c0-.05,0-.07-.09-.07a.52.52,0,0,1,0,.23.27.27,0,0,1,.19.12c.06.08.11.07.14,0a1.21,1.21,0,0,1-.28-.19C106,60.74,106.07,60.71,106.07,60.67Zm.14,5.26H106s0,.09,0,.28Zm-.14-.66a.18.18,0,0,1,0-.14Zm.12-12.85c-.11.09-.09.14.07.14,0-.07,0-.1,0-.12a.21.21,0,0,0,.1-.12.2.2,0,0,1-.14,0s-.06,0-.1,0C106.29,52.29,106.3,52.32,106.19,52.42Zm0,7.27c-.14,0-.13.1,0,.16,0-.06,0-.12.14-.19s.12-.11,0-.14S106.38,59.64,106.23,59.69Zm.36,1.8a1.35,1.35,0,0,0,.32-.1c.06,0,.11-.17.14-.42l-.14.05-.09-.09a.32.32,0,0,1-.19-.19l-.19,0,0-.19h-.09l-.1.09-.14,0a1.73,1.73,0,0,1,.17.39,1.1,1.1,0,0,0,.16.35l.14,0Zm-.15,2.66-.09.1-.09.16a1.28,1.28,0,0,0-.1.26.29.29,0,0,1,.07-.21.37.37,0,0,0,.07-.26v-.1l0-.09v-.23c.15,0,.2.08.14.23Zm-.14-3.46v-.23a.35.35,0,0,1,.1-.24Zm.14,3.46a.18.18,0,0,0-.14-.05Zm.1-4a.2.2,0,0,1-.14,0Zm-.1.61a.67.67,0,0,1,.38-.24Zm.19.56a.49.49,0,0,0-.11.14.32.32,0,0,1-.08.09Zm-.09-1.64a.15.15,0,0,1,0,.23.23.23,0,0,0,0,.24Zm.28.51a.66.66,0,0,1-.28,0Zm.28,0c0,.07-.13.07-.28,0Zm-.19.8.1-.23a.23.23,0,0,0-.05-.24Zm.38-.42a.22.22,0,0,1-.17-.07c0-.05-.1,0-.16,0Zm-.1.7c.1.06.16.05.19,0a.11.11,0,0,1-.12-.07.19.19,0,0,0-.11-.11A.14.14,0,0,0,107.19,61.3Zm.19-8.18c.06,0,.09,0,.09,0s0,.05.1.05a.41.41,0,0,1,0-.19c0-.06,0-.07-.14,0Zm.33-11a.26.26,0,0,0,.21.1c.08,0,.08,0,0,.14S107.71,42.3,107.71,42.08Zm0,18.61s0,.05.07.05a.15.15,0,0,0,.11-.07.13.13,0,0,0,0-.17C107.77,60.6,107.71,60.66,107.71,60.69Zm.18-5.44a.1.1,0,0,0,.1,0,.16.16,0,0,0,0-.12s0-.07-.14-.07S107.86,55.23,107.89,55.25Zm.94-22.14a1,1,0,0,1,0,.37c0,.13.1.22.28.28Zm.56,8.69,0,.14c0,.07,0,.1-.11.1a.5.5,0,0,1-.19,0c-.05,0-.07,0-.07,0s.08,0,.23,0l0-.18.09-.1a.66.66,0,0,1,.4-.61,1.36,1.36,0,0,0,.58-.42.33.33,0,0,0,.4,0,.49.49,0,0,1,.44,0,1.54,1.54,0,0,1-.84,1.13.82.82,0,0,1-.44-.14.35.35,0,0,0-.45,0Zm-.09-7.62a.77.77,0,0,0-.07.17l-.07.16Zm-.14,7.58a.53.53,0,0,0,.23,0Zm.37-7.13c0-.14-.06-.14-.19,0C109.47,34.77,109.53,34.77,109.53,34.63Zm-.19,7.78h.24v.19h-.24Zm.1-8c.06,0,.09,0,.09,0s.17,0,.14-.14S109.44,34.35,109.44,34.42Zm.84,27.49c-.06-.16-.16-.22-.3-.19a2.08,2.08,0,0,1-.4.05Zm-.47-27.54a.66.66,0,0,0-.19-.28Zm.28,8a.14.14,0,0,1,.12.05s.05,0,.12,0,0,.09-.07.07-.07,0-.07.07S110.09,42.57,110.09,42.41Zm.61-8.7a.08.08,0,0,0-.09-.09Zm0-.37c.13.06.19,0,.19-.12s-.06-.18-.19-.11Zm.8,28.52a.57.57,0,0,0-.21-.12.36.36,0,0,1-.21-.11.93.93,0,0,1-.24.09Zm-.61-17.58h.23c0,.13,0,.2-.07.21s-.11.06-.11.12S110.84,44.5,110.84,44.28Zm.09-9.86s0,0,0,0,0,0,0,0Zm.24.35a1,1,0,0,0,.23.11c0-.06-.06-.13-.19-.21s-.2-.08-.23,0Zm.28-.35a.72.72,0,0,0,0-.29.08.08,0,0,1-.07,0l-.07,0Zm.44,10.3a.7.7,0,0,1,0-.16c0-.09.06-.11.09-.05a.21.21,0,0,1,0,.19C111.93,44.76,111.91,44.77,111.89,44.72Zm.61-10.21c-.08,0-.12.11-.12.23s.16.08.19,0,0-.08-.09-.14C112.57,34.53,112.58,34.48,112.5,34.51Zm.77.33c.06.09.13.07.19-.05-.1,0-.16,0-.19-.16s-.08-.14-.14,0A1,1,0,0,1,113.27,34.84Zm.28.32a.13.13,0,0,0-.14-.14v0Zm.42-.46-.09.16a.3.3,0,0,0,0,.16Zm.14,2.8q-.18.09,0,.24Q114.31,37.41,114.11,37.5Zm.07-2.41c0,.08,0,.12.07.12a.29.29,0,0,1,0-.19s0-.07-.14-.14A.31.31,0,0,1,114.18,35.09Zm.19,24.78c-.08.14,0,.25.12.31-.07-.16,0-.24.07-.26s.14-.1.11-.26A.35.35,0,0,0,114.37,59.87Zm.12-.25a.2.2,0,0,0,.11-.07.53.53,0,0,0,.1-.14s0-.07-.12-.07v.09C114.49,59.55,114.46,59.62,114.49,59.62Zm.28.58c-.13.08-.11.12,0,.12s.07-.07.1,0,.06,0,.09,0-.06-.13-.19-.21-.14-.07,0,0S114.89,60.12,114.77,60.2ZM115,44.28v-.19a.15.15,0,0,0-.09-.14.49.49,0,0,0-.19.19c-.06.09,0,.17.09.23l0-.09Zm0-5.52a.71.71,0,0,0-.1.38c0,.15-.07.22-.23.18Zm-.19,21.84a.16.16,0,0,0,0,.19Zm0-16.32a.2.2,0,0,1,0,.14ZM115,60.53c0,.08,0,.07.07,0s.14,0,.14-.16,0-.15-.09,0Zm.36-23.73a.3.3,0,0,0-.19-.09l-.1,0Zm-.12,4.51q.17-.16-.12-.21Q115.1,41.48,115.26,41.31Zm-.07-2.24a.27.27,0,0,1,0,.16c.16,0,.19,0,.1-.09a.85.85,0,0,1-.19-.24A.31.31,0,0,0,115.19,39.07Zm0,23.21h.28v.19h-.28Zm.12-1.49a.25.25,0,0,0,.14,0s.06,0,0,0-.09-.08-.22-.14c0,0,.06,0,.08,0s0,0-.08,0S115.21,60.75,115.26,60.79Zm.44-.24c0,.06-.12.06-.28,0ZM115.94,44a.41.41,0,0,1-.19,0Zm.09-4.72-.07.09-.07.09Zm0-1a.28.28,0,0,0-.09.3.69.69,0,0,1,0,.35Zm-.09.65a.6.6,0,0,0,.09.33Zm.09,2.67a.15.15,0,0,0,0,.18.16.16,0,0,1,0,.19ZM116.4,61c.1-.09.07-.2-.09-.32C116.31,60.86,116.34,61,116.4,61Zm.12-.63c.11,0,.18,0,.21-.07s-.09,0-.09-.05,0,0-.1,0S116.41,60.29,116.52,60.34Zm.3.47s.05,0,.05-.07-.09-.05,0-.14c-.09-.06-.16,0-.21.07s0,.16.07.16,0-.09,0-.09A.08.08,0,0,0,116.82,60.81Zm.28.68a.93.93,0,0,1,.1-.42q-.09,0-.12,0a.19.19,0,0,0-.12-.11A1,1,0,0,0,117.1,61.49Zm.33,10s0,0,0-.07a.07.07,0,0,0,0-.07s-.08,0-.14.07S117.4,71.53,117.43,71.52Zm.14-9.33c.06.12.13.19.19.19Zm.75-16.55a.33.33,0,0,1-.14,0,.39.39,0,0,0-.14,0Zm.75,1.07.09,0q.28,0,.33-.09l0-.1,0,0c0-.16.06-.22.19-.19-.07-.16-.11-.26-.14-.31s0-.16,0-.35q-.22.1-.3,0a.31.31,0,0,0-.26-.09c0,.19-.08.3-.14.33a.53.53,0,0,1-.23,0,.87.87,0,0,0-.28,0c-.1,0-.19.14-.28.33.09,0,.12,0,.09.16a.38.38,0,0,0,0,.26.35.35,0,0,1,.42.09A.39.39,0,0,0,119,47c0-.09,0-.14,0-.14Zm-.8-1.92a.24.24,0,0,1,0-.23c.06-.09,0-.12-.14-.09C118.18,44.65,118.21,44.76,118.27,44.79Zm.28,19.5-.14,0v.18h-.14v-.18l0-.1.14,0c0-.1,0-.16,0-.19a.14.14,0,0,1,.14,0,.12.12,0,0,1,.09.09s0,.09-.11.12Zm0,0a.24.24,0,0,0-.16-.09.37.37,0,0,1-.16,0Zm-.18-1.4c.09,0,.14,0,.14.14l-.1.09S118.37,63.05,118.37,62.89Zm.09,1.92a2.71,2.71,0,0,1,.33.23Zm.47-19.87c-.06.15-.07.25,0,.3a.75.75,0,0,1,.11.3.85.85,0,0,0,.35-.23.42.42,0,0,0,0-.42q-.15-.09-.24,0l-.09.09Zm.14,19.63a.55.55,0,0,0-.19-.28Zm0-19.82a.26.26,0,0,0,0,.14.29.29,0,0,1,0,.09Zm.38,2.2a.37.37,0,0,0-.19-.12.24.24,0,0,1-.14-.12Zm-.1,16a.51.51,0,0,0,0,.42Zm0-15.8a.41.41,0,0,1,.05-.23Zm.28,14.4a.71.71,0,0,1-.28-.23l.05-.1Zm-.19-15a.33.33,0,0,1,.14.12,1.27,1.27,0,0,0,.1.12Zm.38.42s0-.09-.14-.18Zm0,25.81a0,0,0,0,0,0,0s0-.07.09-.21.06-.12-.09.07A.14.14,0,0,0,119.77,72.8Zm.44-28.15c.05,0,.09,0,.12,0-.12,0-.16,0-.12-.19s0-.2-.16-.14c.06.13.07.21,0,.26s0,.1.07.16S120.17,44.62,120.21,44.65ZM120.52,71l-.17,0-.16,0,.19.07C120.5,71,120.55,71,120.52,71Zm-.19.42c0,.14.08.13.14,0-.12,0-.13,0,0-.12s.08-.13-.07-.16A.31.31,0,0,0,120.33,71.42Zm.61-.35c-.06,0-.08.05,0,.14a.27.27,0,0,0,.24-.14Zm.51.24a.57.57,0,0,0-.14-.43A.48.48,0,0,0,121.45,71.31Zm.14-28.9c0,.06,0,.1,0,.12h-.1s0-.09,0-.21S121.59,42.35,121.59,42.41Zm.28,28.8a.27.27,0,0,0-.18-.23A.27.27,0,0,0,121.87,71.21Zm.14.24a.39.39,0,0,0-.28.14Zm.1.49c.09.07.15,0,.18-.07s-.14,0-.16,0a.19.19,0,0,0-.12-.11C122,71.79,122,71.86,122.11,71.94Zm0-6.64c-.06,0-.07-.09,0-.21a.35.35,0,0,0,.18.11c.07,0,.08.09,0,.21A.34.34,0,0,0,122.15,65.3Zm.26-19.64c0-.14-.08-.13-.21,0C122.36,45.81,122.43,45.8,122.41,45.66Zm-.07-2.5.1.19Zm.14,29c0,.11.08.09.14-.07-.06,0-.11,0-.16-.09s-.09-.08-.12,0S122.45,72.06,122.48,72.17Zm0-29.53s.11.14.24.33Zm.75.89c-.13,0-.2,0-.23,0Zm-.23.56a.41.41,0,0,0,0,.19Zm0,16.84a.32.32,0,0,1,.09.23Zm.46-17.4a1.3,1.3,0,0,1,.38.19ZM124,59.94l-.26.35a.92.92,0,0,1-.26.26Zm-.1-16.64a.36.36,0,0,0,0,.21.3.3,0,0,1,0,.21Zm.33.7-.19-.09-.18-.1Zm.61,6.31v-.18H125s0,0,.09,0a.56.56,0,0,1-.09.14.2.2,0,0,0,0,.14A.14.14,0,0,1,124.82,50.31Zm.82-8c-.08-.08,0-.13.16-.16C125.77,42.36,125.72,42.42,125.64,42.34ZM126,59.29s.1,0,.16.05,0,.23-.21.23-.27-.08-.21-.23A.54.54,0,0,0,126,59.29Zm.86-1.22,0,.14c.06.07.21.1.46.1q.1.22,0,.3a.52.52,0,0,0-.14.16.38.38,0,0,1-.25-.06.23.23,0,0,0-.17-.08.26.26,0,0,1,0-.18.2.2,0,0,0,0-.14h-.14l0-.1q-.09,0-.12,0a.19.19,0,0,1-.11.11c-.16,0-.25-.09-.28-.18l-.14-.38a.24.24,0,0,1,.21-.07c.07,0,.08,0,0-.16s.11.06.14.19.08.11.14,0c.06,0,.09.1.07.21s0,.18.07.21Zm0,0a.47.47,0,0,0,0,.14.13.13,0,0,1,0,.1Zm.09-1.07a.12.12,0,0,1,0-.19q.24,0,.21.12c0,.11,0,.15.12.11a.18.18,0,0,1-.12.12s0,0,.07.07l-.09.1h-.19Q127,57.09,126.92,57Zm.42-1.47c-.12,0-.12-.11,0-.26C127.47,55.46,127.47,55.54,127.34,55.53Zm1.87-6.2-.07.16a.37.37,0,0,1-.11.17Zm.66-4.68.09.05c0-.12,0-.12.14,0s.08.19,0,.19l0,.09-.14,0a.47.47,0,0,0,0,.25c0,.05,0,.1,0,.17s-.12-.06-.09-.17a.35.35,0,0,0,0-.25l-.09,0,0-.09c-.12,0-.16,0-.11-.19s.08-.15.11,0Zm-.09.33.07,0s0,0,.07,0Zm.09-.33a.72.72,0,0,1,0,.29Zm.23.33L130,45a.15.15,0,0,0-.09,0Zm0,5.52a1.73,1.73,0,0,1-.1.47Zm.28-2.71.09,0h0c.09-.12.07-.18-.07-.18s-.21,0-.21.09A.18.18,0,0,0,130.34,47.79Zm.09-1.08-.14.14,0,0Zm.23-1.42a.08.08,0,0,1,0-.07.14.14,0,0,0-.1,0c-.12-.06-.14-.11,0-.14a.18.18,0,0,1,.23.1C130.71,45.28,130.69,45.3,130.66,45.29Zm.19,17.23.09,0a.93.93,0,0,1,.24-.09l.14.05.14,0a.19.19,0,0,1,.12.07l.11.14s0,.06,0,0a2.2,2.2,0,0,1-.23-.21l-.14,0-.14,0a.23.23,0,0,1-.21.26.28.28,0,0,0-.26.25c-.12,0-.14-.07-.05-.14s.11-.12.05-.18l-.14,0,.05-.14a1.19,1.19,0,0,1-.1-.51,3.43,3.43,0,0,0,0-.56.85.85,0,0,1,.16.46.94.94,0,0,0,.16.47Zm-.21-18.12q0-.12.21-.12a.32.32,0,0,0-.09.23c0,.1-.08.13-.24.1A.33.33,0,0,0,130.64,44.4Zm0,2.36c-.09,0-.14.08-.14.14l.14.07s0,0,0-.07l.18-.14c.1-.06.1-.13,0-.19l-.09.1a.09.09,0,0,0-.05-.08s0,0,0,.08S130.76,46.73,130.66,46.76Zm.19,15.76c0,.09-.09.2-.28.32Zm0-16.06h.1s0-.06,0-.12,0-.1-.14-.1S130.77,46.44,130.8,46.46Zm.38-.08c-.06.16-.06.25,0,.29s0,0,0,0Zm.09-.65a.13.13,0,0,0,0,.07s0,0,0,.07Zm.14,15.8c0-.09.06-.18.1-.28s.15,0,.18,0a.2.2,0,0,0,.14,0,.51.51,0,0,1-.46.61A1.34,1.34,0,0,1,131.41,61.53Zm.33-7a.32.32,0,0,0,.33,0Zm.28.14c0,.15.08.2.23.14,0-.13,0-.2.05-.21s.08-.09,0-.21a.53.53,0,0,1-.31,0c-.14,0-.18,0-.11.18l.14,0ZM132,47s0,0,0,.14c.12.06.18,0,.18-.17s-.06-.22-.18-.16S131.94,47,132,47Zm.14-1.17h.14c.07-.1,0-.15-.09-.17s-.17,0-.14.07S132.11,45.71,132.11,45.78Zm.28,1a.48.48,0,0,1-.23-.28Zm.07,8.06c.18,0,.28-.1.31-.16l-.33-.07-.12,0s0,0,.17.14Q132.21,54.95,132.46,54.87Zm.07-8.25-.07.09a.46.46,0,0,1-.07.1Zm.19.19a1.1,1.1,0,0,1,0,.18.12.12,0,0,1-.12.1.42.42,0,0,0-.09-.14.56.56,0,0,1-.1-.14Zm-.16,4.46a.28.28,0,0,1-.12-.26.71.71,0,0,1,.33.42A1.16,1.16,0,0,0,132.56,51.27Zm.16-2.85c0-.17,0-.21-.05-.12a1.52,1.52,0,0,0-.09.26c0,.11,0,.19.19.26A1.4,1.4,0,0,1,132.72,48.42Zm.05-1.19c-.1-.1-.16-.07-.19.09.13,0,.19,0,.19.09s-.13,0,0,.1A.18.18,0,0,0,132.77,47.23Zm-.05,9.49a.39.39,0,0,1-.05-.14.33.33,0,0,0,0-.14Zm.07,3.43c.05,0,0,0,0-.07s-.14-.09-.05-.09a.2.2,0,0,1,.19.09c-.06.07-.08.12,0,.17a.47.47,0,0,1,0,.25c-.06,0-.1,0-.1-.14s0-.12-.14-.09A.28.28,0,0,1,132.79,60.15Zm.31-5.35a.29.29,0,0,0,.14,0l.16,0-.26,0C133.08,54.79,133.06,54.8,133.1,54.8Zm.11-6.47c0,.13.06.13.12,0,0,0-.06-.06-.07-.19s-.07-.1-.16,0C133.16,48.13,133.2,48.18,133.21,48.33Zm.21,7.64a.59.59,0,0,0-.09-.23c-.16,0-.23,0-.23.23s.07.25.23.19S133.45,56.09,133.42,56Zm-.25.77c.07.08.13.06.16-.07a.08.08,0,0,1-.09-.09.09.09,0,0,0-.1-.1A.19.19,0,0,0,133.17,56.74Zm0-12.23a.1.1,0,0,1,0,.07.09.09,0,0,0,0,.07Zm.12,4.26a.27.27,0,0,0,.11.28,1.59,1.59,0,0,0-.07-.44c0-.18-.11-.2-.21-.07A.2.2,0,0,1,133.31,48.77Zm.58-1.92c0-.18-.08-.28-.33-.28C133.56,46.76,133.67,46.85,133.89,46.85Zm-.33,1.36h.24V48c0-.06-.05-.08-.14-.05A.3.3,0,0,1,133.56,48.21Zm0,7.48h0Zm.25-5a.29.29,0,0,1,0,.33Zm.1-3.27c0-.16,0-.21,0-.14C133.92,47.48,133.91,47.52,133.94,47.37Zm0,5,.09,0,.09,0Zm.09-.28c.06,0,.09-.05.09-.14Zm.47-2.85-.05.14A1.74,1.74,0,0,1,135,49a2.58,2.58,0,0,1,.65-.12c0-.15,0-.26-.07-.32a.49.49,0,0,1-.16-.24.92.92,0,0,1-.61.35,1,1,0,0,0-.66.49.11.11,0,0,1,.12.1c0,.06.07.08.16,0Zm.09.89h0Zm-.14-7.58c-.09,0-.11.16,0,.37a.32.32,0,0,0,.43-.16c.09-.17.06-.29-.1-.35A1.22,1.22,0,0,1,134.45,42.55Zm.05,6.69c-.06.12-.08.2-.05.23Zm0,1a.41.41,0,0,0,.45,0,.53.53,0,0,0,.21-.47.19.19,0,0,1-.14-.19l-.42.09c-.13,0-.19.14-.19.33l.14.1Zm.1.25a.3.3,0,0,1,.05.14v.1s0,0,.09-.07-.06-.07,0-.19a.33.33,0,0,1-.16-.07c-.08,0-.14,0-.17.07S134.61,50.48,134.64,50.52Zm.07-3.22c0,.11.1.08.16-.07-.06,0-.11,0-.16-.12s-.1-.09-.17.07C134.61,47.15,134.66,47.19,134.71,47.3ZM134.54,51h.19v-.18h-.19Zm.43-3.46a.27.27,0,0,0-.19.05Zm0-.32v.18c.09.07.14,0,.16-.09s0-.17-.07-.14S135,47.26,135,47.23Zm.35,1,0,0c0-.09,0-.15-.16-.16s-.15,0,0,.07Zm-.12,2.39c-.09,0-.14,0-.14.12a.8.8,0,0,1,.23.09.74.74,0,0,0,.1-.23c0-.13,0-.19-.1-.19S135.29,50.55,135.2,50.57Zm0-3.13a.19.19,0,0,0-.11.11c0,.07.11.1.25.1s.15,0,0-.1-.18,0-.17,0l.07-.05a.46.46,0,0,0,.1-.07s0-.06-.1-.09A.11.11,0,0,1,135.22,47.44Zm.07.56a.09.09,0,0,0,.1,0,.15.15,0,0,0,0-.11s0-.06,0,0-.06.07-.07,0a.23.23,0,0,0-.12-.12C135.23,47.9,135.26,48,135.29,48Zm.17,2.13c-.05.09,0,.14.07.14a.15.15,0,0,1,0-.24c.1-.06.08-.09,0-.09A.94.94,0,0,1,135.46,50.13Zm.49.51a.15.15,0,0,0,.09.14.21.21,0,0,0,.07-.21c0-.08-.07-.12-.16-.12Zm0,.47a.3.3,0,0,1,.1-.07l.09-.07a.45.45,0,0,1,.12.21.35.35,0,0,0,.12.21Zm.61-1.83a.2.2,0,0,1,.05-.14.26.26,0,0,0,0-.18h-.33C136.31,49.21,136.38,49.32,136.6,49.28Zm.1-1.84c-.1,0-.13.08-.1.21a.55.55,0,0,1,.33.32q.09.24.33-.09a.47.47,0,0,1,0-.35.17.17,0,0,0-.05-.21.28.28,0,0,1-.16.14c-.08,0-.13,0-.16-.14q.18,0,0-.09C136.84,47.35,136.79,47.42,136.7,47.44Zm0,4.18a1.53,1.53,0,0,1,.17.14.35.35,0,0,0-.24-.33A.23.23,0,0,0,136.67,51.62Zm.94-4.81a.9.9,0,0,1-.12.18.27.27,0,0,0,.16,0,.31.31,0,0,1,.17-.05c.06-.13.06-.19,0-.21s-.1-.07-.1-.16a.41.41,0,0,0-.32.14c.06,0,.09,0,.09.07s0,.08.09.11C137.65,46.73,137.65,46.71,137.61,46.81Zm.11,1.07a.24.24,0,0,0-.21.14.39.39,0,0,0,0,.28q0,.15.42,0C137.88,48,137.82,47.88,137.72,47.88Z"/><path class="cls-2" d="M148.67,64.83a16.18,16.18,0,0,1-4.91-11.91,16.76,16.76,0,0,1,16.82-16.83,16.5,16.5,0,0,1,4.78.7,14.25,14.25,0,0,1,3.77,1.68,21.71,21.71,0,0,1,2.63,2,10.59,10.59,0,0,1,1.63,1.72l.53.7L171.57,45c-.1-.15-.23-.35-.42-.6A12.2,12.2,0,0,0,169.88,43a14.34,14.34,0,0,0-2.18-1.7A14.07,14.07,0,0,0,164.6,40a13.09,13.09,0,0,0-4-.61,12.8,12.8,0,0,0-9.47,3.9,13.2,13.2,0,0,0-3.86,9.66,13.24,13.24,0,0,0,3.86,9.66,12.8,12.8,0,0,0,9.47,3.9,14.82,14.82,0,0,0,3.75-.47,11.81,11.81,0,0,0,2.92-1.12,21.41,21.41,0,0,0,2-1.28,5.6,5.6,0,0,0,1.23-1.1l.39-.46V55.73h-7.49V52.46h11V63a6.71,6.71,0,0,1-.58.72c-.27.29-.83.83-1.7,1.6a19,19,0,0,1-2.8,2.08,18,18,0,0,1-8.71,2.35A16.18,16.18,0,0,1,148.67,64.83Z"/><path class="cls-2" d="M203.37,69.29H183V36.55h3.51V66h16.83Z"/><path class="cls-2" d="M228.37,60.18H212.93l-3.74,9.11h-3.75L219,36.55h3.26l13.56,32.74h-3.72ZM227,56.89l-6.3-15.43-6.32,15.43Z"/><path class="cls-2" d="M257.56,60.41a4.34,4.34,0,0,0-1-2.88A6.51,6.51,0,0,0,254,55.68a31,31,0,0,0-3.46-1.2c-1.26-.35-2.53-.75-3.79-1.19a18.29,18.29,0,0,1-3.46-1.58,7.3,7.3,0,0,1-2.55-2.65,8.53,8.53,0,0,1,1.92-10.38,11.07,11.07,0,0,1,7.63-2.59,12.56,12.56,0,0,1,3.39.45,11.52,11.52,0,0,1,2.68,1.05,19.4,19.4,0,0,1,1.92,1.21,7,7,0,0,1,1.21,1l.39.45-2.36,2.35c-.06-.09-.15-.2-.27-.35a8.78,8.78,0,0,0-.87-.78,11.3,11.3,0,0,0-1.45-1,8.74,8.74,0,0,0-2-.8,9.84,9.84,0,0,0-2.61-.35A7.61,7.61,0,0,0,245.2,41a5.07,5.07,0,0,0-1.9,4,4.34,4.34,0,0,0,1,2.88,6.48,6.48,0,0,0,2.55,1.85,31.14,31.14,0,0,0,3.47,1.2c1.27.36,2.53.75,3.78,1.18a19.27,19.27,0,0,1,3.46,1.59,7.22,7.22,0,0,1,2.56,2.64,8.11,8.11,0,0,1,1,4.1,8.56,8.56,0,0,1-2.92,6.74q-2.93,2.59-8.08,2.59a15.33,15.33,0,0,1-4-.51A13.18,13.18,0,0,1,243,68a17.06,17.06,0,0,1-2.15-1.43,6.56,6.56,0,0,1-1.3-1.23l-.43-.53,2.14-2.37q.09.13.33.42a12.39,12.39,0,0,0,1,1,10.87,10.87,0,0,0,1.72,1.21,13.23,13.23,0,0,0,5.75,1.4,8.21,8.21,0,0,0,5.54-1.68A5.5,5.5,0,0,0,257.56,60.41Z"/><path class="cls-2" d="M284,60.41a4.39,4.39,0,0,0-1-2.88,6.62,6.62,0,0,0-2.55-1.85,29.6,29.6,0,0,0-3.46-1.2c-1.26-.35-2.52-.75-3.79-1.19a18.58,18.58,0,0,1-3.46-1.58,7.2,7.2,0,0,1-2.54-2.65,8,8,0,0,1-1-4.09,8.12,8.12,0,0,1,2.9-6.29,11,11,0,0,1,7.62-2.59,12.5,12.5,0,0,1,3.39.45,11.17,11.17,0,0,1,2.68,1.05,18.29,18.29,0,0,1,1.92,1.21,6.66,6.66,0,0,1,1.21,1l.39.45L284,42.64a3.81,3.81,0,0,0-.28-.35,9.54,9.54,0,0,0-.86-.78,12,12,0,0,0-1.45-1,8.92,8.92,0,0,0-2-.8,10,10,0,0,0-2.62-.35A7.6,7.6,0,0,0,271.62,41a5.08,5.08,0,0,0-1.91,4,4.39,4.39,0,0,0,1,2.88,6.59,6.59,0,0,0,2.56,1.85,31.14,31.14,0,0,0,3.47,1.2c1.26.36,2.52.75,3.78,1.18A19.6,19.6,0,0,1,284,53.67a7.11,7.11,0,0,1,2.55,2.64,8,8,0,0,1,1,4.1,8.56,8.56,0,0,1-2.92,6.74q-2.93,2.59-8.08,2.59a15.25,15.25,0,0,1-4-.51A13.28,13.28,0,0,1,269.39,68a17.82,17.82,0,0,1-2.15-1.43,6.86,6.86,0,0,1-1.3-1.23l-.43-.53,2.15-2.37q.09.13.33.42a10.93,10.93,0,0,0,1,1,10.43,10.43,0,0,0,1.72,1.21,13.23,13.23,0,0,0,5.74,1.4A8.24,8.24,0,0,0,282,64.8,5.54,5.54,0,0,0,284,60.41Z"/></svg>