<?xml version="1.0" encoding="UTF-8" standalone="no"?>
<svg
   xmlns:dc="http://purl.org/dc/elements/1.1/"
   xmlns:cc="http://creativecommons.org/ns#"
   xmlns:rdf="http://www.w3.org/1999/02/22-rdf-syntax-ns#"
   xmlns:svg="http://www.w3.org/2000/svg"
   xmlns="http://www.w3.org/2000/svg"
   xmlns:sodipodi="http://sodipodi.sourceforge.net/DTD/sodipodi-0.dtd"
   xmlns:inkscape="http://www.inkscape.org/namespaces/inkscape"
   id="Слой_1"
   data-name="Слой 1"
   viewBox="0 0 800.854 197.17001"
   version="1.1"
   sodipodi:docname="evoglass_evolution.svg"
   width="800.854"
   height="197.17001"
   inkscape:version="0.92.4 (5da689c313, 2019-01-14)">
  <metadata
     id="metadata55">
    <rdf:RDF>
      <cc:Work
         rdf:about="">
        <dc:format>image/svg+xml</dc:format>
        <dc:type
           rdf:resource="http://purl.org/dc/dcmitype/StillImage" />
        <dc:title>Evoglass</dc:title>
      </cc:Work>
    </rdf:RDF>
  </metadata>
  <sodipodi:namedview
     pagecolor="#ffffff"
     bordercolor="#666666"
     borderopacity="1"
     objecttolerance="10"
     gridtolerance="10"
     guidetolerance="10"
     inkscape:pageopacity="0"
     inkscape:pageshadow="2"
     inkscape:window-width="1366"
     inkscape:window-height="746"
     id="namedview53"
     showgrid="false"
     borderlayer="false"
     fit-margin-top="0"
     fit-margin-left="0"
     fit-margin-right="0"
     fit-margin-bottom="0"
     inkscape:zoom="1.1009091"
     inkscape:cx="395.40398"
     inkscape:cy="96.080008"
     inkscape:window-x="-8"
     inkscape:window-y="-8"
     inkscape:window-maximized="1"
     inkscape:current-layer="Слой_1" />
  <defs
     id="defs12">
    <style
       id="style10">.cls-1{fill:none;stroke:#000;stroke-miterlimit:10;stroke-width:3px;}</style>
  </defs>
  <title
     id="title14">Evoglass</title>
  <path
     d="m 419.58398,193.29994 a 3.61,3.61 0 0 1 0.3,-0.25 4,4 0 0 0 -0.34,0.38 0.5,0.5 0 0 1 0.04,-0.13 z"
     id="path16"
     inkscape:connector-curvature="0" />
  <path
     d="m 69.513982,135.41994 c 0.68,-1.07 0.78,-2.39 -1.38,-3.51 1.05,-1 1.81,-2 -0.29,-1.64 a 8.69,8.69 0 0 0 -6.34,-6.12 18.94,18.94 0 0 0 -12,0.79 1.31,1.31 0 0 0 -0.25,0 h -1 -0.47 -0.12 l -0.57,0.06 h -0.11 l -0.67,0.08 h -0.09 l -0.79,0.11 h -0.03 c -7.15,1.06 -21.67,4.53 -30.06,10.07 -10.8999996,7.2 -9.8099996,11.07 -11.6299996,13.74 -1.82,2.67 -4.84,7.08 0.85,15.32 5.6899996,8.24 8.3599996,10.6 8.1699996,11.38 -0.19,0.78 -13.36999957,7.3 -12.70999957,14.84 0,0.1 0,0.21 0,0.32 a 0.29,0.29 0 0 1 0,0.09 2.76,2.76 0 0 0 0.08,0.27 c 0,0 0,0 0,0.05 v 0 c 0.45,1.25 1.99999997,2.51 7.34999997,2 a 52.81,52.81 0 0 1 11.8599996,0.12 c 0.6,0.08 0.73,-0.46 0,-0.92 1.42,0.23 2,-0.13 1.26,-0.65 0.64,0 1.48,-0.73 -0.53,-1.45 1.26,-0.24 -0.54,-1.83 -9.87,-0.89 v 0 a 26,26 0 0 0 2.27,-2.09 v 0 c 0.12,-0.11 0.24,-0.24 0.36,-0.37 l 0.08,-0.07 0.36,-0.39 a 0.3,0.3 0 0 0 0.08,-0.08 c 0.37,-0.4 0.77,-0.84 1.18,-1.32 l 0.19,-0.22 0.31,-0.38 a 3.88,3.88 0 0 0 0.26,-0.31 c 0.1,-0.12 0.2,-0.23 0.29,-0.36 0.09,-0.13 0.22,-0.26 0.32,-0.4 l 0.26,-0.32 0.58,-0.77 c 3.51,-4.73 6.42,-5.51 5.82,-7.27 -0.22,-0.63 -0.47,-3.61 -1.23,-7.35 1.9,2.86 7.55,5.78 7.67,6.48 0.12,0.7 -3.75,7.19 -5.2,11 -1.45,3.81 -2.36,4.18 2.54,4.22 4.9,0.04 13.44,1.23 13.39,0 0,-0.25 -0.37,-0.46 -1,-0.64 1.52,-0.5 -1.93,-1.29 -5.39,-0.79 -1.42,-0.11 -2.51,-0.15 -2.51,-0.15 3.18,-4.37 2.72,-10.73 3.18,-11.18 1.54,-1.54 1,-2.45 0.45,-4.45 -0.55,-2 -0.45,-8.44 -6.8,-13.8 4.31,-0.34 9.09,-1.46 12,-4.37 0,0.1 0,0.2 0,0.3 v 0 a 0.13,0.13 0 0 0 0,0.06 v 0.45 c 0,0 0,0.09 0,0.13 0,0.04 0,0.28 0,0.39 v 0.09 a 2.82,2.82 0 0 0 0,0.31 c 0,0 0,0 0,0.05 a 1.06,1.06 0 0 0 0,0.22 c 0.37,1.27 2.73,1.91 2.73,1.91 9.44,15.81 8.62,25.43 8.62,25.43 a 13.11,13.11 0 0 0 -3.11,2.63 c 0,-0.09 0.59,-1.46 0.3,-1.89 -0.29,-0.43 -1.94,2.51 -1.94,2.51 a 10.75,10.75 0 0 0 0,-2.42 c -0.18,-0.37 -0.9,0.41 -1.18,2.41 0,-0.59 0,-1.11 -0.33,-1.15 -0.82,-0.09 -2.18,4.19 -0.63,5.27 1.39,1 6.93,-2.25 9,-3.56 0.22,-0.14 0.4,-0.25 0.53,-0.35 a 6,6 0 0 0 2.78,-3.7 0.24,0.24 0 0 0 0,-0.09 0.83,0.83 0 0 1 0,-0.17 v 0.17 a 2.63,2.63 0 0 0 1.05,2.33 c 1.39,1.2 1.57,2.18 0.54,2.49 l -0.59,0.17 h -0.78 c 0,-0.05 -0.21,-0.82 0.78,-1.68 0.73,-0.64 -1.75,0.3 -2.53,1.54 -0.44,0 -0.91,-0.1 -1.49,-0.14 h -0.24 c -1,0 1.53,1.07 1.53,1.07 a 3.49,3.49 0 0 0 -1.26,0.64 c -0.55,0.62 7.44,0.24 8.65,-0.31 1.21,-0.55 0.19,-2.3 -0.36,-4.61 -0.55,-2.31 -0.24,-2.42 0.25,-9 0.49,-6.58 -0.55,-10.51 -2.01,-16.69 -1.46,-6.18 0,-7.75 1.08,-10.9 v 0 a 8.6,8.6 0 0 0 2.51,-0.18 5.45,5.45 0 0 0 4,-2.76 c 0,0 2.54,-1.1 1,-1.74 a 5.37,5.37 0 0 0 -1.1,-5.9 7.49,7.49 0 0 0 2.08,-2.01 z"
     id="path18"
     inkscape:connector-curvature="0" />
  <path
     d="m 318.53398,187.68 c -6,-0.7 -5.2,-1.67 -6.07,-5.32 -0.87,-3.65 -0.1,-10.61 -3.27,-19.37 0,0 0.09,-3.38 -1.06,-5.11 -1,-1.54 1.06,-8.12 -6.58,-24.43 v 0 a 26.31,26.31 0 0 0 4.36,-10.76 0.2,0.2 0 0 0 0,-0.07 c 0.1,-0.61 0.18,-1.25 0.26,-1.92 a 15.16,15.16 0 0 1 1.15,-4.67 c 0,0 2,4.54 1.63,6.72 -1,5.87 4.16,14 4.16,14 -1.11,3.49 -1.46,4.19 0,6.41 a 7.73,7.73 0 0 1 1,2.33 c -2.43,-0.81 -3.11,0.18 0.28,1.14 a 0.84,0.84 0 0 0 0.13,0.31 4.63,4.63 0 0 1 0.46,-0.31 c -0.22,0.35 -0.36,0.42 -0.46,0.31 -1.79,1.3 -3,3.58 1.42,0.66 a 10.35,10.35 0 0 1 -1,1.91 c -0.74,1.1 1.3,0.08 2.53,-1.91 h 0.07 c 0,1.74 0,3.16 0.52,2.53 3.47,-3.93 -0.28,-12.34 -0.28,-12.34 0,-13.64 -3.7,-17.13 -3.7,-17.13 1.41,-12.38 0,-16.21001 0,-16.21001 0.86,-4.830041 0.31,-8.080041 -1.06,-10.090041 v 0 a 5.73,5.73 0 0 0 -1,-1.16 v 0 q 0.39,0.15 0.78,0.27 a 3.61,3.61 0 0 0 0.33,0.35 2.66,2.66 0 0 0 2,0.75 3.32,3.32 0 0 0 2,-1 l 0.31,-0.33 a 4,4 0 0 0 1.9,-2.78 c 0.41,-1.14 1,-1.47 0.92,-1.92 0,-0.29 -0.19,-0.39 -0.92,-0.2 -0.08,-0.47 -0.38,-1.43 -0.52,-1.88 0,0 2.36,-0.87 0.6,-2.12 -1.76,-1.25 -2.2,-2.15 -0.76,-2.61 a 1.5,1.5 0 0 0 0.55,-0.28 c 0.88,-0.66 0.27,-1.89 -1.41,-2.23 a 15.08,15.08 0 0 0 -0.91,-1.94 2.13,2.13 0 0 0 0,-0.66 1.44,1.44 0 0 1 0.71,0.05 2.7,2.7 0 0 1 1.58,1.67 2.8,2.8 0 0 0 -1.48,-1.93 1.59,1.59 0 0 0 -0.89,-0.15 c 0,0 0,0 0,0 a 4.79,4.79 0 0 0 -0.06,-1.65 8.42,8.42 0 0 0 -1.67,-3.42 8.32,8.32 0 0 1 1.4,3.47 6.33,6.33 0 0 1 0,0.87 l -0.2,-0.34 a 6.14,6.14 0 0 0 -3,-4 4.82,4.82 0 0 0 -3.12,-0.6 l -0.28,0.06 a 3,3 0 0 0 -1.62,-1 3.81,3.81 0 0 0 -2.59,0.51 6.87,6.87 0 0 0 -1.94,1.61 4.82,4.82 0 0 0 -0.7,0.26 10.3,10.3 0 0 0 -2.1,1.3 10.69,10.69 0 0 0 -3.17,3.76 9,9 0 0 0 -0.66,1.82 c -0.11,0.2 -0.24,0.39 -0.35,0.6 a 7.86,7.86 0 0 0 -0.9,3 5,5 0 0 0 0.24,2 c 0,0.14 -0.05,0.28 -0.07,0.42 a 24.05,24.05 0 0 1 -1.62,2.1 c -5.8,-1.78 -10.31,6.41 -10.28,9.8 a 27.78,27.78 0 0 0 -6,11.850051 c -0.57,2.25 -2,3.42 -1.46,4.52 0.54,1.1 -3,6.21 -1.66,13.62 1.34,7.41 1.07,7.64 -0.21,10.72 -1.28,3.08 -2.4,4.38 -2,6.25 0.4,1.87 1.26,5.55 1.39,1.82 a 8.44,8.44 0 0 0 1.17,2.87 c 0,0 0,0 0,0 0.44,1.88 0.76,0.33 1.23,-1.93 -0.24,1.83 0.26,3.11 0.78,2 0.65,-1.34 -0.22,-1.71 1.72,-4.5 -0.25,2.51 2.52,2.67 1.83,1.13 -0.69,-1.54 0.41,-3.25 0.26,-5.37 v -0.07 a 25.69,25.69 0 0 1 0.85,-9.51 c 2.34,-9 0.38,-12.54 3,-15.84 1.31,-1.65 2.47,-3.18 3.49,-4.55 0,0.34 0,0.69 -0.05,1 -0.67,11.4 -5,13.62 -4.91,19.69 a 7,7 0 0 0 1.73,4.8 v 0 c -0.39,8.36 -0.37,17.15 -0.56,19 -0.19,1.85 -0.1,4.05 -4.92,7.49 -4.82,3.44 -6,13.33 -8,17.36 -2,4.03 -4.82,6.08 -1.93,7.52 2.89,1.44 5.88,4.63 11.27,4.92 5.39,0.29 6.94,-1.25 4.43,-1.74 -2.51,-0.49 -9.43,-5.39 -8.17,-7.31 6.65,-10.05 9.14,-15.52 11.26,-17.54 a 7.29,7.29 0 0 0 2,-5.12 c 0.1,-0.49 3,-3.07 4.74,-7.13 v 0 c 1.55,2.32 3.05,3.76 4.7,6.37 1.35,2.12 -1.54,5.49 2,13.39 3.54,7.9 7.89,14.3 8.57,17.94 0.68,3.64 2.4,3.16 6,2.1 3.6,-1.06 8.57,-2.77 10.12,-4.13 1.55,-1.36 -2.29,-0.05 -8.26,-0.77 z m -21.38,-105.890051 a 8.78,8.78 0 0 1 0.56,-3.26 l 0.12,-0.18 a 7.41,7.41 0 0 1 1,-1.15 9.57,9.57 0 0 1 1.1,-0.87 24.44,24.44 0 0 0 -1.42,2.93 c -0.28,0.69 -0.54,1.29 -0.77,1.83 -0.19,0.28 -0.38,0.55 -0.56,0.84 -0.02,-0.05 -0.03,-0.1 -0.03,-0.14 z m 18,12.5 a 2.5,2.5 0 0 1 -1.91,-0.57 l -0.18,-0.18 a 6.45,6.45 0 0 0 3.34,0.2 2.66,2.66 0 0 1 -1.29,0.55 z m -4.95,-23.43 a 4.35,4.35 0 0 1 2.79,0.8 5.55,5.55 0 0 1 1.59,1.68 10.66,10.66 0 0 0 -4.48,-2.42 v 0 z m -4.4,-0.45 a 3.52,3.52 0 0 1 2.37,-0.35 2.39,2.39 0 0 1 1.14,0.73 8.29,8.29 0 0 0 -4.6,0.82 4.3,4.3 0 0 0 -0.72,0.1 6.76,6.76 0 0 1 1.77,-1.3 z m -4.4,3.61 0.33,-0.21 a 12.68,12.68 0 0 0 -0.86,1.06 v 0 a 22.8,22.8 0 0 1 -2.21,2 10.29,10.29 0 0 1 2.74,-2.85 z m -5.38,8.48 a 7.49,7.49 0 0 1 1,-2.76 9.45,9.45 0 0 0 -0.07,2.06 c 0,0.16 0,0.32 0.07,0.49 a 7.87,7.87 0 0 0 -0.78,1.87 c 0,0.07 0,0.13 -0.05,0.2 a 5.07,5.07 0 0 1 -0.2,-1.86 z"
     id="path20"
     inkscape:connector-curvature="0" />
  <path
     d="m 457.12398,190.34 c -6.29,2.81 -13.09,4.13 -13.76,2.12 -0.67,-2.01 -0.42,-6.42 -1.59,-9.54 -7.57,-20.16 -0.41,-23.57 -0.65,-26 -0.21,-2.21 -5.32,-8.07 -8.86,-14.75 -0.86,6.92 -1.86,12.16 -1.45,13.92 0.66,2.82 -0.89,3.36 -3.56,6.11 -2.67,2.75 -16.85,19.6 -17.23,22.4 -0.38,2.8 10.8,6.64 11.17,7.14 0.37,0.5 -2.87,1.29 -5.52,1.18 -2.65,-0.11 -13.16,-1.69 -14,-2.9 -1.81,-2.61 2,-3.12 6.63,-16.3 4.63,-13.18 12.44,-17.83 12.1,-19.18 -2.62,-11 0.26,-17.81 -3,-23.84 a 14.38,14.38 0 0 1 0.38,-14.74 q 0.2,-0.3 0.39,-0.57 c 0.9,-3.58 0.74,-10.29 0,-17.870051 -0.07,-0.72 -0.15,-1.41 -0.23,-2.08 -1.26,2.19 -2.87,4.910031 -4.82,8.000041 -2.53,4.00001 0.08,7.70001 -1.48,18.08001 -1,6.52 0,8.82 0.17,10.74 0,0 0,0.05 0,0.08 0.4,2.36 -0.6,4.44 0.33,6.05 0.81,1.4 -1.34,1.7 -2,0 -0.38,1.41 -1,2.64 -2.09,0.86 -0.39,2 -2.37,1.79 -2.82,0.35 -0.81,1 -2.06,-0.34 -2.19,-0.83 -0.94,0.43 -1.57,-0.58 -1.35,-2.72 a 16.11,16.11 0 0 1 3,-6.44 c 1.07,-3.6 1,-3 -1.38,-11.13 -2.38,-8.13 0.95,-14.25001 0.25,-15.44001 -0.7,-1.19001 0.74,-2.65001 1.11,-5.220041 a 31.37,31.37 0 0 1 5.32,-14 c -0.42,-3.72 3.49,-13.09 10,-12.24 l 0.21,-0.1 a 4.4,4.4 0 0 1 -0.76,-1 7.74,7.74 0 0 1 -0.89,-3.78 8.36,8.36 0 0 1 0.92,-3.84 c 0.11,-0.21 0.22,-0.41 0.34,-0.61 0.07,-0.59 0.15,-1.18 0.27,-1.77 a 8.81,8.81 0 0 0 -1.4,4.67 9.6,9.6 0 0 1 1.59,-5.57 v 0 a 20.32,20.32 0 0 1 1.39,-3.92 18.18,18.18 0 0 1 2.88,-4.3 l 0.12,-0.12 a 7,7 0 0 1 1.7,-1.92 c 0.29,-0.19 0.58,-0.37 0.88,-0.54 a 6.37,6.37 0 0 1 0.57,-0.59 8.51,8.51 0 0 1 2.94,-1.63 8.66,8.66 0 0 1 3.31,-0.43 5.32,5.32 0 0 1 0.8,0.12 7,7 0 0 1 1.11,-0.3 6.49,6.49 0 0 1 4.44,0.84 5.28,5.28 0 0 1 1.76,1.61 3,3 0 0 1 0.26,0.47 3.93,3.93 0 0 1 0.88,1 3.57,3.57 0 0 1 1.79,1.22 6.59,6.59 0 0 1 1.2,2.34 7.63,7.63 0 0 1 0.3,2.32 c 0,0.07 0.09,0.15 0.14,0.23 0.2,0.41 0.3,0.75 0,1.09 a 1.88,1.88 0 0 1 -0.25,0.76 c -0.86,1.47 0.23,2.88 2.4,4 0.81,0.41 0.76,1.32 -0.43,1.94 -0.83,0.43 0.47,1 0.87,3 a 0.64,0.64 0 0 1 0.29,0.36 c 0.15,0.48 -0.43,0.94 -0.69,2.29 a 4.54,4.54 0 0 1 -1.79,3.57 5,5 0 0 1 -0.54,0.35 4.92,4.92 0 0 1 -1.78,1.2 3.8,3.8 0 0 1 -2.08,0.22 4.48,4.48 0 0 1 -0.74,0.41 2.21,2.21 0 0 1 -1.21,0.18 2,2 0 0 0 1.13,-0.33 4.2,4.2 0 0 0 0.49,-0.33 3.49,3.49 0 0 1 -1.37,-0.73 5.16,5.16 0 0 1 -1.64,0.13 5.34,5.34 0 0 1 -0.8,-0.13 c 0.58,1.06 1.33,2.2 2.11,3.41 0.17,0.1 0.34,0.19 0.51,0.31 2.52,1.59 4.23,5.23 4.06,11.72 0,0 2.12,3.88 2.6,17.360051 0,0 4.49,3.15 6.72,17.76 0,0 5.38,8.42 2.29,13.19 -0.49,0.76 -0.66,-0.78 -1,-2.64 h -0.08 c -1,2.34 -3,3.76 -2.4,2.46 a 11,11 0 0 0 0.72,-2.2 c -4.22,3.83 -3.34,1.2 -1.63,-0.48 0.13,0.1 0.26,0 0.45,-0.4 a 5.6,5.6 0 0 0 -0.45,0.4 1.2,1.2 0 0 1 -0.19,-0.3 c -3.78,-0.49 -3.21,-1.66 -0.48,-1.19 a 8.14,8.14 0 0 0 -1.42,-2.34 c -1.92,-2.14 -1.66,-2.95 -1,-6.87 0,0 -6.87,-7.87 -6.71,-14.33 0.07,-2.4 -2.82,-6.94001 -2.82,-6.94001 -0.08,-0.16 -0.15,-0.33 -0.22,-0.49 a 20.83,20.83 0 0 0 0,2.91001 c 0,0.65 0.06,1.26 0.07,1.83 0.13,5 -0.41,7.28 -2.37,11.88 7.7,13.51 11.94,35 11.94,35 a 8.1,8.1 0 0 1 -0.14,6 c -0.61,11.58 -1,21.92 0.11,23.93 1.11,2.01 0.84,3 5.24,2.71 4.4,-0.29 6.22,-1.69 6.67,-0.43 0.45,1.26 -2.45,3.4 -4.06,4.12 z m -22.15,-143.560051 q 0.66,0 1.29,0 l -0.43,-0.2 a 6.54,6.54 0 0 0 -0.86,0.2 z m 5.77,26.77 a 20.81,20.81 0 0 1 -2.79,-0.94 9.75,9.75 0 0 0 0.49,1 6.23,6.23 0 0 0 1,0.09 5.05,5.05 0 0 0 1.3,-0.15 z m 1.86,1 0.31,-0.28 c 0.1,-0.1 0.19,-0.21 0.28,-0.32 a 9.31,9.31 0 0 1 -1.53,-0.2 2.68,2.68 0 0 1 -0.52,0.18 3.44,3.44 0 0 0 1.46,0.63 z m 2.87,-0.77 a 7.14,7.14 0 0 1 -1.76,0.2 7.43,7.43 0 0 1 -0.59,0.53 l -0.1,0.07 a 3.55,3.55 0 0 0 1.73,-0.36 4.48,4.48 0 0 0 0.72,-0.43 z m -1.92,-23.36 a 1.52,1.52 0 0 1 -0.23,1.41 15.68,15.68 0 0 0 2.64,3.4 1,1 0 0 1 0.63,0.47 7.69,7.69 0 0 0 -0.45,-2.23 6.2,6.2 0 0 0 -1.29,-2.17 3.17,3.17 0 0 0 -1.3,-0.87 z m -7.62,-3.84 a 3.42,3.42 0 0 1 0.42,0.23 15.71,15.71 0 0 1 3.2,0.53 5.62,5.62 0 0 0 -3.48,-0.79 z m -7.22,1.51 a 16.29,16.29 0 0 1 4.8,-1.17 8.66,8.66 0 0 1 1.14,-0.57 l -0.58,-0.05 a 8.47,8.47 0 0 0 -3.19,0.58 8,8 0 0 0 -2.17,1.21 z m -7.56,10.24 c 0.26,-0.36 0.53,-0.71 0.82,-1 0.23,-0.7 0.46,-1.36 0.71,-2 -0.14,0.23 -0.29,0.45 -0.42,0.68 a 20.31,20.31 0 0 0 -1.11,2.27 z m -1,3.45 c 0.3,-0.46 0.62,-0.92 0.94,-1.35 0.18,-0.7 0.36,-1.37 0.55,-2 -0.32,0.38 -0.63,0.77 -0.92,1.18 a 19.93,19.93 0 0 0 -0.6,2.12 z m 0.29,9.65 a 9.49,9.49 0 0 1 1.73,-0.46 3.07,3.07 0 0 1 -1.23,-0.46 c -1.31,-1.07 -1.42,-2.93 -0.5,-7.27 0,0 -0.06,0.08 -0.09,0.13 a 7.22,7.22 0 0 0 -0.59,1.18 c 0,0.35 -0.05,0.7 -0.06,1.06 0,-0.3 0,-0.6 0,-0.89 a 7.67,7.67 0 0 0 -0.46,2 7.27,7.27 0 0 0 0.52,3.6 4.13,4.13 0 0 0 0.64,1.06 z"
     id="path22"
     inkscape:connector-curvature="0" />
  <path
     d="m 205.28398,190.99 a 10.3,10.3 0 0 0 -1.26,-0.47 c 1.59,0.13 1.56,-0.19 0.08,-0.73 1.41,-0.3 -2.56,-1.81 -9.19,-3.28 -2.07,-0.47 -3.8,-2.77 -3.8,-10.49 0,-7.72 -0.46,-9 -0.46,-9 0,0 1.72,-1.81 -0.84,-6.57 -0.25,-0.47 -0.54,-1 -0.88,-1.49 -2.76,-4.25 -6.24,-9.86 -10.65,-15.88 a 47.76,47.76 0 0 1 3.54,-8.67 c -2.09,10.68 11.09,16.68 14.39,18.13 a 2.41,2.41 0 0 0 -0.35,2.61 13.28,13.28 0 0 0 1.14,3.85 15.67,15.67 0 0 0 -2.19,0.59 c -0.77,0.31 0,1.24 2.21,0.75 -0.6,1 -0.71,2.14 -0.28,2.45 a 2.32,2.32 0 0 0 0,1.11 c 0.16,0.47 0.6,0.45 1.2,-0.47 -0.24,0.71 -0.16,1 0.15,1.09 0.61,0.08 3.43,-2.28 3.77,-3.41 0.34,-1.13 -0.75,-4.39 -1.56,-7.58 -0.81,-3.19 -1.84,-3 -2.47,-4.21 a 136.82,136.82 0 0 0 -8.67,-15 c 0,-0.74 -0.07,-1.41 -0.08,-2 a 18.58,18.58 0 0 1 0.63,-6.4 12,12 0 0 0 0.56,-3.79 c 0,-0.2 0,-0.4 0,-0.6 a 1,1 0 0 1 0,-0.16 c 0,-0.17 -0.05,-0.34 -0.08,-0.51 -0.03,-0.17 0,-0.07 0,-0.1 q -0.06,-0.3 -0.15,-0.6 c 0,0 0,-0.09 0,-0.14 0,-0.05 -0.11,-0.32 -0.17,-0.48 l -0.05,-0.14 c -0.08,-0.2 -0.16,-0.39 -0.25,-0.59 v -0.07 c -0.08,-0.17 -0.16,-0.34 -0.25,-0.51 l -0.08,-0.15 c -0.09,-0.18 -0.19,-0.35 -0.29,-0.53 v 0 l -0.33,-0.55 -0.1,-0.15 -0.27,-0.42 -0.08,-0.13 -0.34,-0.49 -0.12,-0.17 -0.24,-0.34 c 0,-0.06 -0.09,-0.12 -0.13,-0.19 l -0.29,-0.39 -0.43,-0.59 c -0.09,-0.12 -0.17,-0.23 -0.24,-0.34 a 1.13,1.13 0 0 1 -0.1,-0.13 l -0.25,-0.36 -0.1,-0.15 -0.15,-0.23 -0.1,-0.15 v -0.07 l 0.48,-0.35 a 18.23,18.23 0 0 0 7.74,2.74 h 0.22 0.08 0.25 0.06 0.37 0.49 c 0.28,0 0.58,0 0.89,-0.07 v 0 a 5.7,5.7 0 0 0 5.05,-3.9 c 1.45,-4.37 1,-4.9 -0.51,-4.25 a 8.13,8.13 0 0 0 -1.22,-3.44001 c 0,0 0.68,-1 0,-1.27 -0.68,-0.27001 -2.53,-0.78001 -2.46,-2.07001 0,0 4,-2.760031 0,-2.860031 -3.28,-1.92 -3.23,-4.22 -7.68,-5 -8.23,-1.54 -14.92,9.170031 -15.17,9.340031 a 16.14,16.14 0 0 1 -9,2.06001 c -10.79,1.44001 -12.28,12.20001 -12.28,12.20001 -3.68,3.94 -7.41,10 -8.22,13.23 -0.81,3.23 -2.37,10.34 -2.1,13.8 0.1,1.23 -0.71,1.1 -0.23,3.42 0,0 -3.09,2.52 -3.48,8.81 -0.14,2.28 -0.4,3.69 0.81,2.13 a 5.11,5.11 0 0 0 1.19,-3 c -0.08,3.57 0.9,5.69 2.12,4.82 0.3,0.55 0.71,0.8 1.24,0.59 a 4.08,4.08 0 0 0 0.39,2 c 0.79,1.17 0.71,-0.23 1.84,-3.86 a 10.77,10.77 0 0 1 1.07,-2.5 c 0,2.54 2.73,3.93 2.18,1.67 a 40.26,40.26 0 0 1 -0.74,-7.21 c 0.11,-0.94 0.22,-2 0.34,-3.32 -0.24,-2.34 3.37,-5.15 4.13,-14.42 a 20.75,20.75 0 0 1 2.51,-3.1 c -0.47,6.56 -0.11,14.54 -0.11,14.54 0,0 -4,5.47 1.9,13.36 a 9.42,9.42 0 0 0 3.66,3.12 c 2,3.26 3.55,5.38 2.68,6.79 -1.3,2.1 -10.89,10.93 -12.78,19.46 -0.35,1.56 0.25,1.51 2.76,3.26 2.51,1.75 11.14,4.17 13.73,4 1.52,-0.1 1.73,-0.52 0.75,-1.17 1.85,0.44 1.88,-0.16 0.61,-1 1.66,0.2 -0.42,-1.55 -6.11,-2.95 -5.69,-1.4 -4.24,-2.49 -3.45,-3.23 1.69,-1.59 15.11,-14.52 15.15,-14.56 3.4,-2.82 0.28,-8.76 0.08,-12.26 1.61,-1.18 7.1,10.15 7.91,10.66 0,0 0.46,7.72 2.65,12.79 2.19,5.07 -1.73,8.87 6,9.32 7.73,0.45 15.07,0.55 13.81,-0.03 z"
     id="path24"
     inkscape:connector-curvature="0" />
  <path
     d="m 608.62398,40.699949 -1.68,-11.31 -5.23,10.16 1.2,8.08 -11.43,69.000051 -8.81,-15.52002 a 79.22,79.22 0 0 0 -3.1,-12.930031 c 3.63,-6.57 -0.71,-12.69 -6.25,-17.57 -1.84,-2.5 -1.43,-4 -1.43,-4 -0.41,-2.91 2.76,-0.87 7.25,-1.63 2.74,-0.47 1.75,-4.31 1.3,-5.14 a 1.51,1.51 0 0 1 -0.16,-0.41 1.45,1.45 0 0 1 0.16,-1.1 2.83,2.83 0 0 0 -0.3,-1.58 c 0.45,-0.22 1.73,-0.52 1.8,-1 0.17,-1 -1.5,-3.16 -1.8,-3.69 -0.3,-0.53 -0.16,-0.45 0.52,-2 0.37,-0.87 -0.12,-2 -0.9,-3 a 4.86,4.86 0 0 0 0.55,-2.31 3.94,3.94 0 0 0 -1.15,-2.9 2.53,2.53 0 0 0 -1.52,-0.68 3,3 0 0 0 -0.52,0 1.83,1.83 0 0 0 -0.22,-0.78 2.52,2.52 0 0 0 -1.61,-1.06 7.08,7.08 0 0 0 -1.88,-0.2 l -1.57,0.05 a 8.63,8.63 0 0 0 -2.41,-0.42 10.57,10.57 0 0 0 -1.7,0.1 4.13,4.13 0 0 0 -2,-0.28 4.74,4.74 0 0 0 -2.25,0.81 4.5,4.5 0 0 0 -1.32,1.36 v 0 a 4.11,4.11 0 0 0 -0.87,0.67 11.54,11.54 0 0 0 -1.3,1.62 13.82,13.82 0 0 0 -1.81,3.7 v 0 c -1.06,1.19 -2.18,2.34 -3.17,3.61 a 13.85,13.85 0 0 0 -1.42,2.13 7.55,7.55 0 0 0 -0.78,2.11 5.69,5.69 0 0 0 -0.41,0.63 7.06,7.06 0 0 0 -0.86,4.26 14.16,14.16 0 0 0 -0.14,1.61 10.66,10.66 0 0 0 0.56,3.48 c 0.05,0.15 0.11,0.28 0.15,0.43 -0.07,0.43 -0.16,0.86 -0.23,1.32 a 12.1,12.1 0 0 0 -0.12,2.08 7.84,7.84 0 0 0 1.1,4 4.79,4.79 0 0 0 0.68,0.81 6.74,6.74 0 0 0 -0.18,1.7 31.36,31.36 0 0 0 -6.27,13.58 c -0.55,2.54 -2.09,3.92 -1.47,5.13 0.62,1.21 -3.09,7.110031 -1.31,15.390051 1.78,8.28 1.92,7.68 0.61,11.2 a 16,16 0 0 0 -3.43,6.21 c -0.36,2.12 0.19,3.17 1.16,2.81 0.09,0.49 1.25,1.89 2.13,1 0.34,1.48 2.31,1.78 2.83,-0.15 1,1.85 1.67,0.67 2.15,-0.71 0.54,1.75 2.71,1.6 2,0.15 -0.81,-1.67 0.33,-3.68 0.09,-6.06 a 0.22,0.22 0 0 0 0,-0.08 c 0,-1.93 -0.85,-4.3 0.58,-10.73 2.27,-10.24001 -0.08,-14.120051 2.72,-17.930051 0.38,-0.51 0.73,-1 1.08,-1.48 1.18,6.840031 2.6,14.620051 1.71,17.600051 a 15.14,15.14 0 0 0 -3.59,8.48 15.32,15.32 0 0 0 0.75,6.19 14.82,14.82 0 0 0 0.57,1.47 c 0.15,0.35 0.29,0.7 0.41,1.05 a 15.07,15.07 0 0 1 0.47,1.81 c 1.14,5.92 -1.33,12.52 0.25,22.84 0.23,1.46 -8.48,5.76 -14.58,19.44 -6.1,13.68 -10.19,13.91 -8.48,16.85 0.79,1.36 11.87,3.95 14.7,4.29 2.83,0.34 6.36,-0.22 6,-0.79 -0.36,-0.57 -12,-5.65 -11.31,-8.59 0.69,-2.94 17.22,-19.67 20.3,-22.38 3.08,-2.71 4.79,-3.17 4.34,-6.22 -0.32,-2.11 1.4,-7 3,-14.38 h 0.1 c 3.33,8.14 8.61,13.79 8.68,16.28 0.07,2.49 -4.59,2.86 -2.42,24.76 0.35,3.39 -1.14,7.68 -1,9.83 0.14,2.15 7.45,1.58 14.82,1.58 1.81,-0.57 5.42,-1.7 5.31,-3.05 -0.11,-1.35 -2.38,-0.45 -7,-1.35 -4.62,-0.9 -4.13,-1.81 -4.66,-4.07 -0.53,-2.26 1.83,-12.32 3.3,-24.08 a 8,8 0 0 0 0.57,-6.11 32.07,32.07 0 0 0 -0.43,-4.7 l 3.71,-22.45 a 0.83,0.83 0 0 0 0.3,0.2 h 0.07 a 1.88,1.88 0 0 0 1.07,0 c 0.52,-0.23 0.22,-1.31 0.58,-2.67 0.28,-1 0.65,-1.15 1,-2 a 5.73,5.73 0 0 0 0,-4 5.22,5.22 0 0 0 -1,-1 3.81,3.81 0 0 0 -0.41,-0.29 l 11.56,-69.870051 z m -31,1.12 a 2,2 0 0 1 1.22,0.46 3.51,3.51 0 0 1 1.14,2.52 4.59,4.59 0 0 1 -0.35,2.1 l -0.07,-0.09 c 0.24,-2.6 0,-3.62 -1.64,-4.66 -0.16,-0.11 -0.35,-0.21 -0.53,-0.32 z m -4.22,-2.12 a 6.79,6.79 0 0 1 1.75,0.1 2.08,2.08 0 0 1 1.41,0.82 1.4,1.4 0 0 1 0.22,0.62 l -0.39,0.09 v 0 c -1.09,-0.53 -2.14,-1.12 -3.23,-1.6 z m -21.48,21.47 a 0.5,0.5 0 0 1 0,-0.12 c 0.08,0.26 0.18,0.52 0.29,0.79 a 6.77,6.77 0 0 1 0,2.42 9.57,9.57 0 0 1 -0.29,-3.09 z m 1.66,11.83 a 4.41,4.41 0 0 1 -0.5,-0.72 7.52,7.52 0 0 1 -0.8,-3.84 10.72,10.72 0 0 1 0.24,-2 0.94,0.94 0 0 0 0,-0.16 c 0.19,0.52 0.39,1 0.56,1.55 0.17,0.55 0.28,0.91 0.39,1.38 -0.07,0.42 -0.13,0.85 -0.17,1.31 a 5.24,5.24 0 0 0 0.26,2.31 0.59,0.59 0 0 1 0.02,0.17 z m 0,-4.08 a 10.34,10.34 0 0 0 -0.26,-1.1 c -0.18,-0.67 -0.39,-1.34 -0.6,-2 0.11,-0.44 0.22,-0.87 0.32,-1.32 q 0.07,-0.33 0.12,-0.66 l 0.06,0.13 a 7.69,7.69 0 0 1 0.33,4.95 z m 2.92,-17.7 a 20.18,20.18 0 0 0 -3.31,2.94 11.15,11.15 0 0 1 2.15,-3.55 c 0.79,-0.93 1.64,-1.8 2.5,-2.67 a 9.74,9.74 0 0 0 -1.3,3 c -0.05,0.15 -0.05,0.2 -0.07,0.28 z m 0.21,-0.17 v 0 a 8.93,8.93 0 0 1 1,-2.32 c -0.12,0.58 -0.22,1.16 -0.31,1.74 -0.23,0.18 -0.48,0.38 -0.72,0.62 z m 2.2,-2.33 a 7.61,7.61 0 0 1 -1.24,1.48 c 0.15,-0.75 0.33,-1.48 0.54,-2.21 l 0.07,-0.09 a 18.17,18.17 0 0 1 1.79,-2 11.25,11.25 0 0 1 -1.19,2.82 z m 2.75,-6.63 -0.29,0.42 h -0.05 a 15.61,15.61 0 0 1 -2.39,3.44 12.51,12.51 0 0 1 1.52,-2.57 11.75,11.75 0 0 1 1.25,-1.44 c -0.01,0.08 -0.03,0.15 -0.04,0.15 z m 1.65,-1.54 v -0.12 a 2.26,2.26 0 0 0 -0.68,0.12 4.6,4.6 0 0 1 1.07,-0.86 4.51,4.51 0 0 1 2.1,-0.58 3,3 0 0 1 0.52,0 9.45,9.45 0 0 0 -3.01,1.48 z m 17,83.650051 c -0.19,-0.47 -3.72,-7.74 -3.72,-7.74 a 77.77,77.77 0 0 0 1.62,-10.35 c 1.46,6 8.31,12 8.31,12 a 1.27,1.27 0 0 0 0,0.18 5,5 0 0 0 0.28,2.73 14.67,14.67 0 0 0 0.74,1.38 14.36,14.36 0 0 0 1.26,2.62 3.07,3.07 0 0 0 1,1 l 0.18,0.1 -3,18.1 a 126.8,126.8 0 0 0 -6.7,-19.98 z"
     id="path26"
     inkscape:connector-curvature="0" />
  <path
     d="m 730.60398,188.85 c -4.74,-0.92 -4.22,-1.85 -4.77,-4.16 -0.55,-2.31 1.88,-12.6 3.38,-24.6 a 8.16,8.16 0 0 0 0.59,-6.25 c 0,0 0.21,-10.57 -8.34,-31.17 -0.2,-0.48 -3.81,-7.92 -3.81,-7.92 -0.75,-7.56 -0.86,-11.09001 -0.54,-14.25002 1.5,6.16002 9.42,14.10002 9.42,14.10002 -0.11,4.06 -0.27,4.91 2,6.82 a 8.4,8.4 0 0 1 1.75,2.19 c -2.84,-0.12 -3.25,1.15 0.65,1.14 a 1.22,1.22 0 0 0 0.23,0.28 c -1.51,1.93 -2,4.71 1.72,0.26 a 12.06,12.06 0 0 1 -0.43,2.34 c -0.45,1.39 1.4,-0.31 2.1,-2.82 h 0.08 c 0.55,1.84 0.93,3.38 1.33,2.54 2.49,-5.25 -4.1,-13.07 -4.1,-13.07 -4.26,-14.580051 -8.46,-18.260051 -8.46,-18.260051 a 109.24,109.24 0 0 0 -3.42,-14.93 c 1.09,-5.94 0,-8.29 -5.65,-13.29 a 11.66,11.66 0 0 1 -2,-5.79 c -0.35,-2.63 2.36,-0.78 6.21,-1.48 2.34,-0.42 1.49,-3.89 1.11,-4.65 a 1.21,1.21 0 0 1 -0.14,-0.37 1.36,1.36 0 0 1 0.14,-1 2.67,2.67 0 0 0 -0.25,-1.42 c 0.38,-0.2 1.48,-0.47 1.54,-0.88 0.14,-0.89 -1.28,-2.87 -1.54,-3.34 -0.26,-0.47 -0.13,-0.41 0.45,-1.85 0.31,-0.79 -1.47,-5.4 -1.54,-5.23 0,0 1.29,-1.34 0.66,-2.79 -0.92,-2.1 -2.86,-1.68 -4.24,-1.43 a 3.34,3.34 0 0 0 -2.43,-0.4 c -4,-2.51 -7.62,1.16 -7.78,1.21 -4.82,2.84 -5.8,8 -5.63,11.61 a 10.68,10.68 0 0 0 1.5,4.77 13,13 0 0 1 1.88,3.11 c 0.65,2.3 -7.58,5.79 -12.33,13 -1.43,2.12 -1.64,11.42 -2.45,15.22 -0.56,2.61 -4.79,9.21 -3,17.680041 1.79,8.47001 1.72,9.19001 0.38,12.78001 a 16.38,16.38 0 0 0 -3.51,6.36 c -0.38,2.17 0.19,3.25 1.18,2.88 0.1,0.5 1.28,1.93 2.18,1 0.36,1.51 2.36,1.82 2.9,-0.15 1,1.89 1.71,0.68 2.2,-0.73 0.55,1.79 2.77,1.64 2,0.15 -0.84,-1.71 0.33,-3.76 0.08,-6.2 v -0.08 a 39.73,39.73 0 0 1 0.85,-12.3 c 2.32,-10.480051 0,-11.130051 2.91,-15.000051 l 1.1,-1.51 c 1.21,7 2.09,11.590041 1.18,14.640051 -0.63,3.13 -3.68,4.74 -3.89,10 a 32.24,32.24 0 0 0 1.56,8.41 13.22,13.22 0 0 0 0.58,1.5 c 0.15,0.36 0.29,0.72 0.41,1.08 a 15.8,15.8 0 0 1 0.49,1.85 c 1.16,6.06 -0.23,12.87 0.25,23.37 0.07,1.52 -8.15,12.39 -8.4,23 -0.36,15.32 -3.13,13.66 -1,16.41 1,1.27 12.58,2.37 15.5,2.33 2.92,-0.04 6.42,-1.11 6,-1.64 -0.42,-0.53 -13.32,-4.75 -13.04,-7.83 0.28,-3.08 4.71,-18.85 7.94,-21.53 1.74,-0.47 3.54,-2.61 4.34,-5.82 0.53,-2.11 3.13,-13.81 2.58,-23.49 0.08,1.12 0.91,7.58 9.42,23.1 0.08,2.54 -4.7,2.93 -2.47,25.33 0.35,3.47 -1.18,7.86 -1.05,10.07 0.13,2.21 7.62,1.61 15.17,1.61 1.84,-0.58 5.54,-1.74 5.43,-3.13 -0.11,-1.39 -2.42,-0.46 -7.16,-1.38 z"
     id="path28"
     inkscape:connector-curvature="0" />
  <rect
     class="cls-1"
     x="709.27399"
     y="11.509935"
     width="75.07"
     height="175.16"
     id="rect30"
     style="fill:none;stroke:#000000;stroke-width:3px;stroke-miterlimit:10" />
  <rect
     x="701.77399"
     y="4.9999428"
     width="88.080002"
     height="14.01"
     rx="3.73"
     id="rect32" />
  <rect
     x="702.77399"
     y="183.16"
     width="88.080002"
     height="14.01"
     rx="3.73"
     id="rect34" />
  <path
     d="m 782.29398,36.739949 v 1.43 h -6.75 a 1.13,1.13 0 0 0 -1.14,1.12 v 2 a 1.13,1.13 0 0 0 1.13,1.12 h 6.75 v 1.44 h 1.43 v -7.11 z"
     id="path36"
     inkscape:connector-curvature="0" />
  <path
     d="m 767.12398,25.359949 a 1.51,1.51 0 0 0 -0.52,0.86 1.85,1.85 0 0 0 0.14,1.13 c 0.88,2.13 4.21,4.85 5.37,5.25 0.12,0 0.62,0.21 0.87,0 l 0.25,-0.25 1.5,4.49 a 1.46,1.46 0 0 1 0.38,-0.25 2,2 0 0 1 0.87,-0.12 c 0.41,0 0.75,0 1,0 h 1 a 29.59,29.59 0 0 0 -1.75,-4.28 26.1,26.1 0 0 0 -1.75,-3 13.18,13.18 0 0 0 -4,-3.75 4.43,4.43 0 0 0 -2.25,-0.5 1.71,1.71 0 0 0 -1.11,0.42 z"
     id="path38"
     inkscape:connector-curvature="0" />
  <path
     d="m 765.19398,28.219949 a 8.77,8.77 0 0 0 1,1.59 9.56,9.56 0 0 0 1.45,1.42 c 0.69,0.57 1.56,1.15 1.56,1.15 v 0 a 16.69,16.69 0 0 0 1.7,1 3.74,3.74 0 0 0 1.2,0.41 v 0 a 2.62,2.62 0 0 1 -1.41,0.53 2.28,2.28 0 0 1 -1.2,-0.4 14,14 0 0 1 -2,-1.36 15.6,15.6 0 0 1 -2.25,-2.26 c -0.41,-0.51 -0.69,-0.91 -0.58,-1.38 a 1.33,1.33 0 0 1 0.53,-0.7 z"
     id="path40"
     inkscape:connector-curvature="0" />
  <path
     d="m 780.10398,44.369949 a 12.21,12.21 0 0 1 0.25,2.5 c -0.13,0.5 -1,0.87 -1.12,0.87 -0.69,0 -1.25,-1.1 -2.38,-3.24 l -0.05,-0.11 z"
     id="path42"
     inkscape:connector-curvature="0" />
  <path
     d="m 779.40398,49.749949 1,-0.37 a 130.44,130.44 0 0 1 0.67,14.25 c -0.11,12.41 -2,19.13 0.7,29.19 a 46.1,46.1 0 0 0 2,5.87 l -0.12,2.220031 a 47.74,47.74 0 0 1 -3.92,-11.820031 c -1.81,-9.74 0.48,-15.32 0.12,-29.84 -0.05,-2.01 -0.17,-5.33 -0.45,-9.5 z"
     id="path44"
     inkscape:connector-curvature="0" />
  <polygon
     points="918.47,30.01 880.66,55.38 880.11,54.54 918.37,29.86 "
     id="polygon46"
     transform="translate(-154.59602,1.0899423)" />
  <polygon
     points="923.49,35.97 896.87,112.18 895.93,111.84 923.36,35.92 "
     id="polygon48"
     transform="translate(-154.59602,1.0899423)" />
  <rect
     x="750.81396"
     y="13.009935"
     width="1"
     height="171.14999"
     id="rect50" />
</svg>
