<?xml version="1.0" encoding="UTF-8" standalone="no"?>
<svg
   xmlns:dc="http://purl.org/dc/elements/1.1/"
   xmlns:cc="http://creativecommons.org/ns#"
   xmlns:rdf="http://www.w3.org/1999/02/22-rdf-syntax-ns#"
   xmlns:svg="http://www.w3.org/2000/svg"
   xmlns="http://www.w3.org/2000/svg"
   xmlns:sodipodi="http://sodipodi.sourceforge.net/DTD/sodipodi-0.dtd"
   xmlns:inkscape="http://www.inkscape.org/namespaces/inkscape"
   id="Слой_1"
   data-name="Слой 1"
   viewBox="0 0 600 600"
   version="1.1"
   sodipodi:docname="feature-4.svg"
   inkscape:version="0.92.4 (5da689c313, 2019-01-14)">
  <metadata
     id="metadata4934">
    <rdf:RDF>
      <cc:Work
         rdf:about="">
        <dc:format>image/svg+xml</dc:format>
        <dc:type
           rdf:resource="http://purl.org/dc/dcmitype/StillImage" />
      </cc:Work>
    </rdf:RDF>
  </metadata>
  <sodipodi:namedview
     pagecolor="#ffffff"
     bordercolor="#666666"
     borderopacity="1"
     objecttolerance="10"
     gridtolerance="10"
     guidetolerance="10"
     inkscape:pageopacity="0"
     inkscape:pageshadow="2"
     inkscape:window-width="1366"
     inkscape:window-height="746"
     id="namedview4932"
     showgrid="false"
     inkscape:zoom="0.39333333"
     inkscape:cx="300"
     inkscape:cy="300"
     inkscape:window-x="-8"
     inkscape:window-y="-8"
     inkscape:window-maximized="1"
     inkscape:current-layer="Слой_1" />
  <defs
     id="defs4915">
    <style
       id="style4913">.cls-1,.cls-2{fill:#980100;}.cls-2{font-size:53.3px;font-family:MyriadPro-Regular, Myriad Pro;}.cls-3{letter-spacing:-0.08em;}.cls-4{letter-spacing:0.02em;}</style>
  </defs>
  <title
     id="title4917">Иконки</title>
  <path
     class="cls-1"
     d="m 71.590508,281.96782 a 15.39331,16.812682 0 0 1 5.23582,-7.09107 Q 113.95877,241.83469 151.05978,208.724 a 4.1886558,4.5748794 0 0 0 1.72783,-4.00302 c 0,-24.65859 0.0838,-49.31719 -0.10472,-73.97579 -0.0524,-6.61071 3.60224,-11.63164 10.47164,-11.43719 14.66029,0.29736 29.32058,0.08 43.98088,0.0915 6.52384,0 9.95853,3.72852 9.97948,10.81959 0,6.1189 0,12.24924 0,18.36813 a 4.8693124,5.3182973 0 0 0 0.2199,0.84636 c 0.67018,-0.57186 1.23565,-1.0408 1.79064,-1.53259 q 30.54578,-27.4264 61.10202,-54.784179 c 5.06828,-4.574878 8.59722,-4.68925 13.84352,-0.423177 q 81.67878,66.495866 163.35757,133.003176 30.50389,24.8416 60.92399,49.809 c 1.96868,1.62409 3.22528,4.27751 4.81696,6.45059 v 4.02589 c -2.38754,5.83297 -5.09968,8.15472 -9.58154,7.5028 a 12.230874,13.358649 0 0 1 -5.37196,-2.52761 c -13.46652,-10.84248 -26.84928,-21.81075 -40.26346,-32.73326 -0.67018,-0.54899 -1.35084,-1.06368 -2.53413,-1.97864 v 3.49978 q 0,106.56038 0,213.10933 a 24.179016,26.408491 0 0 1 -0.23037,4.25463 8.6914608,9.4928748 0 0 1 -17.20491,-0.83491 c -0.0942,-1.24666 -0.0628,-2.51618 -0.0628,-3.77429 q 0,-113.84586 0,-227.69174 A 4.5865782,5.0094931 0 0 0 445.9307,240.2335 Q 367.88555,176.79134 289.90325,113.28059 c -0.72254,-0.59474 -1.46603,-1.14372 -2.29329,-1.80708 l -20.21027,18.01358 q -61.25908,54.68124 -122.51818,109.31674 a 4.8693124,5.3182973 0 0 0 -1.9896,4.6435 q 0.0734,114.85237 0,229.71615 a 20.283566,22.153852 0 0 1 -0.23038,3.99158 8.6914608,9.4928748 0 0 1 -17.2468,-1.32671 c 0,-1.08655 0,-2.17307 0,-3.27106 V 256.4972 c -1.04716,0.82346 -1.68592,1.31527 -2.30376,1.86425 -11.83294,10.54511 -23.864862,20.85002 -35.41508,31.7611 -5.351008,5.0438 -13.403699,4.88368 -16.09491,-4.14027 z m 98.820862,-90.90285 a 6.6704344,7.2854955 0 0 0 0.86914,-0.50323 c 9.09986,-8.10899 18.21018,-16.19507 27.22627,-24.37269 a 3.748847,4.0945172 0 0 0 1.04717,-2.81353 c 0.0838,-7.62861 0.0524,-15.25723 0,-22.87441 a 14.744068,16.103575 0 0 0 -0.1885,-1.85282 h -28.95408 z"
     id="path4919"
     inkscape:connector-curvature="0"
     style="fill:#980100;stroke-width:1.09437752" />
  <path
     class="cls-1"
     d="m 345.37153,361.4678 c 0.67018,8.80663 1.31942,17.31591 1.96866,25.82519 0.47122,6.09602 1.04716,12.19204 1.39273,18.29952 a 9.9899442,10.911088 0 0 1 -3.05771,8.8867 c -4.43998,4.75787 -8.92184,9.45856 -13.31994,14.57098 5.37196,0.57187 8.16788,4.84938 11.43504,8.36061 2.2514,2.42467 4.46092,4.86081 6.69138,7.29692 5.54996,6.0846 5.58138,12.39792 0.0524,18.42533 L 297.757,520.77654 c -3.04725,3.31677 -6.06308,6.66787 -9.13127,9.95035 -4.93214,5.30687 -10.95334,5.27254 -15.875,0 -2.953,-3.19098 -5.79082,-6.49633 -8.8276,-9.58438 -3.60224,-3.67134 -6.62854,-7.53709 -5.56044,-13.656 -4.84836,0.98359 -8.22024,-1.22378 -11.25701,-4.7007 -4.18865,-4.79218 -8.60769,-9.33276 -12.81729,-14.10205 -1.9163,-2.18451 -3.56036,-4.67783 -5.5395,-7.29695 -2.86922,3.16811 -6.04213,6.66789 -9.1941,10.19056 a 32.713402,35.72981 0 0 1 -19.34112,10.6366 c -16.39858,2.56193 -33.02754,-11.24277 -35.1114,-29.21062 a 31.571994,34.483153 0 0 1 9.36164,-29.99978 c 2.91112,-3.22528 5.88506,-6.37051 8.96373,-9.68729 -0.55499,-0.68625 -0.97387,-1.25809 -1.44509,-1.77277 -3.3614,-3.68277 -6.76468,-7.31981 -10.08418,-11.04833 a 10.314564,11.265641 0 0 1 -0.0628,-16.25227 c 3.5813,-4.03733 7.0893,-8.18903 10.97428,-11.8375 a 60.03391,65.56946 0 0 0 6.47148,-7.07961 91.689676,100.14412 0 0 1 10.92192,-11.89469 59.688346,65.192031 0 0 0 6.79609,-7.44562 108.42336,118.42074 0 0 1 10.56589,-11.56302 60.923998,66.541621 0 0 0 6.98458,-7.60574 148.30984,161.98505 0 0 1 10.53446,-11.60875 10.565884,11.540134 0 0 1 15.10012,0.10301 c 3.73836,3.96871 7.41392,8.00602 11.12088,12.04337 a 2.6179098,2.8592997 0 0 0 0.41886,0.2173 c 0.47122,-0.46892 1.04716,-0.97216 1.56028,-1.53258 10.15748,-11.08265 20.29403,-22.1996 30.4934,-33.23651 a 3.4137544,3.7285267 0 0 0 1.04718,-4.17459 66.714816,72.866393 0 0 1 53.56242,-90.35385 65.416332,71.448179 0 0 1 30.9437,2.37894 c 5.43478,1.87569 6.67044,7.194 2.64932,11.58588 q -15.93782,17.2816 -31.85472,34.63185 c -0.58642,0.64047 -1.13094,1.31527 -1.60216,1.84139 l 30.30492,33.05349 c 0.41886,-0.43461 1.04716,-1.02936 1.60216,-1.66983 q 15.81218,-17.2473 31.61388,-34.51746 c 4.36668,-4.75789 9.15222,-3.43118 10.99522,2.89361 12.20994,42.39769 -13.8435,87.54032 -54.01272,93.64779 a 65.709538,71.76842 0 0 1 -21.76006,-0.45751 17.56094,19.180183 0 0 0 -1.89536,-0.19442 z m 21.33072,-130.20108 -0.4817,-0.88066 a 55.321672,60.422721 0 0 0 -16.88028,0.48034 c -33.35216,7.14827 -52.74564,43.28981 -42.11693,78.58502 a 6.9322254,7.5714256 0 0 1 -1.91631,8.62362 c -6.7961,7.28551 -13.50842,14.65108 -20.25215,21.99375 -0.51311,0.57187 -0.99481,1.14373 -1.04717,1.20092 2.8064,0 5.97932,-0.30882 9.11034,-0.08 8.12598,0.60617 16.22056,1.46397 24.32562,2.17307 9.42446,0.8349 18.93272,1.45253 28.06398,4.74644 a 38.525162,42.077452 0 0 0 8.8276,1.70414 55.05988,60.136791 0 0 0 58.9658,-48.63098 40.609018,44.353457 0 0 0 -0.0838,-19.44325 c -0.76442,0.49179 -1.04716,1.47541 -1.59168,2.10445 q -13.94822,15.33728 -27.9907,30.61738 c -3.59176,3.92296 -6.51336,3.92296 -10.09466,0 Q 355.13107,294.37726 336.7324,274.2478 c -3.57083,-3.90009 -3.54989,-7.04533 0.0838,-11.01402 q 13.93776,-15.22291 27.87551,-30.41151 a 15.45614,16.881305 0 0 1 2.01055,-1.55547 z M 256.40447,494.39091 c 0.51312,-0.66335 1.04717,-1.42963 1.5917,-2.08157 l 54.06507,-59.07312 c 7.75949,-8.48641 15.56085,-16.92706 23.24703,-25.48208 a 5.2358198,5.7185993 0 0 0 1.54981,-3.83146 c -0.96339,-14.12494 -2.09433,-28.23844 -3.20432,-42.31764 -0.24085,-3.14523 -0.99481,-3.83146 -3.89545,-4.08308 -8.5658,-0.76629 -17.1316,-1.58977 -25.6974,-2.3675 -4.63894,-0.42317 -9.28834,-0.82349 -14.14719,-1.24666 -0.36651,4.80362 -0.71207,9.35563 -1.04717,14.03345 0.63878,0.103 1.04717,0.18299 1.52886,0.22875 q 12.72304,1.14372 25.46704,2.37893 c 3.59176,0.34312 5.6128,2.51619 5.92694,6.37052 0.20944,2.59624 0.2199,5.20392 0.58642,7.76586 0.50264,3.51122 -0.68066,6.03885 -2.93206,8.48641 q -38.16914,41.41409 -76.1393,82.99974 a 8.5343862,9.3213169 0 0 1 -2.15716,1.37245 z m -64.42152,-51.93632 c -3.81168,3.99158 -7.571,7.49138 -10.82768,11.43721 a 18.576688,20.289591 0 0 0 -4.18866,18.574 c 1.62311,8.21192 6.28299,13.83901 13.61314,16.10359 7.73854,2.37893 14.7336,0.51465 20.53488,-5.82154 l 90.3912,-98.73733 c 0.45028,-0.49181 0.83772,-1.06366 1.4032,-1.80708 l -18.84896,-1.82997 a 48.483692,52.954229 0 0 1 -3.63366,5.45557 c -3.21478,3.72851 -6.42958,7.46848 -9.95852,10.81957 a 61.677956,67.365099 0 0 0 -7.33015,7.94886 79.018992,86.305102 0 0 1 -10.25173,11.19702 62.756536,68.543131 0 0 0 -7.33016,8.00603 83.773116,91.497589 0 0 1 -9.93758,10.81959 65.426804,71.459618 0 0 0 -7.78042,8.55502 c -2.9216,3.65992 -6.283,6.93094 -9.42448,10.36212 -5.23582,5.71858 -11.12088,5.71858 -16.36718,0 -3.38234,-3.67135 -6.77514,-7.47993 -10.06324,-11.08266 z m 88.37016,78.12752 61.32192,-67.022 -9.42447,-10.29348 -61.38475,67.01056 z m -81.24944,-127.60484 28.81794,31.62386 8.51344,-9.28701 -28.8703,-31.63529 z m -8.72288,9.80169 -8.76476,9.56149 28.52474,31.20068 8.77524,-9.59582 z m 26.1791,-28.83319 28.71324,31.39512 c 2.77498,-3.03086 5.73845,-6.25615 8.4506,-9.22983 l -28.69228,-31.46373 z m 46.00191,12.4208 8.55533,-9.3785 c -9.42448,-10.36209 -19.0898,-20.96438 -28.54569,-31.32648 l -8.61816,9.4128 z m 14.55557,-22.13097 c 0.59689,-6.10746 1.15188,-11.8375 1.63358,-16.77837 -2.4713,2.71062 -5.47666,6.00452 -8.3773,9.14974 z"
     id="path4921"
     inkscape:connector-curvature="0"
     style="fill:#980100;stroke-width:1.09437752" />
</svg>
