<?xml version="1.0" encoding="UTF-8" standalone="no"?>
<svg
   xmlns:dc="http://purl.org/dc/elements/1.1/"
   xmlns:cc="http://creativecommons.org/ns#"
   xmlns:rdf="http://www.w3.org/1999/02/22-rdf-syntax-ns#"
   xmlns:svg="http://www.w3.org/2000/svg"
   xmlns="http://www.w3.org/2000/svg"
   xmlns:sodipodi="http://sodipodi.sourceforge.net/DTD/sodipodi-0.dtd"
   xmlns:inkscape="http://www.inkscape.org/namespaces/inkscape"
   id="Слой_1"
   data-name="Слой 1"
   viewBox="0 0 600 600"
   version="1.1"
   sodipodi:docname="feature-3.svg"
   inkscape:version="0.92.4 (5da689c313, 2019-01-14)">
  <metadata
     id="metadata4886">
    <rdf:RDF>
      <cc:Work
         rdf:about="">
        <dc:format>image/svg+xml</dc:format>
        <dc:type
           rdf:resource="http://purl.org/dc/dcmitype/StillImage" />
      </cc:Work>
    </rdf:RDF>
  </metadata>
  <sodipodi:namedview
     pagecolor="#ffffff"
     bordercolor="#666666"
     borderopacity="1"
     objecttolerance="10"
     gridtolerance="10"
     guidetolerance="10"
     inkscape:pageopacity="0"
     inkscape:pageshadow="2"
     inkscape:window-width="1366"
     inkscape:window-height="746"
     id="namedview4884"
     showgrid="false"
     inkscape:zoom="0.39333333"
     inkscape:cx="300"
     inkscape:cy="300"
     inkscape:window-x="-8"
     inkscape:window-y="-8"
     inkscape:window-maximized="1"
     inkscape:current-layer="Слой_1" />
  <defs
     id="defs4843">
    <style
       id="style4841">.cls-1{fill:#fff;stroke:#980100;stroke-miterlimit:10;stroke-width:12px;}.cls-2,.cls-3{fill:#980100;}.cls-3{font-size:53.3px;font-family:MyriadPro-Regular, Myriad Pro;}.cls-4{letter-spacing:-0.01em;}.cls-5{letter-spacing:0.03em;}.cls-6{letter-spacing:-0.08em;}.cls-7{letter-spacing:0em;}.cls-8{letter-spacing:0em;}</style>
  </defs>
  <title
     id="title4845">Иконки</title>
  <path
     class="cls-1"
     d="m 564.84549,320.71688 -38.46866,-81.0003 c -3.50459,-7.32778 -8.90165,-10.74831 -14.1702,-9.88001 h -0.21029 -127.21642 c -4.46251,0 -8.07222,5.88063 -8.07222,13.15581 v 101.1155 a 15.291671,17.220945 0 0 0 -2.10276,8.97226 v 69.01534 c 0,7.45933 3.71485,13.51101 8.29419,13.51101 h 176.29228 c 4.59102,0 8.30587,-6.05168 8.30587,-13.51101 l 1.16819,-68.79168 a 63.082525,71.041339 0 0 0 -3.8784,-32.56063 z"
     id="path4847"
     inkscape:connector-curvature="0"
     style="fill:#ffffff;stroke:#980100;stroke-width:14.8763895px;stroke-miterlimit:10" />
  <rect
     class="cls-1"
     x="166.01205"
     y="186.09351"
     width="249.70166"
     height="272.62772"
     rx="21.120962"
     id="rect4849"
     style="fill:#ffffff;stroke:#980100;stroke-width:14.8763895px;stroke-miterlimit:10" />
  <ellipse
     class="cls-1"
     cx="254.3159"
     cy="450.14368"
     id="circle4851"
     rx="43.398441"
     ry="48.87381"
     style="fill:#ffffff;stroke:#980100;stroke-width:14.8763895px;stroke-miterlimit:10" />
  <ellipse
     class="cls-1"
     cx="183.17285"
     cy="216.47026"
     id="circle4853"
     rx="70.068329"
     ry="78.908501"
     style="fill:#ffffff;stroke:#980100;stroke-width:14.8763895px;stroke-miterlimit:10" />
  <ellipse
     class="cls-1"
     cx="493.36365"
     cy="450.14368"
     id="circle4855"
     rx="43.398441"
     ry="48.87381"
     style="fill:#ffffff;stroke:#980100;stroke-width:14.8763895px;stroke-miterlimit:10" />
  <path
     class="cls-2"
     d="m 200.614,203.74861 a 4.2171836,4.7492451 0 0 0 -5.84098,-0.27628 L 184.563,213.78648 v -43.59833 a 4.1587738,4.6834659 0 0 0 -8.30586,0 v 54.0835 a 4.123728,4.6439987 0 0 0 4.14708,4.59138 4.1938197,4.7229334 0 0 0 3.04899,-1.49976 l 16.92715,-17.10253 a 4.0185904,4.5255963 0 0 0 0.23364,-6.51213 z"
     id="path4857"
     inkscape:connector-curvature="0"
     style="fill:#980100;stroke-width:1.23969924" />
  <rect
     class="cls-2"
     x="11.343061"
     y="237.54587"
     width="58.865337"
     height="17.444597"
     rx="7.7451324"
     id="rect4859"
     style="fill:#980100;stroke-width:1.23969924" />
  <rect
     class="cls-2"
     x="-0.92299205"
     y="312.32352"
     width="127.53183"
     height="17.444597"
     rx="7.7451324"
     id="rect4861"
     style="fill:#980100;stroke-width:1.23969924" />
  <rect
     class="cls-2"
     x="94.728806"
     y="390.83725"
     width="73.572922"
     height="17.444597"
     rx="7.7451324"
     id="rect4863"
     style="fill:#980100;stroke-width:1.23969924" />
  <rect
     class="cls-2"
     x="54.262539"
     y="390.83725"
     width="22.078882"
     height="17.444597"
     rx="7.7451324"
     id="rect4865"
     style="fill:#980100;stroke-width:1.23969924" />
</svg>
