<?xml version="1.0" encoding="UTF-8" standalone="no"?>
<svg
   xmlns:dc="http://purl.org/dc/elements/1.1/"
   xmlns:cc="http://creativecommons.org/ns#"
   xmlns:rdf="http://www.w3.org/1999/02/22-rdf-syntax-ns#"
   xmlns:svg="http://www.w3.org/2000/svg"
   xmlns="http://www.w3.org/2000/svg"
   xmlns:sodipodi="http://sodipodi.sourceforge.net/DTD/sodipodi-0.dtd"
   xmlns:inkscape="http://www.inkscape.org/namespaces/inkscape"
   id="Слой_1"
   data-name="Слой 1"
   viewBox="0 0 600 600"
   version="1.1"
   sodipodi:docname="feature-2.svg"
   inkscape:version="0.92.4 (5da689c313, 2019-01-14)">
  <metadata
     id="metadata4790">
    <rdf:RDF>
      <cc:Work
         rdf:about="">
        <dc:format>image/svg+xml</dc:format>
        <dc:type
           rdf:resource="http://purl.org/dc/dcmitype/StillImage" />
      </cc:Work>
    </rdf:RDF>
  </metadata>
  <sodipodi:namedview
     pagecolor="#ffffff"
     bordercolor="#666666"
     borderopacity="1"
     objecttolerance="10"
     gridtolerance="10"
     guidetolerance="10"
     inkscape:pageopacity="0"
     inkscape:pageshadow="2"
     inkscape:window-width="1366"
     inkscape:window-height="746"
     id="namedview4788"
     showgrid="false"
     inkscape:zoom="0.39333333"
     inkscape:cx="300"
     inkscape:cy="300"
     inkscape:window-x="-8"
     inkscape:window-y="-8"
     inkscape:window-maximized="1"
     inkscape:current-layer="Слой_1" />
  <defs
     id="defs4753">
    <style
       id="style4751">.cls-1{fill:#fff;stroke:#980100;stroke-miterlimit:10;stroke-width:12px;}.cls-2,.cls-3{fill:#980100;}.cls-3{font-size:53.3px;font-family:MyriadPro-Regular, Myriad Pro;}.cls-4{letter-spacing:-0.01em;}.cls-5{letter-spacing:-0.02em;}.cls-6{letter-spacing:-0.01em;}.cls-7{letter-spacing:0.03em;}</style>
  </defs>
  <title
     id="title4755">Иконки</title>
  <path
     class="cls-1"
     d="m 386.75651,426.117 c -3.83619,-2.90111 -7.22761,-5.2106 -10.31879,-7.86141 -7.07193,-6.07525 -14.4552,-7.66799 -22.92818,-2.94661 a 90.478446,92.573441 0 0 1 -14.57752,6.18901 c -9.3514,3.20828 -14.63311,9.6817 -14.4552,19.68195 0.18903,11.90018 -5.55969,15.46114 -16.27878,14.78991 -9.39588,-0.60297 -18.90295,-0.38681 -28.29883,0 -8.40627,0.31856 -13.08753,-3.17414 -13.0208,-11.93432 0.11118,-13.23128 -6.44925,-20.66035 -18.5805,-23.95964 A 47.980152,49.091114 0 0 1 237.968,415.52514 c -8.27282,-4.55074 -15.56714,-3.75436 -22.89482,2.50292 -11.50856,9.82959 -12.49819,9.56793 -23.16168,-1.29697 -6.67163,-6.82611 -13.18759,-13.81151 -20.0149,-20.47832 -5.81543,-5.68843 -6.19349,-11.27448 -0.42253,-16.90601 9.42924,-9.16974 10.00745,-19.1245 3.43589,-30.18278 a 32.746592,33.504827 0 0 1 -3.46925,-8.50991 c -2.97999,-10.96728 -9.50708,-17.32692 -20.9934,-17.32692 -9.407,0 -13.66572,-4.24359 -13.12088,-14.25522 0.57821,-10.38705 0.38918,-20.85376 0,-31.26359 -0.27798,-8.52125 2.74649,-13.2654 11.57528,-13.23126 12.23133,0 19.72579,-5.97286 22.80586,-18.20296 a 48.847463,49.978509 0 0 1 4.89254,-11.67265 c 5.00372,-9.1015 3.56932,-17.22457 -3.43589,-24.17583 -7.69462,-7.63386 -7.38328,-14.05039 0.73387,-21.26334 a 273.78153,280.12085 0 0 0 20.79326,-21.27468 c 5.70425,-6.31418 11.35289,-7.39497 17.36848,-0.9898 8.56192,9.10148 17.85773,10.50082 28.45451,3.85674 a 35.582036,36.405926 0 0 1 9.3514,-4.05015 c 10.87477,-2.98073 16.85699,-9.86372 16.75691,-21.54775 -0.089,-9.932 4.54784,-13.74325 14.06603,-13.26541 10.16312,0.50057 20.39295,0.42093 30.56719,0 8.4841,-0.34131 12.96521,3.17413 12.88738,11.93431 -0.10013,12.68519 5.95998,20.13704 17.8466,23.20878 a 33.413756,34.187439 0 0 1 9.36253,3.97052 c 9.81842,6.22314 18.61385,5.0627 26.56421,-3.27653 6.73835,-7.08778 12.58715,-6.54169 19.02528,0.87602 a 295.40873,302.24882 0 0 0 21.63832,22.05971 c 6.32693,5.92733 6.96073,11.68402 0.78948,17.73651 -8.95111,8.79431 -10.15201,18.30535 -3.63605,29.11337 a 34.870395,35.677806 0 0 1 3.93627,9.60205 c 2.85769,11.24033 9.72946,17.06529 21.12683,17.06529 9.39589,0 13.62125,4.48247 13.09864,14.40309 -0.54485,10.39843 -0.46701,20.86514 0,31.27496 0.3447,8.74881 -3.33582,13.36782 -11.71984,13.27679 -12.43147,-0.11376 -19.75914,5.77944 -22.67242,18.06645 a 31.912638,32.651564 0 0 1 -3.95851,9.55655 c -6.11566,10.00025 -5.10379,18.96522 3.08007,27.15654 6.74948,6.75784 6.67164,12.88998 -0.56708,19.56819 -7.85029,7.21291 -14.93334,15.2905 -22.58348,22.7537 -2.39066,2.18435 -5.47073,3.62921 -8.71759,5.77945 z M 222.6566,293.00783 a 72.82086,74.507002 0 1 0 74.06624,-73.79026 c -40.90823,-0.44371 -73.84385,32.3899 -74.06624,73.83576 z"
     id="path4757"
     inkscape:connector-curvature="0"
     style="fill:#ffffff;stroke:#980100;stroke-width:13.49685764px;stroke-miterlimit:10" />
  <path
     class="cls-2"
     d="m 256.48178,100.86418 1.45664,15.51803 37.75032,-27.531985 -42.19808,-19.681957 1.49,15.8252 C 172.50817,101.75157 107.09283,168.79536 91.258821,253.67805 l 15.222439,2.98074 A 193.16597,197.63867 0 0 1 256.48178,100.86418 Z"
     id="path4759"
     inkscape:connector-curvature="0"
     style="fill:#980100;stroke-width:1.12473845" />
  <path
     class="cls-2"
     d="m 107.05946,333.98724 15.16685,-1.44485 -26.908913,-38.6813 -19.236542,43.23204 15.478184,-1.52451 A 208.56632,213.3956 0 0 0 257.11559,503.19516 l 2.85768,-15.59768 A 193.02143,197.49077 0 0 1 107.05946,333.98724 Z"
     id="path4761"
     inkscape:connector-curvature="0"
     style="fill:#980100;stroke-width:1.12473845" />
  <path
     class="cls-2"
     d="m 334.9068,486.85801 -1.41215,-15.51803 -37.80591,27.53197 42.25366,19.68196 -1.49,-15.8252 c 81.99435,-16.66708 147.28739,-83.24442 163.45498,-167.52414 l -15.18908,-3.07175 c -14.93334,77.48773 -74.65556,138.79759 -149.8115,154.72519 z"
     id="path4763"
     inkscape:connector-curvature="0"
     style="fill:#980100;stroke-width:1.12473845" />
  <path
     class="cls-2"
     d="m 484.32912,253.74632 -15.17796,1.50173 26.90891,38.61304 19.23654,-43.17516 -15.46707,1.52449 A 208.35506,213.17944 0 0 0 342.92389,86.426952 l -3.51373,15.449768 a 191.77606,196.21655 0 0 1 144.91896,151.8696 z"
     id="path4765"
     inkscape:connector-curvature="0"
     style="fill:#980100;stroke-width:1.12473845" />
</svg>
